STARTFONT 2.1
COMMENT
COMMENT Converted from OpenType font "ipam.ttf" by "otf2bdf 3.0".
COMMENT
FONT -FreeType-IPAMincho-Medium-R-Normal--20-200-72-72-P-176-ISO10646-1
SIZE 20 72 72
FONTBOUNDINGBOX 20 21 0 -3
STARTPROPERTIES 19
FOUNDRY "FreeType"
FAMILY_NAME "IPAMincho"
WEIGHT_NAME "Medium"
SLANT "R"
SETWIDTH_NAME "Normal"
ADD_STYLE_NAME ""
PIXEL_SIZE 20
POINT_SIZE 200
RESOLUTION_X 72
RESOLUTION_Y 72
SPACING "P"
AVERAGE_WIDTH 176
CHARSET_REGISTRY "ISO10646"
CHARSET_ENCODING "1"
FONT_ASCENT 17
FONT_DESCENT 2
COPYRIGHT "Copyright(c) Information-technology Promotion Agency, Japan (IPA), 2003-2011. You must accept "http://ipafont.ipa.go.jp/ipa_font_license_v1.html" to use this product."
_OTF_FONTFILE "ipam.ttf"
_OTF_PSNAME "IPAMincho"
ENDPROPERTIES
CHARS 11158
STARTCHAR 0020
ENCODING 32
SWIDTH 500 0
DWIDTH 10 0
BBX 0 0 0 0
BITMAP
ENDCHAR
STARTCHAR 0021
ENCODING 33
SWIDTH 500 0
DWIDTH 10 0
BBX 2 17 4 -1
BITMAP
C0
C0
C0
C0
C0
C0
C0
C0
C0
80
80
80
00
00
00
C0
C0
ENDCHAR
STARTCHAR 0022
ENCODING 34
SWIDTH 500 0
DWIDTH 10 0
BBX 6 6 2 11
BITMAP
CC
CC
CC
44
88
90
ENDCHAR
STARTCHAR 0023
ENCODING 35
SWIDTH 500 0
DWIDTH 10 0
BBX 8 17 1 -1
BITMAP
12
24
24
24
7F
24
24
24
24
24
24
FE
48
48
48
48
48
ENDCHAR
STARTCHAR 0024
ENCODING 36
SWIDTH 500 0
DWIDTH 10 0
BBX 8 18 1 -1
BITMAP
10
10
3C
52
92
D2
50
30
18
16
12
D3
D1
93
52
3C
10
10
ENDCHAR
STARTCHAR 0025
ENCODING 37
SWIDTH 500 0
DWIDTH 10 0
BBX 8 18 1 -1
BITMAP
61
91
92
92
94
94
98
68
08
10
16
29
29
49
49
49
89
86
ENDCHAR
STARTCHAR 0026
ENCODING 38
SWIDTH 500 0
DWIDTH 10 0
BBX 9 15 1 0
BITMAP
3800
2C00
4400
4800
2800
3000
6700
5200
9200
9A00
8A00
8D00
8580
CF00
7300
ENDCHAR
STARTCHAR 0027
ENCODING 39
SWIDTH 500 0
DWIDTH 10 0
BBX 2 6 2 11
BITMAP
C0
C0
C0
40
80
80
ENDCHAR
STARTCHAR 0028
ENCODING 40
SWIDTH 500 0
DWIDTH 10 0
BBX 5 18 3 -1
BITMAP
08
10
20
40
40
80
80
80
80
80
80
80
80
40
40
20
10
08
ENDCHAR
STARTCHAR 0029
ENCODING 41
SWIDTH 500 0
DWIDTH 10 0
BBX 5 18 2 -1
BITMAP
80
40
20
10
10
08
08
08
08
08
08
08
08
10
10
20
40
80
ENDCHAR
STARTCHAR 002A
ENCODING 42
SWIDTH 500 0
DWIDTH 10 0
BBX 8 9 1 3
BITMAP
18
18
DB
F6
3C
76
DB
18
18
ENDCHAR
STARTCHAR 002B
ENCODING 43
SWIDTH 500 0
DWIDTH 10 0
BBX 8 11 1 2
BITMAP
10
10
10
10
10
FF
10
10
10
10
10
ENDCHAR
STARTCHAR 002C
ENCODING 44
SWIDTH 500 0
DWIDTH 10 0
BBX 3 6 2 -2
BITMAP
C0
E0
C0
40
80
80
ENDCHAR
STARTCHAR 002D
ENCODING 45
SWIDTH 500 0
DWIDTH 10 0
BBX 8 1 1 7
BITMAP
FF
ENDCHAR
STARTCHAR 002E
ENCODING 46
SWIDTH 500 0
DWIDTH 10 0
BBX 3 3 2 0
BITMAP
C0
E0
C0
ENDCHAR
STARTCHAR 002F
ENCODING 47
SWIDTH 500 0
DWIDTH 10 0
BBX 8 18 1 -1
BITMAP
02
01
02
02
04
04
04
08
08
10
10
10
20
20
40
40
40
80
ENDCHAR
STARTCHAR 0030
ENCODING 48
SWIDTH 500 0
DWIDTH 10 0
BBX 8 15 1 0
BITMAP
3C
24
42
42
C3
C3
C3
C3
C3
C3
C3
42
42
66
3C
ENDCHAR
STARTCHAR 0031
ENCODING 49
SWIDTH 500 0
DWIDTH 10 0
BBX 4 14 3 1
BITMAP
E0
60
60
60
60
60
60
60
60
60
60
60
60
F0
ENDCHAR
STARTCHAR 0032
ENCODING 50
SWIDTH 500 0
DWIDTH 10 0
BBX 8 14 1 1
BITMAP
3C
42
42
C3
42
06
04
0C
18
10
20
41
81
FF
ENDCHAR
STARTCHAR 0033
ENCODING 51
SWIDTH 500 0
DWIDTH 10 0
BBX 8 15 1 0
BITMAP
3C
46
C2
02
02
04
38
06
02
03
C3
C3
C2
46
3C
ENDCHAR
STARTCHAR 0034
ENCODING 52
SWIDTH 500 0
DWIDTH 10 0
BBX 8 14 1 1
BITMAP
04
0C
0C
14
24
24
44
44
84
FF
04
04
04
1F
ENDCHAR
STARTCHAR 0035
ENCODING 53
SWIDTH 500 0
DWIDTH 10 0
BBX 8 15 1 0
BITMAP
7E
40
40
40
40
5C
66
82
03
03
C3
C3
C2
46
3C
ENDCHAR
STARTCHAR 0036
ENCODING 54
SWIDTH 500 0
DWIDTH 10 0
BBX 8 15 1 0
BITMAP
1E
22
62
40
40
C0
FC
E6
C3
C3
C3
43
42
26
3C
ENDCHAR
STARTCHAR 0037
ENCODING 55
SWIDTH 500 0
DWIDTH 10 0
BBX 8 15 1 0
BITMAP
FF
C2
82
82
04
04
04
08
08
08
18
18
10
10
10
ENDCHAR
STARTCHAR 0038
ENCODING 56
SWIDTH 500 0
DWIDTH 10 0
BBX 8 15 1 0
BITMAP
3C
66
42
42
42
24
18
2C
42
83
81
81
C3
46
3C
ENDCHAR
STARTCHAR 0039
ENCODING 57
SWIDTH 500 0
DWIDTH 10 0
BBX 8 15 1 0
BITMAP
3C
66
42
C2
83
C3
C3
67
3B
02
02
42
C6
44
38
ENDCHAR
STARTCHAR 003A
ENCODING 58
SWIDTH 500 0
DWIDTH 10 0
BBX 2 9 4 1
BITMAP
C0
C0
C0
00
00
00
C0
C0
C0
ENDCHAR
STARTCHAR 003B
ENCODING 59
SWIDTH 500 0
DWIDTH 10 0
BBX 2 12 4 -2
BITMAP
C0
C0
C0
00
00
00
00
C0
C0
40
40
80
ENDCHAR
STARTCHAR 003C
ENCODING 60
SWIDTH 500 0
DWIDTH 10 0
BBX 6 13 2 1
BITMAP
04
04
08
10
20
C0
80
40
20
10
08
04
04
ENDCHAR
STARTCHAR 003D
ENCODING 61
SWIDTH 500 0
DWIDTH 10 0
BBX 8 5 1 5
BITMAP
FF
00
00
00
FF
ENDCHAR
STARTCHAR 003E
ENCODING 62
SWIDTH 500 0
DWIDTH 10 0
BBX 6 13 2 1
BITMAP
80
80
40
20
10
0C
04
08
10
20
40
80
80
ENDCHAR
STARTCHAR 003F
ENCODING 63
SWIDTH 500 0
DWIDTH 10 0
BBX 8 17 1 -1
BITMAP
3C
42
83
81
C3
C3
02
04
08
08
10
10
10
00
00
18
18
ENDCHAR
STARTCHAR 0040
ENCODING 64
SWIDTH 500 0
DWIDTH 10 0
BBX 8 16 1 0
BITMAP
1C
62
41
C1
9B
95
A5
A5
A5
A5
A5
9E
80
41
61
1E
ENDCHAR
STARTCHAR 0041
ENCODING 65
SWIDTH 500 0
DWIDTH 10 0
BBX 10 15 0 1
BITMAP
0800
0800
0C00
0C00
1400
1400
1200
1200
2200
3E00
2300
2100
4100
4180
E3C0
ENDCHAR
STARTCHAR 0042
ENCODING 66
SWIDTH 500 0
DWIDTH 10 0
BBX 8 14 1 1
BITMAP
FC
46
42
42
42
44
78
46
43
41
41
43
42
FC
ENDCHAR
STARTCHAR 0043
ENCODING 67
SWIDTH 500 0
DWIDTH 10 0
BBX 8 15 1 0
BITMAP
1E
22
42
42
40
C0
C0
C0
C0
C2
41
42
62
26
1C
ENDCHAR
STARTCHAR 0044
ENCODING 68
SWIDTH 500 0
DWIDTH 10 0
BBX 8 14 1 1
BITMAP
F8
46
42
43
43
41
41
41
41
43
43
42
44
F8
ENDCHAR
STARTCHAR 0045
ENCODING 69
SWIDTH 500 0
DWIDTH 10 0
BBX 8 14 1 1
BITMAP
FF
41
41
41
44
44
7C
44
44
40
41
41
41
FF
ENDCHAR
STARTCHAR 0046
ENCODING 70
SWIDTH 500 0
DWIDTH 10 0
BBX 8 14 1 1
BITMAP
FF
41
41
41
44
44
7C
44
44
40
40
40
40
F0
ENDCHAR
STARTCHAR 0047
ENCODING 71
SWIDTH 500 0
DWIDTH 10 0
BBX 8 15 1 0
BITMAP
3E
62
42
42
C0
C0
C0
C7
C2
C2
C2
42
42
26
38
ENDCHAR
STARTCHAR 0048
ENCODING 72
SWIDTH 500 0
DWIDTH 10 0
BBX 10 14 0 1
BITMAP
F3C0
2100
2100
2100
2100
2100
3F00
2100
2100
2100
2100
2100
2100
F3C0
ENDCHAR
STARTCHAR 0049
ENCODING 73
SWIDTH 500 0
DWIDTH 10 0
BBX 4 14 3 1
BITMAP
F0
60
60
60
60
60
60
60
60
60
60
60
60
F0
ENDCHAR
STARTCHAR 004A
ENCODING 74
SWIDTH 500 0
DWIDTH 10 0
BBX 8 15 1 0
BITMAP
0F
06
06
06
06
06
06
06
06
06
06
C4
C4
4C
38
ENDCHAR
STARTCHAR 004B
ENCODING 75
SWIDTH 500 0
DWIDTH 10 0
BBX 9 14 1 1
BITMAP
EF00
4400
4400
4800
4800
5000
5800
6800
4800
4400
4400
4200
4200
E780
ENDCHAR
STARTCHAR 004C
ENCODING 76
SWIDTH 500 0
DWIDTH 10 0
BBX 8 14 1 1
BITMAP
F0
40
40
40
40
40
40
40
40
40
41
41
63
FF
ENDCHAR
STARTCHAR 004D
ENCODING 77
SWIDTH 500 0
DWIDTH 10 0
BBX 10 14 0 1
BITMAP
E1C0
6180
6280
7280
5280
5280
5480
5480
5C80
4C80
4C80
4880
4880
EBC0
ENDCHAR
STARTCHAR 004E
ENCODING 78
SWIDTH 500 0
DWIDTH 10 0
BBX 8 14 1 1
BITMAP
C7
62
A2
A2
92
92
9A
8A
8E
86
86
82
82
E2
ENDCHAR
STARTCHAR 004F
ENCODING 79
SWIDTH 500 0
DWIDTH 10 0
BBX 8 15 1 0
BITMAP
3C
62
42
42
C3
81
81
81
81
83
C3
C2
42
66
3C
ENDCHAR
STARTCHAR 0050
ENCODING 80
SWIDTH 500 0
DWIDTH 10 0
BBX 8 14 1 1
BITMAP
FC
42
41
41
41
41
42
7C
40
40
40
40
40
F0
ENDCHAR
STARTCHAR 0051
ENCODING 81
SWIDTH 500 0
DWIDTH 10 0
BBX 9 16 1 -1
BITMAP
3C00
6600
4200
C300
C300
8100
8100
8100
8100
8100
DB00
6A00
6600
6400
3D80
0300
ENDCHAR
STARTCHAR 0052
ENCODING 82
SWIDTH 500 0
DWIDTH 10 0
BBX 9 14 1 1
BITMAP
FC00
4600
4200
4300
4200
4600
7800
4800
4800
4400
4400
4600
4200
E380
ENDCHAR
STARTCHAR 0053
ENCODING 83
SWIDTH 500 0
DWIDTH 10 0
BBX 8 15 1 0
BITMAP
3A
46
42
42
40
60
18
0C
06
82
83
83
C2
A6
1C
ENDCHAR
STARTCHAR 0054
ENCODING 84
SWIDTH 500 0
DWIDTH 10 0
BBX 8 14 1 1
BITMAP
FF
99
99
99
18
18
18
18
18
18
18
18
18
3C
ENDCHAR
STARTCHAR 0055
ENCODING 85
SWIDTH 500 0
DWIDTH 10 0
BBX 10 15 0 0
BITMAP
F1C0
2100
2100
2100
2100
2100
2100
2100
2100
2100
2100
2100
2100
3100
1E00
ENDCHAR
STARTCHAR 0056
ENCODING 86
SWIDTH 500 0
DWIDTH 10 0
BBX 10 14 0 1
BITMAP
F1C0
2080
2100
2100
3100
1200
1200
1200
1A00
0C00
0C00
0C00
0C00
0800
ENDCHAR
STARTCHAR 0057
ENCODING 87
SWIDTH 500 0
DWIDTH 10 0
BBX 10 14 0 1
BITMAP
EDC0
4480
4480
4C80
6C80
2D00
2B00
3300
3300
3300
3300
3300
1200
2200
ENDCHAR
STARTCHAR 0058
ENCODING 88
SWIDTH 500 0
DWIDTH 10 0
BBX 10 14 0 1
BITMAP
7380
2100
1200
1200
1C00
0C00
0C00
0C00
1600
1200
2200
2100
4100
F3C0
ENDCHAR
STARTCHAR 0059
ENCODING 89
SWIDTH 500 0
DWIDTH 10 0
BBX 10 14 0 1
BITMAP
F3C0
2100
2100
3100
1200
1200
0C00
0C00
0C00
0C00
0C00
0C00
0C00
1E00
ENDCHAR
STARTCHAR 005A
ENCODING 90
SWIDTH 500 0
DWIDTH 10 0
BBX 8 14 1 1
BITMAP
7E
42
86
84
0C
08
18
10
30
20
61
41
C3
FF
ENDCHAR
STARTCHAR 005B
ENCODING 91
SWIDTH 500 0
DWIDTH 10 0
BBX 5 18 3 -1
BITMAP
F8
80
80
80
80
80
80
80
80
80
80
80
80
80
80
80
80
F8
ENDCHAR
STARTCHAR 005C
ENCODING 92
SWIDTH 500 0
DWIDTH 10 0
BBX 10 14 0 1
BITMAP
F3C0
2100
2100
3200
1200
7F80
0C00
0C00
0C00
7F80
0C00
0C00
0C00
1E00
ENDCHAR
STARTCHAR 005D
ENCODING 93
SWIDTH 500 0
DWIDTH 10 0
BBX 5 18 2 -1
BITMAP
F8
08
08
08
08
08
08
08
08
08
08
08
08
08
08
08
08
F8
ENDCHAR
STARTCHAR 005E
ENCODING 94
SWIDTH 500 0
DWIDTH 10 0
BBX 6 2 2 13
BITMAP
78
84
ENDCHAR
STARTCHAR 005F
ENCODING 95
SWIDTH 500 0
DWIDTH 10 0
BBX 0 0 0 -2
BITMAP
ENDCHAR
STARTCHAR 0060
ENCODING 96
SWIDTH 500 0
DWIDTH 10 0
BBX 7 2 1 13
BITMAP
F8
0E
ENDCHAR
STARTCHAR 0061
ENCODING 97
SWIDTH 500 0
DWIDTH 10 0
BBX 8 10 1 0
BITMAP
7C
44
42
06
3A
42
C2
C2
CF
73
ENDCHAR
STARTCHAR 0062
ENCODING 98
SWIDTH 500 0
DWIDTH 10 0
BBX 8 15 1 0
BITMAP
40
C0
40
40
40
5C
66
42
43
41
41
43
42
66
5C
ENDCHAR
STARTCHAR 0063
ENCODING 99
SWIDTH 500 0
DWIDTH 10 0
BBX 7 10 2 0
BITMAP
78
C4
84
80
80
80
80
86
44
38
ENDCHAR
STARTCHAR 0064
ENCODING 100
SWIDTH 500 0
DWIDTH 10 0
BBX 8 15 1 0
BITMAP
06
02
02
02
02
3E
62
42
C2
C2
C2
C2
42
67
38
ENDCHAR
STARTCHAR 0065
ENCODING 101
SWIDTH 500 0
DWIDTH 10 0
BBX 8 10 1 0
BITMAP
3C
62
42
7E
C1
C0
42
42
62
3C
ENDCHAR
STARTCHAR 0066
ENCODING 102
SWIDTH 500 0
DWIDTH 10 0
BBX 7 14 2 1
BITMAP
1C
26
26
20
20
F8
20
20
20
20
20
20
20
F0
ENDCHAR
STARTCHAR 0067
ENCODING 103
SWIDTH 500 0
DWIDTH 10 0
BBX 9 12 1 -2
BITMAP
3F80
4600
C200
4600
7C00
4000
4000
7E00
8100
8100
C300
7E00
ENDCHAR
STARTCHAR 0068
ENCODING 104
SWIDTH 500 0
DWIDTH 10 0
BBX 8 14 1 1
BITMAP
C0
40
40
40
40
5C
62
42
42
42
42
42
42
E7
ENDCHAR
STARTCHAR 0069
ENCODING 105
SWIDTH 500 0
DWIDTH 10 0
BBX 4 14 3 1
BITMAP
60
60
00
00
60
E0
20
20
20
20
20
20
20
F0
ENDCHAR
STARTCHAR 006A
ENCODING 106
SWIDTH 500 0
DWIDTH 10 0
BBX 5 17 2 -2
BITMAP
18
18
00
00
08
38
08
08
08
08
08
08
08
08
88
90
F0
ENDCHAR
STARTCHAR 006B
ENCODING 107
SWIDTH 500 0
DWIDTH 10 0
BBX 9 14 1 1
BITMAP
4000
C000
4000
4000
4000
4F00
4400
4800
5000
6800
4C00
4400
4200
E780
ENDCHAR
STARTCHAR 006C
ENCODING 108
SWIDTH 500 0
DWIDTH 10 0
BBX 4 14 3 1
BITMAP
E0
60
60
60
60
60
60
60
60
60
60
60
60
F0
ENDCHAR
STARTCHAR 006D
ENCODING 109
SWIDTH 500 0
DWIDTH 10 0
BBX 10 9 0 1
BITMAP
DB00
6C80
4C80
4C80
4C80
4C80
4C80
4C80
EDC0
ENDCHAR
STARTCHAR 006E
ENCODING 110
SWIDTH 500 0
DWIDTH 10 0
BBX 8 9 1 1
BITMAP
DC
62
42
42
42
42
42
42
E7
ENDCHAR
STARTCHAR 006F
ENCODING 111
SWIDTH 500 0
DWIDTH 10 0
BBX 8 10 1 0
BITMAP
3C
66
42
C3
C3
C3
C3
42
66
3C
ENDCHAR
STARTCHAR 0070
ENCODING 112
SWIDTH 500 0
DWIDTH 10 0
BBX 8 12 1 -2
BITMAP
DC
62
43
41
41
43
43
62
5C
40
40
F0
ENDCHAR
STARTCHAR 0071
ENCODING 113
SWIDTH 500 0
DWIDTH 10 0
BBX 8 12 1 -2
BITMAP
3E
62
42
C2
C2
C2
42
66
3A
02
02
07
ENDCHAR
STARTCHAR 0072
ENCODING 114
SWIDTH 500 0
DWIDTH 10 0
BBX 7 9 2 1
BITMAP
CE
56
60
40
40
40
40
40
F0
ENDCHAR
STARTCHAR 0073
ENCODING 115
SWIDTH 500 0
DWIDTH 10 0
BBX 6 10 2 0
BITMAP
7C
CC
84
80
60
18
84
84
C4
38
ENDCHAR
STARTCHAR 0074
ENCODING 116
SWIDTH 500 0
DWIDTH 10 0
BBX 6 13 2 0
BITMAP
20
20
60
FC
20
20
20
20
20
20
24
24
38
ENDCHAR
STARTCHAR 0075
ENCODING 117
SWIDTH 500 0
DWIDTH 10 0
BBX 8 10 1 0
BITMAP
C6
42
42
42
42
42
42
42
67
38
ENDCHAR
STARTCHAR 0076
ENCODING 118
SWIDTH 500 0
DWIDTH 10 0
BBX 8 9 1 1
BITMAP
E7
42
42
24
24
34
18
18
18
ENDCHAR
STARTCHAR 0077
ENCODING 119
SWIDTH 500 0
DWIDTH 10 0
BBX 10 9 0 1
BITMAP
EDC0
4480
4480
2D00
2D00
3300
3300
3200
1200
ENDCHAR
STARTCHAR 0078
ENCODING 120
SWIDTH 500 0
DWIDTH 10 0
BBX 8 9 1 1
BITMAP
E7
24
28
18
18
2C
24
42
E7
ENDCHAR
STARTCHAR 0079
ENCODING 121
SWIDTH 500 0
DWIDTH 10 0
BBX 9 12 1 -2
BITMAP
E780
4200
6200
2400
2400
1400
1800
0800
0800
1000
D000
E000
ENDCHAR
STARTCHAR 007A
ENCODING 122
SWIDTH 500 0
DWIDTH 10 0
BBX 8 9 1 1
BITMAP
7E
42
84
08
10
30
21
43
FF
ENDCHAR
STARTCHAR 007B
ENCODING 123
SWIDTH 500 0
DWIDTH 10 0
BBX 5 19 3 -2
BITMAP
08
10
20
20
20
20
20
20
40
80
40
20
20
20
20
20
20
10
08
ENDCHAR
STARTCHAR 007C
ENCODING 124
SWIDTH 500 0
DWIDTH 10 0
BBX 1 20 4 -2
BITMAP
80
80
80
80
80
80
80
80
80
80
80
80
80
80
80
80
80
80
80
80
ENDCHAR
STARTCHAR 007D
ENCODING 125
SWIDTH 500 0
DWIDTH 10 0
BBX 5 19 2 -2
BITMAP
80
40
20
20
20
20
20
20
10
08
10
20
20
20
20
20
20
40
80
ENDCHAR
STARTCHAR 007E
ENCODING 126
SWIDTH 500 0
DWIDTH 10 0
BBX 8 2 1 13
BITMAP
73
8E
ENDCHAR
STARTCHAR 00A0
ENCODING 160
SWIDTH 500 0
DWIDTH 10 0
BBX 0 0 0 0
BITMAP
ENDCHAR
STARTCHAR 00A1
ENCODING 161
SWIDTH 500 0
DWIDTH 10 0
BBX 2 17 4 -1
BITMAP
C0
C0
00
00
00
80
80
80
C0
C0
C0
C0
C0
C0
C0
C0
C0
ENDCHAR
STARTCHAR 00A2
ENCODING 162
SWIDTH 1000 0
DWIDTH 20 0
BBX 9 14 6 1
BITMAP
0600
0400
3E00
6900
CB00
8800
9000
9000
9000
E180
6300
3C00
4000
4000
ENDCHAR
STARTCHAR 00A3
ENCODING 163
SWIDTH 1000 0
DWIDTH 20 0
BBX 12 15 4 1
BITMAP
0780
0C40
1860
1860
1800
1800
0800
7F80
0C00
0400
0400
7C00
8610
8F10
78E0
ENDCHAR
STARTCHAR 00A4
ENCODING 164
SWIDTH 500 0
DWIDTH 10 0
BBX 7 7 2 4
BITMAP
84
B6
C8
84
84
48
B6
ENDCHAR
STARTCHAR 00A5
ENCODING 165
SWIDTH 1000 0
DWIDTH 20 0
BBX 14 14 3 1
BITMAP
F87C
3010
1020
1840
0C40
7FF8
0680
0300
7FF8
0300
0300
0300
0300
0780
ENDCHAR
STARTCHAR 00A6
ENCODING 166
SWIDTH 500 0
DWIDTH 10 0
BBX 1 19 4 -2
BITMAP
80
80
80
80
80
80
80
80
80
00
80
80
80
80
80
80
80
80
80
ENDCHAR
STARTCHAR 00A7
ENCODING 167
SWIDTH 1000 0
DWIDTH 20 0
BBX 8 18 6 -1
BITMAP
3C
42
83
83
C0
60
38
CE
83
81
41
31
0E
03
C1
C1
C3
3C
ENDCHAR
STARTCHAR 00A8
ENCODING 168
SWIDTH 1000 0
DWIDTH 20 0
BBX 8 2 6 13
BITMAP
C3
C3
ENDCHAR
STARTCHAR 00A9
ENCODING 169
SWIDTH 500 0
DWIDTH 10 0
BBX 9 9 1 3
BITMAP
3C00
4200
BD00
C500
4100
C180
A500
BB00
7C00
ENDCHAR
STARTCHAR 00AA
ENCODING 170
SWIDTH 500 0
DWIDTH 10 0
BBX 6 8 1 7
BITMAP
F0
90
30
D0
90
FC
00
F8
ENDCHAR
STARTCHAR 00AB
ENCODING 171
SWIDTH 500 0
DWIDTH 10 0
BBX 6 8 3 2
BITMAP
34
28
50
A0
A0
50
28
34
ENDCHAR
STARTCHAR 00AC
ENCODING 172
SWIDTH 1000 0
DWIDTH 20 0
BBX 17 7 1 4
BITMAP
FFFF80
000080
000080
000080
000080
000080
000080
ENDCHAR
STARTCHAR 00AD
ENCODING 173
SWIDTH 500 0
DWIDTH 10 0
BBX 8 1 1 7
BITMAP
FF
ENDCHAR
STARTCHAR 00AE
ENCODING 174
SWIDTH 500 0
DWIDTH 10 0
BBX 9 9 1 3
BITMAP
3C00
4200
BD00
A700
3C80
A900
A500
5200
3C00
ENDCHAR
STARTCHAR 00AF
ENCODING 175
SWIDTH 500 0
DWIDTH 10 0
BBX 6 1 2 13
BITMAP
FC
ENDCHAR
STARTCHAR 00B0
ENCODING 176
SWIDTH 1000 0
DWIDTH 20 0
BBX 4 4 1 13
BITMAP
60
90
90
60
ENDCHAR
STARTCHAR 00B1
ENCODING 177
SWIDTH 1000 0
DWIDTH 20 0
BBX 14 14 3 1
BITMAP
0200
0200
0200
0200
0200
FFFC
0200
0200
0200
0200
0200
0000
0000
FFFC
ENDCHAR
STARTCHAR 00B2
ENCODING 178
SWIDTH 500 0
DWIDTH 10 0
BBX 5 8 1 10
BITMAP
70
58
C8
10
20
48
88
F8
ENDCHAR
STARTCHAR 00B3
ENCODING 179
SWIDTH 500 0
DWIDTH 10 0
BBX 5 8 1 9
BITMAP
70
C8
10
20
10
88
D8
70
ENDCHAR
STARTCHAR 00B4
ENCODING 180
SWIDTH 1000 0
DWIDTH 20 0
BBX 6 2 8 13
BITMAP
7C
C0
ENDCHAR
STARTCHAR 00B6
ENCODING 182
SWIDTH 1000 0
DWIDTH 20 0
BBX 8 18 5 -1
BITMAP
3F
79
F9
F9
F9
79
39
09
09
09
09
09
09
09
09
09
09
09
ENDCHAR
STARTCHAR 00B7
ENCODING 183
SWIDTH 500 0
DWIDTH 10 0
BBX 2 3 4 6
BITMAP
C0
C0
C0
ENDCHAR
STARTCHAR 00B8
ENCODING 184
SWIDTH 500 0
DWIDTH 10 0
BBX 4 5 3 -1
BITMAP
40
80
F0
10
F0
ENDCHAR
STARTCHAR 00B9
ENCODING 185
SWIDTH 500 0
DWIDTH 10 0
BBX 3 7 2 10
BITMAP
C0
40
40
40
40
40
E0
ENDCHAR
STARTCHAR 00BA
ENCODING 186
SWIDTH 500 0
DWIDTH 10 0
BBX 5 8 1 7
BITMAP
70
88
88
88
C8
70
00
F8
ENDCHAR
STARTCHAR 00BB
ENCODING 187
SWIDTH 500 0
DWIDTH 10 0
BBX 6 8 1 2
BITMAP
A0
50
28
14
14
28
50
A0
ENDCHAR
STARTCHAR 00BC
ENCODING 188
SWIDTH 500 0
DWIDTH 10 0
BBX 8 18 1 -1
BITMAP
C1
41
42
42
44
44
48
48
C8
32
12
26
2A
52
52
5F
82
87
ENDCHAR
STARTCHAR 00BD
ENCODING 189
SWIDTH 500 0
DWIDTH 10 0
BBX 8 18 1 -1
BITMAP
C1
41
42
42
44
44
48
48
C8
36
19
2D
21
42
42
45
89
8F
ENDCHAR
STARTCHAR 00BE
ENCODING 190
SWIDTH 500 0
DWIDTH 10 0
BBX 8 18 1 -1
BITMAP
61
91
92
22
64
14
14
98
E8
12
12
26
2A
32
52
5F
82
87
ENDCHAR
STARTCHAR 00BF
ENCODING 191
SWIDTH 500 0
DWIDTH 10 0
BBX 8 17 1 -1
BITMAP
18
18
00
00
10
10
10
10
10
20
40
C0
83
81
C1
42
3C
ENDCHAR
STARTCHAR 00C0
ENCODING 192
SWIDTH 500 0
DWIDTH 10 0
BBX 10 16 0 1
BITMAP
3800
0C00
0C00
0C00
0C00
1400
1600
1200
1200
2200
3F00
2300
2100
4100
4180
E3C0
ENDCHAR
STARTCHAR 00C1
ENCODING 193
SWIDTH 500 0
DWIDTH 10 0
BBX 10 16 0 1
BITMAP
0700
0800
0C00
0C00
0C00
1400
1600
1200
1200
2200
3F00
2300
2100
4100
4180
E3C0
ENDCHAR
STARTCHAR 00C2
ENCODING 194
SWIDTH 500 0
DWIDTH 10 0
BBX 10 16 0 1
BITMAP
0C00
1A00
0C00
0C00
0C00
1400
1600
1200
1200
2200
3F00
2300
2100
4100
4180
E3C0
ENDCHAR
STARTCHAR 00C3
ENCODING 195
SWIDTH 500 0
DWIDTH 10 0
BBX 10 16 0 1
BITMAP
1F00
2800
0800
0C00
0C00
1400
1400
1200
1200
2200
3E00
2300
2100
4100
4180
E3C0
ENDCHAR
STARTCHAR 00C4
ENCODING 196
SWIDTH 500 0
DWIDTH 10 0
BBX 10 17 0 1
BITMAP
3300
3300
0800
0800
0C00
0C00
1400
1400
1200
1200
2200
3E00
2300
2100
4100
4180
E3C0
ENDCHAR
STARTCHAR 00C5
ENCODING 197
SWIDTH 500 0
DWIDTH 10 0
BBX 10 17 0 1
BITMAP
0C00
1400
1400
0800
0C00
0C00
1400
1400
1200
1200
2200
3E00
2300
2100
4100
4180
E3C0
ENDCHAR
STARTCHAR 00C6
ENCODING 198
SWIDTH 500 0
DWIDTH 10 0
BBX 9 14 0 1
BITMAP
0780
0C80
0C80
1400
1500
1500
1700
2500
3D00
2400
2400
4480
4480
EF80
ENDCHAR
STARTCHAR 00C7
ENCODING 199
SWIDTH 500 0
DWIDTH 10 0
BBX 8 17 1 -2
BITMAP
1E
22
42
42
40
C0
C0
C0
C0
C2
41
42
62
26
1C
1C
1C
ENDCHAR
STARTCHAR 00C8
ENCODING 200
SWIDTH 500 0
DWIDTH 10 0
BBX 8 16 1 1
BITMAP
70
08
FF
41
41
41
44
44
7C
44
44
40
41
41
41
FF
ENDCHAR
STARTCHAR 00C9
ENCODING 201
SWIDTH 500 0
DWIDTH 10 0
BBX 8 16 1 1
BITMAP
0E
10
FF
41
41
41
44
44
7C
44
44
40
41
41
41
FF
ENDCHAR
STARTCHAR 00CA
ENCODING 202
SWIDTH 500 0
DWIDTH 10 0
BBX 8 16 1 1
BITMAP
18
24
FF
41
41
41
44
44
7C
44
44
40
41
41
41
FF
ENDCHAR
STARTCHAR 00CB
ENCODING 203
SWIDTH 500 0
DWIDTH 10 0
BBX 8 17 1 1
BITMAP
66
66
00
FF
41
41
41
44
44
7C
44
44
40
41
41
41
FF
ENDCHAR
STARTCHAR 00CC
ENCODING 204
SWIDTH 500 0
DWIDTH 10 0
BBX 5 16 2 1
BITMAP
E0
10
78
30
30
30
30
30
30
30
30
30
30
30
30
78
ENDCHAR
STARTCHAR 00CD
ENCODING 205
SWIDTH 500 0
DWIDTH 10 0
BBX 5 16 3 1
BITMAP
38
40
F0
60
60
60
60
60
60
60
60
60
60
60
60
F0
ENDCHAR
STARTCHAR 00CE
ENCODING 206
SWIDTH 500 0
DWIDTH 10 0
BBX 4 16 3 1
BITMAP
60
90
F0
60
60
60
60
60
60
60
60
60
60
60
60
F0
ENDCHAR
STARTCHAR 00CF
ENCODING 207
SWIDTH 500 0
DWIDTH 10 0
BBX 6 17 2 1
BITMAP
CC
CC
00
78
30
30
30
30
30
30
30
30
30
30
30
30
78
ENDCHAR
STARTCHAR 00D0
ENCODING 208
SWIDTH 500 0
DWIDTH 10 0
BBX 8 14 1 1
BITMAP
F8
46
42
43
43
41
F1
41
41
43
43
42
44
F8
ENDCHAR
STARTCHAR 00D1
ENCODING 209
SWIDTH 500 0
DWIDTH 10 0
BBX 8 16 1 1
BITMAP
3E
40
C7
62
A2
A2
92
92
9A
8A
8E
86
86
82
82
E2
ENDCHAR
STARTCHAR 00D2
ENCODING 210
SWIDTH 500 0
DWIDTH 10 0
BBX 8 17 1 0
BITMAP
70
08
3C
62
42
42
C3
81
81
81
81
83
C3
C2
42
66
3C
ENDCHAR
STARTCHAR 00D3
ENCODING 211
SWIDTH 500 0
DWIDTH 10 0
BBX 8 17 1 0
BITMAP
0E
10
3C
62
42
42
C3
81
81
81
81
83
C3
C2
42
66
3C
ENDCHAR
STARTCHAR 00D4
ENCODING 212
SWIDTH 500 0
DWIDTH 10 0
BBX 8 17 1 0
BITMAP
18
24
3C
62
42
42
C3
81
81
81
81
83
C3
C2
42
66
3C
ENDCHAR
STARTCHAR 00D5
ENCODING 213
SWIDTH 500 0
DWIDTH 10 0
BBX 8 17 1 0
BITMAP
3E
40
3C
62
42
42
C3
81
81
81
81
83
C3
C2
42
66
3C
ENDCHAR
STARTCHAR 00D6
ENCODING 214
SWIDTH 500 0
DWIDTH 10 0
BBX 8 18 1 0
BITMAP
66
66
00
3C
62
42
42
C3
81
81
81
81
83
C3
C2
42
66
3C
ENDCHAR
STARTCHAR 00D7
ENCODING 215
SWIDTH 1000 0
DWIDTH 20 0
BBX 12 12 4 2
BITMAP
8020
C030
6060
30C0
1980
0F00
0600
0F00
1980
30C0
6060
C030
ENDCHAR
STARTCHAR 00D8
ENCODING 216
SWIDTH 500 0
DWIDTH 10 0
BBX 8 16 1 0
BITMAP
01
3E
66
42
C7
CB
89
89
91
91
A3
E3
42
42
A6
9C
ENDCHAR
STARTCHAR 00D9
ENCODING 217
SWIDTH 500 0
DWIDTH 10 0
BBX 10 17 0 0
BITMAP
3800
0400
F1C0
2100
2100
2100
2100
2100
2100
2100
2100
2100
2100
2100
2100
3100
1E00
ENDCHAR
STARTCHAR 00DA
ENCODING 218
SWIDTH 500 0
DWIDTH 10 0
BBX 10 17 0 0
BITMAP
0700
0800
F1C0
2100
2100
2100
2100
2100
2100
2100
2100
2100
2100
2100
2100
3100
1E00
ENDCHAR
STARTCHAR 00DB
ENCODING 219
SWIDTH 500 0
DWIDTH 10 0
BBX 10 17 0 0
BITMAP
0C00
1200
F1C0
2100
2100
2100
2100
2100
2100
2100
2100
2100
2100
2100
2100
3100
1E00
ENDCHAR
STARTCHAR 00DC
ENCODING 220
SWIDTH 500 0
DWIDTH 10 0
BBX 10 18 0 0
BITMAP
3300
3300
0000
F1C0
2100
2100
2100
2100
2100
2100
2100
2100
2100
2100
2100
2100
3100
1E00
ENDCHAR
STARTCHAR 00DD
ENCODING 221
SWIDTH 500 0
DWIDTH 10 0
BBX 10 16 0 1
BITMAP
0700
0800
F3C0
2100
2100
3100
1200
1200
0C00
0C00
0C00
0C00
0C00
0C00
0C00
1E00
ENDCHAR
STARTCHAR 00DE
ENCODING 222
SWIDTH 500 0
DWIDTH 10 0
BBX 8 14 1 1
BITMAP
F0
40
40
7C
42
41
41
41
41
42
7C
40
40
F0
ENDCHAR
STARTCHAR 00DF
ENCODING 223
SWIDTH 500 0
DWIDTH 10 0
BBX 8 15 1 0
BITMAP
3C
66
42
42
42
44
58
46
42
43
43
43
53
D2
1C
ENDCHAR
STARTCHAR 00E0
ENCODING 224
SWIDTH 500 0
DWIDTH 10 0
BBX 8 14 1 0
BITMAP
70
08
00
00
7C
44
42
06
3A
42
C2
C2
CF
73
ENDCHAR
STARTCHAR 00E1
ENCODING 225
SWIDTH 500 0
DWIDTH 10 0
BBX 8 14 1 0
BITMAP
0E
10
00
00
7C
44
42
06
3A
42
C2
C2
CF
73
ENDCHAR
STARTCHAR 00E2
ENCODING 226
SWIDTH 500 0
DWIDTH 10 0
BBX 8 14 1 0
BITMAP
18
24
00
00
7C
44
42
06
3A
42
C2
C2
CF
73
ENDCHAR
STARTCHAR 00E3
ENCODING 227
SWIDTH 500 0
DWIDTH 10 0
BBX 8 13 1 0
BITMAP
3E
40
00
7C
44
42
06
3A
42
C2
C2
CF
73
ENDCHAR
STARTCHAR 00E4
ENCODING 228
SWIDTH 500 0
DWIDTH 10 0
BBX 8 13 1 0
BITMAP
66
66
00
7C
44
42
06
3A
42
C2
C2
CF
73
ENDCHAR
STARTCHAR 00E5
ENCODING 229
SWIDTH 500 0
DWIDTH 10 0
BBX 8 14 1 0
BITMAP
18
28
18
00
7C
44
42
06
3A
42
C2
C2
CF
73
ENDCHAR
STARTCHAR 00E6
ENCODING 230
SWIDTH 500 0
DWIDTH 10 0
BBX 8 10 1 0
BITMAP
7E
DA
09
3F
48
C8
89
89
9A
66
ENDCHAR
STARTCHAR 00E7
ENCODING 231
SWIDTH 500 0
DWIDTH 10 0
BBX 7 12 2 -2
BITMAP
78
C4
84
80
80
80
80
86
44
38
38
38
ENDCHAR
STARTCHAR 00E8
ENCODING 232
SWIDTH 500 0
DWIDTH 10 0
BBX 8 14 1 0
BITMAP
70
08
00
00
3C
62
42
7E
C1
C0
42
42
62
3C
ENDCHAR
STARTCHAR 00E9
ENCODING 233
SWIDTH 500 0
DWIDTH 10 0
BBX 8 14 1 0
BITMAP
0E
10
00
00
3C
62
42
7E
C1
C0
42
42
62
3C
ENDCHAR
STARTCHAR 00EA
ENCODING 234
SWIDTH 500 0
DWIDTH 10 0
BBX 8 14 1 0
BITMAP
18
24
00
00
3C
62
42
7E
C1
C0
42
42
62
3C
ENDCHAR
STARTCHAR 00EB
ENCODING 235
SWIDTH 500 0
DWIDTH 10 0
BBX 8 13 1 0
BITMAP
66
66
00
3C
62
42
7E
C1
C0
42
42
62
3C
ENDCHAR
STARTCHAR 00EC
ENCODING 236
SWIDTH 500 0
DWIDTH 10 0
BBX 5 13 2 1
BITMAP
E0
10
00
70
30
10
10
10
10
10
10
10
78
ENDCHAR
STARTCHAR 00ED
ENCODING 237
SWIDTH 500 0
DWIDTH 10 0
BBX 5 13 3 1
BITMAP
38
40
80
E0
60
20
20
20
20
20
20
20
F0
ENDCHAR
STARTCHAR 00EE
ENCODING 238
SWIDTH 500 0
DWIDTH 10 0
BBX 4 13 3 1
BITMAP
60
90
00
E0
60
20
20
20
20
20
20
20
F0
ENDCHAR
STARTCHAR 00EF
ENCODING 239
SWIDTH 500 0
DWIDTH 10 0
BBX 6 13 2 1
BITMAP
CC
CC
00
10
70
10
10
10
10
10
10
10
78
ENDCHAR
STARTCHAR 00F0
ENCODING 240
SWIDTH 500 0
DWIDTH 10 0
BBX 8 15 1 0
BITMAP
44
38
28
44
04
3E
66
42
C3
83
C3
C2
42
64
3C
ENDCHAR
STARTCHAR 00F1
ENCODING 241
SWIDTH 500 0
DWIDTH 10 0
BBX 8 12 1 1
BITMAP
3E
40
00
DC
62
42
42
42
42
42
42
E7
ENDCHAR
STARTCHAR 00F2
ENCODING 242
SWIDTH 500 0
DWIDTH 10 0
BBX 8 14 1 0
BITMAP
70
08
00
00
3C
66
42
C3
C3
C3
C3
42
66
3C
ENDCHAR
STARTCHAR 00F3
ENCODING 243
SWIDTH 500 0
DWIDTH 10 0
BBX 8 14 1 0
BITMAP
0E
10
00
00
3C
66
42
C3
C3
C3
C3
42
66
3C
ENDCHAR
STARTCHAR 00F4
ENCODING 244
SWIDTH 500 0
DWIDTH 10 0
BBX 8 14 1 0
BITMAP
18
24
00
00
3C
66
42
C3
C3
C3
C3
42
66
3C
ENDCHAR
STARTCHAR 00F5
ENCODING 245
SWIDTH 500 0
DWIDTH 10 0
BBX 8 13 1 0
BITMAP
3E
40
00
3C
66
42
C3
C3
C3
C3
42
66
3C
ENDCHAR
STARTCHAR 00F6
ENCODING 246
SWIDTH 500 0
DWIDTH 10 0
BBX 8 13 1 0
BITMAP
66
66
00
3C
66
42
C3
C3
C3
C3
42
66
3C
ENDCHAR
STARTCHAR 00F7
ENCODING 247
SWIDTH 1000 0
DWIDTH 20 0
BBX 14 10 3 2
BITMAP
0300
0300
0000
0000
FFFC
0000
0000
0000
0300
0300
ENDCHAR
STARTCHAR 00F8
ENCODING 248
SWIDTH 500 0
DWIDTH 10 0
BBX 8 11 1 0
BITMAP
02
3E
66
46
CB
D3
D3
63
62
66
9C
ENDCHAR
STARTCHAR 00F9
ENCODING 249
SWIDTH 500 0
DWIDTH 10 0
BBX 8 14 1 0
BITMAP
70
08
00
C6
42
42
42
42
42
42
42
42
66
3D
ENDCHAR
STARTCHAR 00FA
ENCODING 250
SWIDTH 500 0
DWIDTH 10 0
BBX 8 14 1 0
BITMAP
0E
10
00
C6
42
42
42
42
42
42
42
42
66
3D
ENDCHAR
STARTCHAR 00FB
ENCODING 251
SWIDTH 500 0
DWIDTH 10 0
BBX 8 14 1 0
BITMAP
18
24
00
C6
42
42
42
42
42
42
42
42
66
3D
ENDCHAR
STARTCHAR 00FC
ENCODING 252
SWIDTH 500 0
DWIDTH 10 0
BBX 8 14 1 0
BITMAP
66
66
00
42
C6
42
42
42
42
42
42
42
66
3D
ENDCHAR
STARTCHAR 00FD
ENCODING 253
SWIDTH 500 0
DWIDTH 10 0
BBX 9 16 1 -2
BITMAP
0E00
1000
0000
0000
E780
4200
6200
2400
2400
1400
1800
0800
0800
1000
D000
E000
ENDCHAR
STARTCHAR 00FE
ENCODING 254
SWIDTH 500 0
DWIDTH 10 0
BBX 8 17 1 -2
BITMAP
40
C0
40
40
40
5C
62
42
43
41
41
43
42
66
5C
40
F0
ENDCHAR
STARTCHAR 00FF
ENCODING 255
SWIDTH 500 0
DWIDTH 10 0
BBX 9 15 1 -2
BITMAP
2600
2600
0000
E780
4200
6200
2200
2400
1400
1800
0800
0800
1000
D000
E000
ENDCHAR
STARTCHAR 0100
ENCODING 256
SWIDTH 500 0
DWIDTH 10 0
BBX 10 16 0 1
BITMAP
3F00
0000
0800
0C00
0C00
1400
1400
1200
1200
2200
3E00
2300
2100
4100
4180
E3C0
ENDCHAR
STARTCHAR 0101
ENCODING 257
SWIDTH 500 0
DWIDTH 10 0
BBX 8 13 1 0
BITMAP
7E
00
00
7C
44
42
06
3A
42
C2
C2
CF
73
ENDCHAR
STARTCHAR 0102
ENCODING 258
SWIDTH 500 0
DWIDTH 10 0
BBX 10 16 0 1
BITMAP
1200
0C00
0800
0C00
0C00
1400
1400
1200
1200
2200
1E00
2300
2100
4100
4180
E3C0
ENDCHAR
STARTCHAR 0103
ENCODING 259
SWIDTH 500 0
DWIDTH 10 0
BBX 8 14 1 0
BITMAP
24
18
00
00
7C
44
42
06
3A
42
C2
C2
CF
73
ENDCHAR
STARTCHAR 0104
ENCODING 260
SWIDTH 500 0
DWIDTH 10 0
BBX 10 18 0 -2
BITMAP
0800
0800
0C00
0C00
1400
1400
1200
1200
2200
3E00
2300
2100
4100
4180
6180
8340
0200
03C0
ENDCHAR
STARTCHAR 0105
ENCODING 261
SWIDTH 500 0
DWIDTH 10 0
BBX 8 12 1 -2
BITMAP
7C
44
42
06
3A
42
C2
C2
CF
73
04
07
ENDCHAR
STARTCHAR 0106
ENCODING 262
SWIDTH 500 0
DWIDTH 10 0
BBX 8 17 1 0
BITMAP
0E
10
1E
22
42
42
40
C0
C0
C0
C0
C2
41
42
62
26
1C
ENDCHAR
STARTCHAR 0107
ENCODING 263
SWIDTH 500 0
DWIDTH 10 0
BBX 7 14 2 0
BITMAP
1C
20
00
00
78
C4
84
80
80
80
80
86
44
38
ENDCHAR
STARTCHAR 0108
ENCODING 264
SWIDTH 500 0
DWIDTH 10 0
BBX 8 17 1 0
BITMAP
1C
22
1E
22
42
42
40
C0
C0
C0
C0
C2
41
42
62
26
1C
ENDCHAR
STARTCHAR 0109
ENCODING 265
SWIDTH 500 0
DWIDTH 10 0
BBX 7 14 2 0
BITMAP
30
48
04
00
78
C4
84
80
80
80
80
86
44
38
ENDCHAR
STARTCHAR 010C
ENCODING 268
SWIDTH 500 0
DWIDTH 10 0
BBX 8 17 1 0
BITMAP
3E
00
1E
22
42
42
40
C0
C0
C0
C0
C0
41
42
42
22
1C
ENDCHAR
STARTCHAR 010D
ENCODING 269
SWIDTH 500 0
DWIDTH 10 0
BBX 7 14 2 0
BITMAP
4C
30
00
00
78
C4
84
80
80
80
80
86
44
38
ENDCHAR
STARTCHAR 010E
ENCODING 270
SWIDTH 500 0
DWIDTH 10 0
BBX 8 16 1 1
BITMAP
6C
10
F8
46
42
43
43
41
41
41
41
43
43
42
44
F8
ENDCHAR
STARTCHAR 010F
ENCODING 271
SWIDTH 500 0
DWIDTH 10 0
BBX 9 16 1 0
BITMAP
0180
0D80
0480
0500
0400
0400
3C00
4400
8400
8400
8400
8400
8400
8400
4C00
7A00
ENDCHAR
STARTCHAR 0111
ENCODING 273
SWIDTH 500 0
DWIDTH 10 0
BBX 8 16 1 0
BITMAP
02
06
02
0F
02
02
3E
62
42
C2
C2
C2
C2
42
66
3D
ENDCHAR
STARTCHAR 0112
ENCODING 274
SWIDTH 500 0
DWIDTH 10 0
BBX 8 16 1 1
BITMAP
7E
00
FF
41
41
41
44
44
7C
44
44
40
41
41
41
FF
ENDCHAR
STARTCHAR 0113
ENCODING 275
SWIDTH 500 0
DWIDTH 10 0
BBX 8 13 1 0
BITMAP
7E
00
00
3C
62
42
7E
C1
C0
42
42
62
3C
ENDCHAR
STARTCHAR 0118
ENCODING 280
SWIDTH 500 0
DWIDTH 10 0
BBX 8 17 1 -2
BITMAP
FF
41
41
41
44
44
7C
44
44
40
41
41
41
FF
10
20
3C
ENDCHAR
STARTCHAR 0119
ENCODING 281
SWIDTH 500 0
DWIDTH 10 0
BBX 8 12 1 -2
BITMAP
3C
62
42
7E
C1
C0
42
42
24
18
10
1C
ENDCHAR
STARTCHAR 011A
ENCODING 282
SWIDTH 500 0
DWIDTH 10 0
BBX 8 16 1 1
BITMAP
3C
00
FF
41
41
41
44
44
7C
44
44
40
41
41
41
FF
ENDCHAR
STARTCHAR 011B
ENCODING 283
SWIDTH 500 0
DWIDTH 10 0
BBX 8 14 1 0
BITMAP
24
18
00
00
3C
62
42
7E
C1
C0
42
42
62
3C
ENDCHAR
STARTCHAR 011C
ENCODING 284
SWIDTH 500 0
DWIDTH 10 0
BBX 8 17 1 0
BITMAP
1C
22
3E
62
42
42
C0
C0
C0
C7
C2
C2
C2
42
42
26
38
ENDCHAR
STARTCHAR 011D
ENCODING 285
SWIDTH 500 0
DWIDTH 10 0
BBX 9 16 1 -2
BITMAP
1800
2400
4000
0000
3F80
4600
C200
4600
7C00
4000
4000
7E00
8100
8100
C300
7E00
ENDCHAR
STARTCHAR 0124
ENCODING 292
SWIDTH 500 0
DWIDTH 10 0
BBX 10 16 0 1
BITMAP
0C00
1200
F3C0
2100
2100
2100
2100
2100
3F00
2100
2100
2100
2100
2100
2100
F3C0
ENDCHAR
STARTCHAR 0125
ENCODING 293
SWIDTH 500 0
DWIDTH 10 0
BBX 8 16 1 1
BITMAP
1C
62
C0
40
40
40
40
5C
62
42
42
42
42
42
42
E7
ENDCHAR
STARTCHAR 0127
ENCODING 295
SWIDTH 500 0
DWIDTH 10 0
BBX 9 15 0 1
BITMAP
2000
6000
2000
F800
2000
2000
2E00
3100
2100
2100
2100
2100
2100
2100
7380
ENDCHAR
STARTCHAR 012A
ENCODING 298
SWIDTH 500 0
DWIDTH 10 0
BBX 6 16 2 1
BITMAP
FC
00
78
30
30
30
30
30
30
30
30
30
30
30
30
78
ENDCHAR
STARTCHAR 012B
ENCODING 299
SWIDTH 500 0
DWIDTH 10 0
BBX 6 12 2 1
BITMAP
FC
00
00
70
10
10
10
10
10
10
10
78
ENDCHAR
STARTCHAR 0134
ENCODING 308
SWIDTH 500 0
DWIDTH 10 0
BBX 8 17 1 0
BITMAP
0E
01
0F
06
06
06
06
06
06
06
06
06
06
C4
C4
4C
38
ENDCHAR
STARTCHAR 0135
ENCODING 309
SWIDTH 500 0
DWIDTH 10 0
BBX 6 16 2 -2
BITMAP
18
24
00
18
28
08
08
08
08
08
08
08
08
88
90
F0
ENDCHAR
STARTCHAR 0139
ENCODING 313
SWIDTH 500 0
DWIDTH 10 0
BBX 8 16 1 1
BITMAP
1C
20
F0
40
40
40
40
40
40
40
40
40
41
41
63
FF
ENDCHAR
STARTCHAR 013A
ENCODING 314
SWIDTH 500 0
DWIDTH 10 0
BBX 4 16 3 1
BITMAP
70
E0
E0
60
60
60
60
60
60
60
60
60
60
60
60
F0
ENDCHAR
STARTCHAR 013D
ENCODING 317
SWIDTH 500 0
DWIDTH 10 0
BBX 8 16 1 1
BITMAP
06
06
F6
42
44
40
40
40
40
40
40
40
41
41
63
FF
ENDCHAR
STARTCHAR 013E
ENCODING 318
SWIDTH 500 0
DWIDTH 10 0
BBX 6 15 3 1
BITMAP
0C
DC
48
50
40
40
40
40
40
40
40
40
40
40
F0
ENDCHAR
STARTCHAR 0141
ENCODING 321
SWIDTH 500 0
DWIDTH 10 0
BBX 8 14 1 1
BITMAP
F0
40
40
40
50
60
40
C0
C0
40
41
41
63
FF
ENDCHAR
STARTCHAR 0142
ENCODING 322
SWIDTH 500 0
DWIDTH 10 0
BBX 6 14 2 1
BITMAP
70
30
30
30
34
38
30
30
F0
30
30
30
30
78
ENDCHAR
STARTCHAR 0143
ENCODING 323
SWIDTH 500 0
DWIDTH 10 0
BBX 8 16 1 1
BITMAP
0E
10
C7
62
A2
A2
92
92
9A
8A
8E
86
86
82
82
E2
ENDCHAR
STARTCHAR 0144
ENCODING 324
SWIDTH 500 0
DWIDTH 10 0
BBX 8 13 1 1
BITMAP
0E
10
00
40
DC
62
42
42
42
42
42
42
E7
ENDCHAR
STARTCHAR 0147
ENCODING 327
SWIDTH 500 0
DWIDTH 10 0
BBX 8 16 1 1
BITMAP
3C
00
C7
62
A2
A2
92
92
9A
8A
8E
86
86
82
82
E2
ENDCHAR
STARTCHAR 0148
ENCODING 328
SWIDTH 500 0
DWIDTH 10 0
BBX 8 13 1 1
BITMAP
24
18
00
40
DC
62
42
42
42
42
42
42
E7
ENDCHAR
STARTCHAR 014B
ENCODING 331
SWIDTH 500 0
DWIDTH 10 0
BBX 7 12 1 -2
BITMAP
DC
62
42
42
42
42
42
42
E2
02
12
1C
ENDCHAR
STARTCHAR 014C
ENCODING 332
SWIDTH 500 0
DWIDTH 10 0
BBX 8 17 1 0
BITMAP
7E
00
3C
62
42
42
C3
81
81
81
81
83
C3
C2
42
66
3C
ENDCHAR
STARTCHAR 014D
ENCODING 333
SWIDTH 500 0
DWIDTH 10 0
BBX 8 13 1 0
BITMAP
7E
00
00
3C
66
42
C3
C3
C3
C3
42
66
3C
ENDCHAR
STARTCHAR 0150
ENCODING 336
SWIDTH 500 0
DWIDTH 10 0
BBX 9 17 1 0
BITMAP
3F80
4800
3C00
6600
4200
4200
C300
8100
8100
8100
8100
8100
C300
4200
4200
6600
3C00
ENDCHAR
STARTCHAR 0151
ENCODING 337
SWIDTH 500 0
DWIDTH 10 0
BBX 9 14 1 0
BITMAP
1F80
2400
4800
0000
3C00
6600
4200
C300
C300
C300
C300
4200
6600
3C00
ENDCHAR
STARTCHAR 0152
ENCODING 338
SWIDTH 500 0
DWIDTH 10 0
BBX 8 15 1 0
BITMAP
3F
49
49
48
8A
8A
8E
8A
8A
88
89
C9
49
4F
30
ENDCHAR
STARTCHAR 0153
ENCODING 339
SWIDTH 500 0
DWIDTH 10 0
BBX 8 10 1 0
BITMAP
76
59
99
8F
88
88
89
99
5A
66
ENDCHAR
STARTCHAR 0154
ENCODING 340
SWIDTH 500 0
DWIDTH 10 0
BBX 9 16 1 1
BITMAP
1E00
2000
FC00
4600
4200
4300
4200
4600
7800
4800
4800
4400
4400
4600
4200
E380
ENDCHAR
STARTCHAR 0155
ENCODING 341
SWIDTH 500 0
DWIDTH 10 0
BBX 7 13 2 1
BITMAP
1C
20
00
40
CE
56
60
40
40
40
40
40
F0
ENDCHAR
STARTCHAR 0158
ENCODING 344
SWIDTH 500 0
DWIDTH 10 0
BBX 9 16 1 1
BITMAP
6C00
1000
FC00
4600
4200
4300
4200
4600
7800
4800
4800
4400
4400
4600
4200
E380
ENDCHAR
STARTCHAR 0159
ENCODING 345
SWIDTH 500 0
DWIDTH 10 0
BBX 7 13 2 1
BITMAP
48
30
00
40
CE
56
60
40
40
40
40
40
F0
ENDCHAR
STARTCHAR 015A
ENCODING 346
SWIDTH 500 0
DWIDTH 10 0
BBX 8 17 1 0
BITMAP
1C
20
3A
46
42
42
40
60
18
0C
06
82
83
83
C2
A6
1C
ENDCHAR
STARTCHAR 015B
ENCODING 347
SWIDTH 500 0
DWIDTH 10 0
BBX 6 14 2 0
BITMAP
1C
20
00
00
7C
CC
84
80
60
18
84
84
C4
38
ENDCHAR
STARTCHAR 015C
ENCODING 348
SWIDTH 500 0
DWIDTH 10 0
BBX 8 17 1 0
BITMAP
18
24
3A
46
42
42
40
60
30
08
06
02
83
83
C2
A6
1C
ENDCHAR
STARTCHAR 015D
ENCODING 349
SWIDTH 500 0
DWIDTH 10 0
BBX 6 14 2 0
BITMAP
30
48
00
00
7C
CC
84
80
60
18
84
84
C4
38
ENDCHAR
STARTCHAR 015E
ENCODING 350
SWIDTH 500 0
DWIDTH 10 0
BBX 8 17 1 -2
BITMAP
3A
46
42
40
40
30
08
06
02
83
C3
C2
BC
00
18
18
10
ENDCHAR
STARTCHAR 015F
ENCODING 351
SWIDTH 500 0
DWIDTH 10 0
BBX 6 12 2 -2
BITMAP
7C
84
84
40
38
84
84
C4
38
30
30
20
ENDCHAR
STARTCHAR 0160
ENCODING 352
SWIDTH 500 0
DWIDTH 10 0
BBX 8 17 1 0
BITMAP
3C
00
3A
46
42
42
40
60
30
08
06
02
83
83
C2
A6
1C
ENDCHAR
STARTCHAR 0161
ENCODING 353
SWIDTH 500 0
DWIDTH 10 0
BBX 6 14 2 0
BITMAP
48
30
00
00
7C
CC
84
80
60
18
84
84
C4
38
ENDCHAR
STARTCHAR 0162
ENCODING 354
SWIDTH 500 0
DWIDTH 10 0
BBX 8 17 1 -2
BITMAP
FF
99
99
99
18
18
18
18
18
18
18
18
3C
00
18
18
10
ENDCHAR
STARTCHAR 0163
ENCODING 355
SWIDTH 500 0
DWIDTH 10 0
BBX 6 15 2 -2
BITMAP
20
20
60
FC
20
20
20
20
20
24
24
38
30
30
20
ENDCHAR
STARTCHAR 0164
ENCODING 356
SWIDTH 500 0
DWIDTH 10 0
BBX 8 16 1 1
BITMAP
3C
00
FF
99
99
99
18
18
18
18
18
18
18
18
18
3C
ENDCHAR
STARTCHAR 0165
ENCODING 357
SWIDTH 500 0
DWIDTH 10 0
BBX 6 16 2 0
BITMAP
0C
0C
04
28
20
60
FC
20
20
20
20
20
20
24
24
38
ENDCHAR
STARTCHAR 016A
ENCODING 362
SWIDTH 500 0
DWIDTH 10 0
BBX 10 17 0 0
BITMAP
3F00
0000
F1C0
2100
2100
2100
2100
2100
2100
2100
2100
2100
2100
2100
2100
3100
1E00
ENDCHAR
STARTCHAR 016B
ENCODING 363
SWIDTH 500 0
DWIDTH 10 0
BBX 8 13 1 0
BITMAP
7E
00
00
C6
42
42
42
42
42
42
42
46
3B
ENDCHAR
STARTCHAR 016C
ENCODING 364
SWIDTH 500 0
DWIDTH 10 0
BBX 10 17 0 0
BITMAP
1200
0C00
F1C0
2100
2100
2100
2100
2100
2100
2100
2100
2100
2100
2100
2100
3100
1E00
ENDCHAR
STARTCHAR 016D
ENCODING 365
SWIDTH 500 0
DWIDTH 10 0
BBX 8 14 1 0
BITMAP
24
18
00
C6
42
42
42
42
42
42
42
42
66
3D
ENDCHAR
STARTCHAR 016E
ENCODING 366
SWIDTH 500 0
DWIDTH 10 0
BBX 10 18 0 0
BITMAP
0C00
1200
1400
F9C0
2100
2100
2100
2100
2100
2100
2100
2100
2100
2100
2100
2100
3100
1E00
ENDCHAR
STARTCHAR 016F
ENCODING 367
SWIDTH 500 0
DWIDTH 10 0
BBX 8 14 1 0
BITMAP
38
28
10
42
C6
42
42
42
42
42
42
42
66
3D
ENDCHAR
STARTCHAR 0170
ENCODING 368
SWIDTH 500 0
DWIDTH 10 0
BBX 10 17 0 0
BITMAP
1FC0
2400
F1C0
2100
2100
2100
2100
2100
2100
2100
2100
2100
2100
2100
2100
3100
1E00
ENDCHAR
STARTCHAR 0171
ENCODING 369
SWIDTH 500 0
DWIDTH 10 0
BBX 9 14 1 0
BITMAP
1F80
2400
4800
C200
4600
4200
4200
4200
4200
4200
4200
4200
6600
3D00
ENDCHAR
STARTCHAR 0179
ENCODING 377
SWIDTH 500 0
DWIDTH 10 0
BBX 8 16 1 1
BITMAP
0E
10
7E
42
86
84
0C
08
18
10
30
20
61
41
C3
FF
ENDCHAR
STARTCHAR 017A
ENCODING 378
SWIDTH 500 0
DWIDTH 10 0
BBX 8 13 1 1
BITMAP
0E
10
00
00
7E
42
84
08
10
30
21
43
FF
ENDCHAR
STARTCHAR 017B
ENCODING 379
SWIDTH 500 0
DWIDTH 10 0
BBX 8 17 1 1
BITMAP
18
18
00
7E
42
86
84
0C
08
18
10
30
20
61
41
C3
FF
ENDCHAR
STARTCHAR 017C
ENCODING 380
SWIDTH 500 0
DWIDTH 10 0
BBX 8 13 1 1
BITMAP
18
18
00
00
7E
42
84
08
10
30
21
43
FF
ENDCHAR
STARTCHAR 017D
ENCODING 381
SWIDTH 500 0
DWIDTH 10 0
BBX 8 16 1 1
BITMAP
3C
00
7E
42
86
84
0C
08
18
10
30
20
61
41
C3
FF
ENDCHAR
STARTCHAR 017E
ENCODING 382
SWIDTH 500 0
DWIDTH 10 0
BBX 8 13 1 1
BITMAP
24
18
00
00
7E
42
84
08
10
30
21
43
FF
ENDCHAR
STARTCHAR 0193
ENCODING 403
SWIDTH 500 0
DWIDTH 10 0
BBX 9 17 1 0
BITMAP
0300
0580
3D80
6400
4400
4400
C000
8000
8000
8E00
8400
C400
C400
4400
4400
6C00
3800
ENDCHAR
STARTCHAR 01C2
ENCODING 450
SWIDTH 500 0
DWIDTH 10 0
BBX 6 17 2 -2
BITMAP
30
30
30
30
30
FC
30
30
30
30
FC
30
30
30
30
30
30
ENDCHAR
STARTCHAR 01CD
ENCODING 461
SWIDTH 1000 0
DWIDTH 20 0
BBX 16 17 2 1
BITMAP
0420
03C0
0000
0180
0180
0280
02C0
0440
0460
0420
0830
0FF0
1010
1018
2008
200C
F83F
ENDCHAR
STARTCHAR 01CE
ENCODING 462
SWIDTH 1000 0
DWIDTH 20 0
BBX 10 13 6 0
BITMAP
7E00
0000
0000
7C00
C600
C200
0200
3E00
4200
8200
8200
C6C0
7B80
ENDCHAR
STARTCHAR 01D0
ENCODING 464
SWIDTH 1000 0
DWIDTH 20 0
BBX 6 13 7 1
BITMAP
CC
30
00
30
70
30
30
30
30
30
30
30
78
ENDCHAR
STARTCHAR 01D1
ENCODING 465
SWIDTH 1000 0
DWIDTH 20 0
BBX 14 16 3 1
BITMAP
0FC0
0000
0FC0
1860
3030
6018
4008
4008
C00C
C00C
400C
4008
6018
3030
1860
0FC0
ENDCHAR
STARTCHAR 01D2
ENCODING 466
SWIDTH 1000 0
DWIDTH 20 0
BBX 10 13 5 0
BITMAP
3F00
0000
0000
1E00
6180
4080
C0C0
C0C0
C0C0
C0C0
4080
6180
1E00
ENDCHAR
STARTCHAR 01D4
ENCODING 468
SWIDTH 1000 0
DWIDTH 20 0
BBX 11 13 5 1
BITMAP
3300
0C00
0000
C180
4280
4080
4080
4080
4080
4080
6080
6180
3EE0
ENDCHAR
STARTCHAR 01D6
ENCODING 470
SWIDTH 1000 0
DWIDTH 20 0
BBX 11 15 5 0
BITMAP
3F00
6180
6180
0000
4080
C380
4080
4080
4080
4080
4080
4080
6180
2280
1CE0
ENDCHAR
STARTCHAR 01D8
ENCODING 472
SWIDTH 1000 0
DWIDTH 20 0
BBX 11 15 5 0
BITMAP
0700
6980
6180
0000
4080
C380
4080
4080
4080
4080
4080
4080
6180
2280
1CE0
ENDCHAR
STARTCHAR 01DA
ENCODING 474
SWIDTH 1000 0
DWIDTH 20 0
BBX 11 15 5 0
BITMAP
3300
6D80
6180
0000
4080
C380
4080
4080
4080
4080
4080
4080
6180
2280
1CE0
ENDCHAR
STARTCHAR 01DC
ENCODING 476
SWIDTH 1000 0
DWIDTH 20 0
BBX 11 15 5 0
BITMAP
3800
6580
6180
0000
4080
C380
4080
4080
4080
4080
4080
4080
6180
2280
1CE0
ENDCHAR
STARTCHAR 01F8
ENCODING 504
SWIDTH 500 0
DWIDTH 10 0
BBX 8 16 1 1
BITMAP
70
08
C7
62
A2
A2
92
92
9A
8A
8E
86
86
82
82
E2
ENDCHAR
STARTCHAR 01F9
ENCODING 505
SWIDTH 500 0
DWIDTH 10 0
BBX 8 13 1 1
BITMAP
70
08
00
40
DC
62
42
42
42
42
42
42
E7
ENDCHAR
STARTCHAR 01FD
ENCODING 509
SWIDTH 500 0
DWIDTH 10 0
BBX 8 14 1 0
BITMAP
0E
10
00
00
7E
DA
09
3F
48
C8
89
89
9A
66
ENDCHAR
STARTCHAR 0250
ENCODING 592
SWIDTH 500 0
DWIDTH 10 0
BBX 8 10 1 0
BITMAP
DE
E3
43
42
44
78
42
62
22
1C
ENDCHAR
STARTCHAR 0251
ENCODING 593
SWIDTH 500 0
DWIDTH 10 0
BBX 8 10 1 0
BITMAP
3A
66
42
C2
C2
C2
C2
46
6B
3B
ENDCHAR
STARTCHAR 0252
ENCODING 594
SWIDTH 500 0
DWIDTH 10 0
BBX 8 10 1 0
BITMAP
DC
66
42
43
43
43
43
42
66
9C
ENDCHAR
STARTCHAR 0253
ENCODING 595
SWIDTH 500 0
DWIDTH 10 0
BBX 7 15 2 0
BITMAP
78
44
84
8C
80
B8
CC
84
86
86
86
86
84
CC
B8
ENDCHAR
STARTCHAR 0254
ENCODING 596
SWIDTH 500 0
DWIDTH 10 0
BBX 7 10 1 0
BITMAP
38
46
82
02
02
02
42
42
44
38
ENDCHAR
STARTCHAR 0255
ENCODING 597
SWIDTH 500 0
DWIDTH 10 0
BBX 7 10 2 0
BITMAP
78
C4
84
80
80
8E
92
E2
44
B8
ENDCHAR
STARTCHAR 0256
ENCODING 598
SWIDTH 500 0
DWIDTH 10 0
BBX 9 17 1 -2
BITMAP
0C00
0400
0400
0400
0400
3C00
4400
C400
8400
8400
8400
8400
C400
4C00
3580
0480
0300
ENDCHAR
STARTCHAR 0257
ENCODING 599
SWIDTH 500 0
DWIDTH 10 0
BBX 9 15 1 0
BITMAP
0300
0580
0580
0400
0400
3C00
4400
C400
8400
8400
8400
8400
8400
4C00
3A00
ENDCHAR
STARTCHAR 0258
ENCODING 600
SWIDTH 500 0
DWIDTH 10 0
BBX 8 10 1 0
BITMAP
3C
66
42
7E
83
03
82
42
44
38
ENDCHAR
STARTCHAR 0259
ENCODING 601
SWIDTH 500 0
DWIDTH 10 0
BBX 8 10 1 0
BITMAP
3C
46
02
03
FF
43
42
42
26
3C
ENDCHAR
STARTCHAR 025A
ENCODING 602
SWIDTH 500 0
DWIDTH 10 0
BBX 9 10 1 0
BITMAP
7000
8800
8A00
0E80
3500
4400
8400
C800
4800
3000
ENDCHAR
STARTCHAR 025C
ENCODING 604
SWIDTH 500 0
DWIDTH 10 0
BBX 7 10 1 0
BITMAP
7C
46
82
06
38
06
82
82
C6
3C
ENDCHAR
STARTCHAR 025E
ENCODING 606
SWIDTH 500 0
DWIDTH 10 0
BBX 8 10 1 0
BITMAP
3C
42
81
81
8E
81
81
81
42
3C
ENDCHAR
STARTCHAR 025F
ENCODING 607
SWIDTH 500 0
DWIDTH 10 0
BBX 7 12 1 -2
BITMAP
1C
08
08
08
08
08
7E
08
08
08
D8
F0
ENDCHAR
STARTCHAR 0260
ENCODING 608
SWIDTH 500 0
DWIDTH 10 0
BBX 9 17 1 -2
BITMAP
0300
0580
0580
0400
0400
7C00
4400
8400
8400
8400
8400
CC00
7400
C400
C400
4C00
7800
ENDCHAR
STARTCHAR 0261
ENCODING 609
SWIDTH 500 0
DWIDTH 10 0
BBX 7 12 1 -2
BITMAP
3E
62
42
C2
C2
42
66
3A
62
42
44
3C
ENDCHAR
STARTCHAR 0264
ENCODING 612
SWIDTH 500 0
DWIDTH 10 0
BBX 8 10 1 0
BITMAP
C3
A5
34
18
18
18
18
2C
28
18
ENDCHAR
STARTCHAR 0265
ENCODING 613
SWIDTH 500 0
DWIDTH 10 0
BBX 8 12 1 -2
BITMAP
E7
42
42
42
42
42
42
42
46
3A
02
03
ENDCHAR
STARTCHAR 0266
ENCODING 614
SWIDTH 500 0
DWIDTH 10 0
BBX 8 14 1 1
BITMAP
3C
66
46
40
40
5C
62
42
42
42
42
42
42
E7
ENDCHAR
STARTCHAR 0267
ENCODING 615
SWIDTH 500 0
DWIDTH 10 0
BBX 7 17 1 -2
BITMAP
3C
66
46
40
40
5C
62
42
42
42
42
42
42
E2
02
12
1C
ENDCHAR
STARTCHAR 0268
ENCODING 616
SWIDTH 500 0
DWIDTH 10 0
BBX 5 14 3 1
BITMAP
60
60
00
00
60
E0
20
20
F8
20
20
20
20
F0
ENDCHAR
STARTCHAR 026C
ENCODING 620
SWIDTH 500 0
DWIDTH 10 0
BBX 6 14 2 1
BITMAP
30
70
30
30
30
F0
B0
B0
7C
30
30
30
30
78
ENDCHAR
STARTCHAR 026D
ENCODING 621
SWIDTH 500 0
DWIDTH 10 0
BBX 6 17 3 -2
BITMAP
C0
40
40
40
40
40
40
40
40
40
40
40
40
40
4C
6C
38
ENDCHAR
STARTCHAR 026E
ENCODING 622
SWIDTH 500 0
DWIDTH 10 0
BBX 8 17 1 -2
BITMAP
C0
40
40
40
40
7F
62
44
48
5E
42
41
41
E1
03
22
3C
ENDCHAR
STARTCHAR 026F
ENCODING 623
SWIDTH 500 0
DWIDTH 10 0
BBX 10 10 0 0
BITMAP
EDC0
4C80
4C80
4C80
4C80
4C80
4C80
4C80
4D80
3740
ENDCHAR
STARTCHAR 0270
ENCODING 624
SWIDTH 500 0
DWIDTH 10 0
BBX 10 12 0 -2
BITMAP
EDC0
4C80
4C80
4C80
4C80
4C80
4C80
4C80
4D80
3680
0080
00C0
ENDCHAR
STARTCHAR 0271
ENCODING 625
SWIDTH 500 0
DWIDTH 10 0
BBX 9 12 0 -2
BITMAP
DB00
6C80
4C80
4C80
4C80
4C80
4C80
4C80
6C80
8080
0680
0300
ENDCHAR
STARTCHAR 0272
ENCODING 626
SWIDTH 500 0
DWIDTH 10 0
BBX 9 12 0 -2
BITMAP
3700
1900
1100
1100
1100
1100
1100
1100
1380
D000
9000
6000
ENDCHAR
STARTCHAR 0273
ENCODING 627
SWIDTH 500 0
DWIDTH 10 0
BBX 9 12 1 -2
BITMAP
F800
4400
4400
4400
4400
4400
4400
4400
E400
0580
0480
0300
ENDCHAR
STARTCHAR 0275
ENCODING 629
SWIDTH 500 0
DWIDTH 10 0
BBX 8 10 1 0
BITMAP
3C
66
42
C3
FF
C3
C3
42
66
3C
ENDCHAR
STARTCHAR 0279
ENCODING 633
SWIDTH 500 0
DWIDTH 10 0
BBX 7 10 1 0
BITMAP
1E
04
04
04
04
04
04
CC
D4
6A
ENDCHAR
STARTCHAR 027A
ENCODING 634
SWIDTH 500 0
DWIDTH 10 0
BBX 7 15 1 0
BITMAP
1E
04
04
04
04
04
04
04
04
04
04
0C
D4
D6
68
ENDCHAR
STARTCHAR 027B
ENCODING 635
SWIDTH 500 0
DWIDTH 10 0
BBX 8 12 1 -2
BITMAP
1E
08
08
08
08
08
08
88
D8
E9
0D
07
ENDCHAR
STARTCHAR 027D
ENCODING 637
SWIDTH 500 0
DWIDTH 10 0
BBX 7 12 2 -2
BITMAP
CE
56
60
40
40
40
40
40
40
4C
64
38
ENDCHAR
STARTCHAR 027E
ENCODING 638
SWIDTH 500 0
DWIDTH 10 0
BBX 7 9 2 1
BITMAP
1C
26
20
20
20
20
20
20
F0
ENDCHAR
STARTCHAR 0281
ENCODING 641
SWIDTH 500 0
DWIDTH 10 0
BBX 9 9 1 1
BITMAP
E380
4600
4400
4800
7C00
4200
4200
4200
FE00
ENDCHAR
STARTCHAR 0282
ENCODING 642
SWIDTH 500 0
DWIDTH 10 0
BBX 6 12 2 -2
BITMAP
7C
CC
84
80
60
18
84
84
C4
B8
A0
E0
ENDCHAR
STARTCHAR 0283
ENCODING 643
SWIDTH 500 0
DWIDTH 10 0
BBX 8 17 1 -2
BITMAP
07
09
18
18
18
18
18
18
18
18
18
18
18
18
18
90
60
ENDCHAR
STARTCHAR 0284
ENCODING 644
SWIDTH 500 0
DWIDTH 10 0
BBX 8 17 1 -2
BITMAP
0F
09
18
18
18
18
18
18
18
18
18
7E
18
18
18
90
E0
ENDCHAR
STARTCHAR 0288
ENCODING 648
SWIDTH 500 0
DWIDTH 10 0
BBX 6 15 2 -2
BITMAP
20
20
60
FC
20
20
20
20
20
20
20
20
24
24
1C
ENDCHAR
STARTCHAR 0289
ENCODING 649
SWIDTH 500 0
DWIDTH 10 0
BBX 8 11 1 0
BITMAP
C6
42
42
42
FF
42
42
42
42
66
3D
ENDCHAR
STARTCHAR 028A
ENCODING 650
SWIDTH 500 0
DWIDTH 10 0
BBX 8 10 1 0
BITMAP
E7
42
42
43
C1
C3
C3
42
66
3C
ENDCHAR
STARTCHAR 028B
ENCODING 651
SWIDTH 500 0
DWIDTH 10 0
BBX 7 10 1 0
BITMAP
C6
46
42
42
42
42
42
42
64
38
ENDCHAR
STARTCHAR 028C
ENCODING 652
SWIDTH 500 0
DWIDTH 10 0
BBX 8 10 1 1
BITMAP
10
18
18
28
24
24
44
42
42
E7
ENDCHAR
STARTCHAR 028D
ENCODING 653
SWIDTH 500 0
DWIDTH 10 0
BBX 10 10 0 1
BITMAP
1200
1200
3300
3500
3500
4D00
4D00
4880
4880
EDC0
ENDCHAR
STARTCHAR 028E
ENCODING 654
SWIDTH 500 0
DWIDTH 10 0
BBX 10 14 0 1
BITMAP
0180
02C0
0400
0400
0800
0800
0800
1400
1400
2200
2200
2300
4100
F380
ENDCHAR
STARTCHAR 0290
ENCODING 656
SWIDTH 500 0
DWIDTH 10 0
BBX 9 12 1 -2
BITMAP
FC00
8C00
8800
1000
2000
2000
4400
8400
FC00
0400
0580
0380
ENDCHAR
STARTCHAR 0291
ENCODING 657
SWIDTH 500 0
DWIDTH 10 0
BBX 8 10 1 0
BITMAP
7E
42
84
08
10
30
27
49
FF
20
ENDCHAR
STARTCHAR 0292
ENCODING 658
SWIDTH 500 0
DWIDTH 10 0
BBX 7 12 1 -2
BITMAP
7E
44
88
10
3C
46
02
02
02
42
C4
38
ENDCHAR
STARTCHAR 0294
ENCODING 660
SWIDTH 500 0
DWIDTH 10 0
BBX 6 14 2 1
BITMAP
78
4C
C4
04
04
04
04
08
30
20
20
20
20
78
ENDCHAR
STARTCHAR 0295
ENCODING 661
SWIDTH 500 0
DWIDTH 10 0
BBX 6 14 2 1
BITMAP
78
C8
8C
80
80
80
80
40
30
10
10
10
10
78
ENDCHAR
STARTCHAR 0298
ENCODING 664
SWIDTH 500 0
DWIDTH 10 0
BBX 8 10 1 0
BITMAP
3C
42
82
99
99
99
81
82
46
3C
ENDCHAR
STARTCHAR 029D
ENCODING 669
SWIDTH 500 0
DWIDTH 10 0
BBX 7 17 1 -2
BITMAP
18
18
00
00
08
38
08
08
08
08
08
08
08
08
F8
94
F2
ENDCHAR
STARTCHAR 02A1
ENCODING 673
SWIDTH 500 0
DWIDTH 10 0
BBX 6 14 2 1
BITMAP
78
4C
C4
04
04
04
04
08
30
20
F8
20
20
78
ENDCHAR
STARTCHAR 02A2
ENCODING 674
SWIDTH 500 0
DWIDTH 10 0
BBX 6 14 2 1
BITMAP
78
C8
8C
80
80
80
80
40
30
10
7C
10
10
78
ENDCHAR
STARTCHAR 02C7
ENCODING 711
SWIDTH 500 0
DWIDTH 10 0
BBX 6 2 2 13
BITMAP
84
78
ENDCHAR
STARTCHAR 02C8
ENCODING 712
SWIDTH 500 0
DWIDTH 10 0
BBX 1 2 4 15
BITMAP
80
80
ENDCHAR
STARTCHAR 02CC
ENCODING 716
SWIDTH 500 0
DWIDTH 10 0
BBX 1 2 4 -1
BITMAP
80
80
ENDCHAR
STARTCHAR 02D0
ENCODING 720
SWIDTH 500 0
DWIDTH 10 0
BBX 2 9 4 1
BITMAP
C0
C0
80
00
00
00
80
C0
C0
ENDCHAR
STARTCHAR 02D1
ENCODING 721
SWIDTH 500 0
DWIDTH 10 0
BBX 2 3 4 7
BITMAP
C0
C0
80
ENDCHAR
STARTCHAR 02D8
ENCODING 728
SWIDTH 500 0
DWIDTH 10 0
BBX 6 3 2 12
BITMAP
84
CC
78
ENDCHAR
STARTCHAR 02D9
ENCODING 729
SWIDTH 500 0
DWIDTH 10 0
BBX 2 2 4 13
BITMAP
C0
C0
ENDCHAR
STARTCHAR 02DB
ENCODING 731
SWIDTH 500 0
DWIDTH 10 0
BBX 4 4 3 -1
BITMAP
60
80
80
F0
ENDCHAR
STARTCHAR 02DC
ENCODING 732
SWIDTH 500 0
DWIDTH 10 0
BBX 8 2 1 13
BITMAP
73
8E
ENDCHAR
STARTCHAR 02DD
ENCODING 733
SWIDTH 500 0
DWIDTH 10 0
BBX 8 2 1 13
BITMAP
77
98
ENDCHAR
STARTCHAR 02DE
ENCODING 734
SWIDTH 500 0
DWIDTH 10 0
BBX 6 4 2 5
BITMAP
40
A4
24
18
ENDCHAR
STARTCHAR 02E5
ENCODING 741
SWIDTH 500 0
DWIDTH 10 0
BBX 5 20 2 -2
BITMAP
F8
08
08
08
08
08
08
08
08
08
08
08
08
08
08
08
08
08
08
08
ENDCHAR
STARTCHAR 02E6
ENCODING 742
SWIDTH 500 0
DWIDTH 10 0
BBX 5 20 2 -2
BITMAP
08
08
08
08
08
F8
08
08
08
08
08
08
08
08
08
08
08
08
08
08
ENDCHAR
STARTCHAR 02E7
ENCODING 743
SWIDTH 500 0
DWIDTH 10 0
BBX 5 20 2 -2
BITMAP
08
08
08
08
08
08
08
08
08
08
F8
08
08
08
08
08
08
08
08
08
ENDCHAR
STARTCHAR 02E8
ENCODING 744
SWIDTH 500 0
DWIDTH 10 0
BBX 5 20 2 -2
BITMAP
08
08
08
08
08
08
08
08
08
08
08
08
08
08
08
F8
08
08
08
08
ENDCHAR
STARTCHAR 02E9
ENCODING 745
SWIDTH 500 0
DWIDTH 10 0
BBX 5 20 2 -2
BITMAP
08
08
08
08
08
08
08
08
08
08
08
08
08
08
08
08
08
08
08
F8
ENDCHAR
STARTCHAR 0300
ENCODING 768
SWIDTH 500 0
DWIDTH 10 0
BBX 4 1 2 16
BITMAP
F0
ENDCHAR
STARTCHAR 0301
ENCODING 769
SWIDTH 500 0
DWIDTH 10 0
BBX 4 1 4 16
BITMAP
F0
ENDCHAR
STARTCHAR 0302
ENCODING 770
SWIDTH 500 0
DWIDTH 10 0
BBX 4 1 3 16
BITMAP
F0
ENDCHAR
STARTCHAR 0303
ENCODING 771
SWIDTH 500 0
DWIDTH 10 0
BBX 6 1 2 16
BITMAP
FC
ENDCHAR
STARTCHAR 0304
ENCODING 772
SWIDTH 500 0
DWIDTH 10 0
BBX 6 1 2 16
BITMAP
FC
ENDCHAR
STARTCHAR 0306
ENCODING 774
SWIDTH 500 0
DWIDTH 10 0
BBX 4 2 3 15
BITMAP
90
60
ENDCHAR
STARTCHAR 0308
ENCODING 776
SWIDTH 500 0
DWIDTH 10 0
BBX 6 2 2 16
BITMAP
CC
CC
ENDCHAR
STARTCHAR 030B
ENCODING 779
SWIDTH 500 0
DWIDTH 10 0
BBX 8 1 2 16
BITMAP
FF
ENDCHAR
STARTCHAR 030C
ENCODING 780
SWIDTH 500 0
DWIDTH 10 0
BBX 4 1 3 16
BITMAP
F0
ENDCHAR
STARTCHAR 030F
ENCODING 783
SWIDTH 500 0
DWIDTH 10 0
BBX 8 1 0 16
BITMAP
FF
ENDCHAR
STARTCHAR 0318
ENCODING 792
SWIDTH 500 0
DWIDTH 10 0
BBX 3 2 3 -2
BITMAP
E0
20
ENDCHAR
STARTCHAR 0319
ENCODING 793
SWIDTH 500 0
DWIDTH 10 0
BBX 3 2 4 -2
BITMAP
E0
80
ENDCHAR
STARTCHAR 031A
ENCODING 794
SWIDTH 500 0
DWIDTH 10 0
BBX 3 2 6 15
BITMAP
E0
20
ENDCHAR
STARTCHAR 031C
ENCODING 796
SWIDTH 500 0
DWIDTH 10 0
BBX 2 3 4 -2
BITMAP
40
80
C0
ENDCHAR
STARTCHAR 031D
ENCODING 797
SWIDTH 500 0
DWIDTH 10 0
BBX 4 2 3 -2
BITMAP
40
F0
ENDCHAR
STARTCHAR 031E
ENCODING 798
SWIDTH 500 0
DWIDTH 10 0
BBX 4 2 3 -2
BITMAP
F0
40
ENDCHAR
STARTCHAR 031F
ENCODING 799
SWIDTH 500 0
DWIDTH 10 0
BBX 4 2 3 -2
BITMAP
F0
40
ENDCHAR
STARTCHAR 0320
ENCODING 800
SWIDTH 500 0
DWIDTH 10 0
BBX 4 1 3 -1
BITMAP
F0
ENDCHAR
STARTCHAR 0324
ENCODING 804
SWIDTH 500 0
DWIDTH 10 0
BBX 6 2 2 -2
BITMAP
CC
CC
ENDCHAR
STARTCHAR 0325
ENCODING 805
SWIDTH 500 0
DWIDTH 10 0
BBX 2 2 4 -2
BITMAP
C0
C0
ENDCHAR
STARTCHAR 0329
ENCODING 809
SWIDTH 500 0
DWIDTH 10 0
BBX 1 2 4 -2
BITMAP
80
80
ENDCHAR
STARTCHAR 032A
ENCODING 810
SWIDTH 500 0
DWIDTH 10 0
BBX 4 2 3 -2
BITMAP
F0
90
ENDCHAR
STARTCHAR 032C
ENCODING 812
SWIDTH 500 0
DWIDTH 10 0
BBX 4 2 3 -2
BITMAP
90
60
ENDCHAR
STARTCHAR 032F
ENCODING 815
SWIDTH 500 0
DWIDTH 10 0
BBX 4 2 3 -2
BITMAP
60
90
ENDCHAR
STARTCHAR 0330
ENCODING 816
SWIDTH 500 0
DWIDTH 10 0
BBX 6 2 2 -2
BITMAP
64
98
ENDCHAR
STARTCHAR 0334
ENCODING 820
SWIDTH 500 0
DWIDTH 10 0
BBX 6 2 2 7
BITMAP
60
9C
ENDCHAR
STARTCHAR 0339
ENCODING 825
SWIDTH 500 0
DWIDTH 10 0
BBX 2 3 4 -2
BITMAP
80
40
C0
ENDCHAR
STARTCHAR 033A
ENCODING 826
SWIDTH 500 0
DWIDTH 10 0
BBX 4 2 3 -2
BITMAP
90
F0
ENDCHAR
STARTCHAR 033B
ENCODING 827
SWIDTH 500 0
DWIDTH 10 0
BBX 4 2 3 -2
BITMAP
F0
F0
ENDCHAR
STARTCHAR 033C
ENCODING 828
SWIDTH 500 0
DWIDTH 10 0
BBX 6 2 2 -2
BITMAP
78
A4
ENDCHAR
STARTCHAR 033D
ENCODING 829
SWIDTH 500 0
DWIDTH 10 0
BBX 6 2 2 15
BITMAP
FC
FC
ENDCHAR
STARTCHAR 0361
ENCODING 865
SWIDTH 500 0
DWIDTH 10 0
BBX 8 2 1 15
BITMAP
7E
81
ENDCHAR
STARTCHAR 0391
ENCODING 913
SWIDTH 1000 0
DWIDTH 20 0
BBX 16 15 2 1
BITMAP
0100
0180
0180
02C0
0240
0440
0460
0420
0830
0FF0
1010
1018
2008
200C
F83F
ENDCHAR
STARTCHAR 0392
ENCODING 914
SWIDTH 1000 0
DWIDTH 20 0
BBX 12 14 4 1
BITMAP
FF80
20E0
2060
2020
2060
20C0
3F00
20E0
2030
2030
2030
2030
2060
FFC0
ENDCHAR
STARTCHAR 0393
ENCODING 915
SWIDTH 1000 0
DWIDTH 20 0
BBX 12 14 4 1
BITMAP
FFF0
3030
2010
2010
2000
2000
2000
2000
2000
2000
2000
2000
2000
F800
ENDCHAR
STARTCHAR 0394
ENCODING 916
SWIDTH 1000 0
DWIDTH 20 0
BBX 14 14 3 1
BITMAP
0200
0300
0500
0580
0880
08C0
0840
1060
1020
2030
2010
4018
4018
FFFC
ENDCHAR
STARTCHAR 0395
ENCODING 917
SWIDTH 1000 0
DWIDTH 20 0
BBX 12 14 4 1
BITMAP
FFE0
6020
2020
2020
2080
2080
3F80
2080
2080
2000
2010
2010
6030
FFF0
ENDCHAR
STARTCHAR 0396
ENCODING 918
SWIDTH 1000 0
DWIDTH 20 0
BBX 12 14 4 1
BITMAP
7FE0
6060
4040
4080
0180
0300
0600
0400
0800
1810
3010
6010
4030
FFF0
ENDCHAR
STARTCHAR 0397
ENCODING 919
SWIDTH 1000 0
DWIDTH 20 0
BBX 14 14 3 1
BITMAP
F87C
2010
2010
2010
2010
2010
3FF0
2010
2010
2010
2010
2010
2010
F87C
ENDCHAR
STARTCHAR 0398
ENCODING 920
SWIDTH 1000 0
DWIDTH 20 0
BBX 14 14 3 1
BITMAP
0FC0
1860
3030
6018
4008
5028
DFEC
D02C
400C
4008
6018
3030
1860
0FC0
ENDCHAR
STARTCHAR 0399
ENCODING 921
SWIDTH 1000 0
DWIDTH 20 0
BBX 6 14 7 1
BITMAP
FC
30
30
30
30
30
30
30
30
30
30
30
30
FC
ENDCHAR
STARTCHAR 039A
ENCODING 922
SWIDTH 1000 0
DWIDTH 20 0
BBX 15 14 3 1
BITMAP
F8F8
2020
2040
2080
2100
2200
2700
2900
3180
20C0
2060
2030
2018
F87E
ENDCHAR
STARTCHAR 039B
ENCODING 923
SWIDTH 1000 0
DWIDTH 20 0
BBX 14 14 3 1
BITMAP
0300
0300
0500
0580
0480
08C0
08C0
1040
1060
1020
2030
2030
4010
F87C
ENDCHAR
STARTCHAR 039C
ENCODING 924
SWIDTH 1000 0
DWIDTH 20 0
BBX 16 14 2 1
BITMAP
E007
700E
500E
5816
4816
4826
4C26
4426
4646
4246
4386
4386
4186
F11F
ENDCHAR
STARTCHAR 039D
ENCODING 925
SWIDTH 1000 0
DWIDTH 20 0
BBX 14 14 3 1
BITMAP
E03C
7008
5808
4C08
4408
4608
4308
4188
4088
40C8
4068
4038
4018
F018
ENDCHAR
STARTCHAR 039E
ENCODING 926
SWIDTH 1000 0
DWIDTH 20 0
BBX 12 14 4 1
BITMAP
7FE0
4020
8020
0000
0000
2080
1F80
2080
2080
0000
0000
8010
8010
FFF0
ENDCHAR
STARTCHAR 039F
ENCODING 927
SWIDTH 1000 0
DWIDTH 20 0
BBX 14 14 3 1
BITMAP
0FC0
1860
3030
6018
4008
4008
C00C
C00C
400C
4008
6018
3010
1820
0FC0
ENDCHAR
STARTCHAR 03A0
ENCODING 928
SWIDTH 1000 0
DWIDTH 20 0
BBX 14 14 3 1
BITMAP
FFFC
2010
2010
2010
2010
2010
2010
2010
2010
2010
2010
2010
2010
F87C
ENDCHAR
STARTCHAR 03A1
ENCODING 929
SWIDTH 1000 0
DWIDTH 20 0
BBX 12 14 4 1
BITMAP
FFC0
3060
3030
3010
3010
3030
3060
3FC0
3000
3000
3000
3000
3000
FC00
ENDCHAR
STARTCHAR 03A3
ENCODING 931
SWIDTH 1000 0
DWIDTH 20 0
BBX 12 14 4 1
BITMAP
FFE0
4020
2020
1020
0800
0400
0200
0300
0400
0800
1010
2010
4030
FFF0
ENDCHAR
STARTCHAR 03A4
ENCODING 932
SWIDTH 1000 0
DWIDTH 20 0
BBX 13 14 4 1
BITMAP
FFF8
8618
0608
0608
0600
0600
0600
0600
0600
0600
0600
0600
0600
1F80
ENDCHAR
STARTCHAR 03A5
ENCODING 933
SWIDTH 1000 0
DWIDTH 20 0
BBX 14 14 3 1
BITMAP
3CF0
6498
4308
8308
8304
0300
0300
0300
0300
0300
0300
0300
0300
0FC0
ENDCHAR
STARTCHAR 03A6
ENCODING 934
SWIDTH 1000 0
DWIDTH 20 0
BBX 14 14 3 1
BITMAP
0F80
0300
0FC0
3330
6318
4308
C30C
C30C
4308
6318
3330
0FC0
0300
0F80
ENDCHAR
STARTCHAR 03A7
ENCODING 935
SWIDTH 1000 0
DWIDTH 20 0
BBX 15 14 3 1
BITMAP
FC7C
3020
1840
0840
0C80
0700
0300
0300
0480
08C0
1060
2030
2018
F87E
ENDCHAR
STARTCHAR 03A8
ENCODING 936
SWIDTH 1000 0
DWIDTH 20 0
BBX 16 14 2 1
BITMAP
63C6
B18D
1188
1188
1188
1188
1188
1188
0990
05A0
03C0
0180
0180
07E0
ENDCHAR
STARTCHAR 03A9
ENCODING 937
SWIDTH 1000 0
DWIDTH 20 0
BBX 12 14 4 1
BITMAP
1F80
30C0
6060
C030
C030
8010
8010
C030
C030
4020
6060
9090
8910
F9F0
ENDCHAR
STARTCHAR 03B1
ENCODING 945
SWIDTH 1000 0
DWIDTH 20 0
BBX 12 9 4 1
BITMAP
0F20
1940
3140
6180
4180
4100
C300
4590
78E0
ENDCHAR
STARTCHAR 03B2
ENCODING 946
SWIDTH 1000 0
DWIDTH 20 0
BBX 10 17 4 -2
BITMAP
0780
0CC0
0840
1040
1040
2080
2F00
2100
2080
2080
4080
4180
4300
7E00
4000
C000
C000
ENDCHAR
STARTCHAR 03B3
ENCODING 947
SWIDTH 1000 0
DWIDTH 20 0
BBX 11 12 4 -2
BITMAP
7060
8840
0880
0880
0500
0600
0600
0400
0400
0400
0C00
0C00
ENDCHAR
STARTCHAR 03B4
ENCODING 948
SWIDTH 1000 0
DWIDTH 20 0
BBX 9 14 5 1
BITMAP
1E00
2380
2080
1000
0C00
0E00
3100
6180
4180
C180
C100
C300
4600
3C00
ENDCHAR
STARTCHAR 03B5
ENCODING 949
SWIDTH 1000 0
DWIDTH 20 0
BBX 9 9 5 1
BITMAP
1E00
2180
4000
2000
3C00
4000
C000
6080
3F00
ENDCHAR
STARTCHAR 03B6
ENCODING 950
SWIDTH 1000 0
DWIDTH 20 0
BBX 9 17 5 -2
BITMAP
1980
2300
3600
0800
1000
2000
6000
4000
C000
8000
8000
C000
6000
1C00
0200
1300
1E00
ENDCHAR
STARTCHAR 03B7
ENCODING 951
SWIDTH 1000 0
DWIDTH 20 0
BBX 10 12 4 -2
BITMAP
7380
9C40
1840
10C0
1080
3080
2080
2180
6100
0100
0100
0300
ENDCHAR
STARTCHAR 03B8
ENCODING 952
SWIDTH 1000 0
DWIDTH 20 0
BBX 9 14 5 1
BITMAP
0F00
1980
3080
2080
6080
4080
7F80
C080
C180
C100
C300
4200
4400
3800
ENDCHAR
STARTCHAR 03B9
ENCODING 953
SWIDTH 1000 0
DWIDTH 20 0
BBX 5 9 7 1
BITMAP
30
20
40
40
C0
80
80
88
70
ENDCHAR
STARTCHAR 03BA
ENCODING 954
SWIDTH 1000 0
DWIDTH 20 0
BBX 10 9 5 1
BITMAP
10C0
3300
2400
3800
7C00
4400
4400
C4C0
8700
ENDCHAR
STARTCHAR 03BB
ENCODING 955
SWIDTH 1000 0
DWIDTH 20 0
BBX 11 14 4 1
BITMAP
0C00
1200
0200
0200
0200
0200
0600
0600
0A00
1A00
1200
2220
6340
C1C0
ENDCHAR
STARTCHAR 03BC
ENCODING 956
SWIDTH 1000 0
DWIDTH 20 0
BBX 12 13 4 -2
BITMAP
1040
1840
10C0
2080
2080
2080
6100
6110
6320
5CC0
8000
8000
8000
ENDCHAR
STARTCHAR 03BD
ENCODING 957
SWIDTH 1000 0
DWIDTH 20 0
BBX 10 10 5 0
BITMAP
60C0
B0C0
1040
1040
1080
1180
3300
2E00
3800
2000
ENDCHAR
STARTCHAR 03BE
ENCODING 958
SWIDTH 1000 0
DWIDTH 20 0
BBX 8 18 6 -2
BITMAP
20
27
3C
10
20
20
20
2E
3E
40
80
80
80
60
1C
04
64
38
ENDCHAR
STARTCHAR 03BF
ENCODING 959
SWIDTH 1000 0
DWIDTH 20 0
BBX 8 9 6 1
BITMAP
1E
63
41
C1
81
81
C3
46
3C
ENDCHAR
STARTCHAR 03C0
ENCODING 960
SWIDTH 1000 0
DWIDTH 20 0
BBX 10 10 5 1
BITMAP
0040
7FC0
9200
1200
2200
2400
2400
6480
46C0
C380
ENDCHAR
STARTCHAR 03C1
ENCODING 961
SWIDTH 1000 0
DWIDTH 20 0
BBX 10 12 4 -2
BITMAP
0780
18C0
1040
3040
2040
30C0
5180
4F00
4000
4000
C000
C000
ENDCHAR
STARTCHAR 03C2
ENCODING 962
SWIDTH 500 0
DWIDTH 10 0
BBX 8 12 1 -2
BITMAP
3E
61
43
43
40
40
20
18
0C
04
CC
78
ENDCHAR
STARTCHAR 03C3
ENCODING 963
SWIDTH 1000 0
DWIDTH 20 0
BBX 10 10 6 1
BITMAP
1FC0
6200
4100
C100
8100
8100
8100
C300
4600
3C00
ENDCHAR
STARTCHAR 03C4
ENCODING 964
SWIDTH 1000 0
DWIDTH 20 0
BBX 10 10 5 1
BITMAP
0040
7FC0
8800
0800
1000
1000
1000
3000
3300
1C00
ENDCHAR
STARTCHAR 03C5
ENCODING 965
SWIDTH 1000 0
DWIDTH 20 0
BBX 11 9 4 1
BITMAP
70C0
90C0
1040
1060
2040
2040
2040
3180
1E00
ENDCHAR
STARTCHAR 03C6
ENCODING 966
SWIDTH 1000 0
DWIDTH 20 0
BBX 10 16 5 -2
BITMAP
0300
0200
0200
0200
3D80
44C0
C440
8840
8840
8840
88C0
5180
3E00
1000
1000
3000
ENDCHAR
STARTCHAR 03C7
ENCODING 967
SWIDTH 1000 0
DWIDTH 20 0
BBX 11 12 4 -2
BITMAP
3860
48C0
0480
0500
0600
0600
0400
0A00
1A00
3220
2240
C1C0
ENDCHAR
STARTCHAR 03C8
ENCODING 968
SWIDTH 1000 0
DWIDTH 20 0
BBX 11 16 5 -2
BITMAP
0300
0300
0200
1280
2240
4440
8460
8460
8460
8840
88C0
4980
3E00
1000
1000
3000
ENDCHAR
STARTCHAR 03C9
ENCODING 969
SWIDTH 1000 0
DWIDTH 20 0
BBX 12 10 4 1
BITMAP
1020
2020
6010
4210
8210
8210
8610
8430
C660
7BC0
ENDCHAR
STARTCHAR 0401
ENCODING 1025
SWIDTH 1000 0
DWIDTH 20 0
BBX 12 17 4 1
BITMAP
30C0
30C0
0000
FFE0
6020
2020
2020
2080
2080
3F80
2080
2080
2000
2010
2010
6030
FFF0
ENDCHAR
STARTCHAR 0410
ENCODING 1040
SWIDTH 1000 0
DWIDTH 20 0
BBX 16 15 2 1
BITMAP
0100
0180
0180
02C0
0240
0440
0460
0420
0830
0FF0
1010
1018
2008
200C
F83F
ENDCHAR
STARTCHAR 0411
ENCODING 1041
SWIDTH 1000 0
DWIDTH 20 0
BBX 12 14 4 1
BITMAP
FFE0
2020
2020
2020
2000
2000
3FC0
2060
2030
2030
2030
2030
2060
FFC0
ENDCHAR
STARTCHAR 0412
ENCODING 1042
SWIDTH 1000 0
DWIDTH 20 0
BBX 12 14 4 1
BITMAP
FF80
20E0
2060
2020
2060
20C0
3F00
20E0
2030
2030
2030
2030
2060
FFC0
ENDCHAR
STARTCHAR 0413
ENCODING 1043
SWIDTH 1000 0
DWIDTH 20 0
BBX 12 14 4 1
BITMAP
FFF0
3030
2010
2010
2000
2000
2000
2000
2000
2000
2000
2000
2000
F800
ENDCHAR
STARTCHAR 0414
ENCODING 1044
SWIDTH 1000 0
DWIDTH 20 0
BBX 14 16 3 -1
BITMAP
3FFC
0830
0830
0830
0830
0830
1030
1030
1030
1030
2030
2030
4030
FFFC
8004
8004
ENDCHAR
STARTCHAR 0415
ENCODING 1045
SWIDTH 1000 0
DWIDTH 20 0
BBX 12 14 4 1
BITMAP
FFE0
6020
2020
2020
2080
2080
3F80
2080
2080
2000
2010
2010
6030
FFF0
ENDCHAR
STARTCHAR 0416
ENCODING 1046
SWIDTH 1000 0
DWIDTH 20 0
BBX 18 14 1 1
BITMAP
71E380
70C380
10C400
08C400
08C400
04C800
03F000
06D800
04C800
08C400
18C600
10C200
20C100
F1E3C0
ENDCHAR
STARTCHAR 0417
ENCODING 1047
SWIDTH 1000 0
DWIDTH 20 0
BBX 10 14 5 1
BITMAP
1F00
6180
40C0
00C0
00C0
0180
1E00
0180
00C0
0040
8040
8040
E080
3F00
ENDCHAR
STARTCHAR 0418
ENCODING 1048
SWIDTH 1000 0
DWIDTH 20 0
BBX 14 14 3 1
BITMAP
F87C
2010
2010
2030
2050
2090
2110
2210
2C10
3010
2010
2010
2010
F87C
ENDCHAR
STARTCHAR 0419
ENCODING 1049
SWIDTH 1000 0
DWIDTH 20 0
BBX 14 16 3 1
BITMAP
0CC0
0780
F87C
2010
2010
2030
2050
2090
2110
2210
2C10
3010
2010
2010
2010
F87C
ENDCHAR
STARTCHAR 041A
ENCODING 1050
SWIDTH 1000 0
DWIDTH 20 0
BBX 15 14 3 1
BITMAP
F838
2058
2058
2080
2080
2300
3F00
2100
2180
20C0
2060
2030
2018
F87E
ENDCHAR
STARTCHAR 041B
ENCODING 1051
SWIDTH 1000 0
DWIDTH 20 0
BBX 15 14 2 1
BITMAP
0FFE
0218
0208
0208
0208
0208
0208
0208
0208
0408
E408
E408
8C08
783E
ENDCHAR
STARTCHAR 041C
ENCODING 1052
SWIDTH 1000 0
DWIDTH 20 0
BBX 18 14 1 1
BITMAP
780780
1C0A00
140A00
141200
161200
121200
232200
232200
214200
21C300
20C300
208300
200300
F80FC0
ENDCHAR
STARTCHAR 041D
ENCODING 1053
SWIDTH 1000 0
DWIDTH 20 0
BBX 14 14 3 1
BITMAP
F87C
2010
2010
2010
2010
2010
3FF0
2010
2010
2010
2010
2010
2010
F87C
ENDCHAR
STARTCHAR 041E
ENCODING 1054
SWIDTH 1000 0
DWIDTH 20 0
BBX 14 14 3 1
BITMAP
0FC0
1860
3030
6018
4008
4008
C00C
C00C
400C
4008
6018
3010
1820
0FC0
ENDCHAR
STARTCHAR 041F
ENCODING 1055
SWIDTH 1000 0
DWIDTH 20 0
BBX 14 14 3 1
BITMAP
FFFC
2010
2010
2010
2010
2010
2010
2010
2010
2010
2010
2010
2010
F87C
ENDCHAR
STARTCHAR 0420
ENCODING 1056
SWIDTH 1000 0
DWIDTH 20 0
BBX 12 14 4 1
BITMAP
FFC0
3060
3030
3010
3010
3030
3060
3FC0
3000
3000
3000
3000
3000
FC00
ENDCHAR
STARTCHAR 0421
ENCODING 1057
SWIDTH 1000 0
DWIDTH 20 0
BBX 13 14 3 1
BITMAP
07E0
1818
3008
6008
6000
4000
4000
C000
4000
6008
6008
3008
1818
07F0
ENDCHAR
STARTCHAR 0422
ENCODING 1058
SWIDTH 1000 0
DWIDTH 20 0
BBX 13 14 4 1
BITMAP
FFF8
8618
0608
0608
0600
0600
0600
0600
0600
0600
0600
0600
0600
1F80
ENDCHAR
STARTCHAR 0423
ENCODING 1059
SWIDTH 1000 0
DWIDTH 20 0
BBX 14 14 3 1
BITMAP
FC7C
3010
1820
0820
0C40
0440
0680
0280
0380
0100
0100
6200
6400
3800
ENDCHAR
STARTCHAR 0424
ENCODING 1060
SWIDTH 1000 0
DWIDTH 20 0
BBX 14 14 3 1
BITMAP
0F80
0300
0FC0
3330
6318
4308
C30C
C30C
4308
6318
3330
0FC0
0300
0F80
ENDCHAR
STARTCHAR 0425
ENCODING 1061
SWIDTH 1000 0
DWIDTH 20 0
BBX 15 14 3 1
BITMAP
FC7C
3020
1840
0840
0C80
0700
0300
0300
0480
08C0
1060
2030
2018
F87E
ENDCHAR
STARTCHAR 0426
ENCODING 1062
SWIDTH 1000 0
DWIDTH 20 0
BBX 14 16 3 -1
BITMAP
F87C
2030
2030
2030
2030
2030
2030
2030
2030
2030
2030
2030
6030
FFFC
0004
0004
ENDCHAR
STARTCHAR 0427
ENCODING 1063
SWIDTH 1000 0
DWIDTH 20 0
BBX 13 14 3 1
BITMAP
F8F8
2030
2030
2030
2030
2030
3030
1070
0FB0
0030
0030
0030
0030
00F8
ENDCHAR
STARTCHAR 0428
ENCODING 1064
SWIDTH 1000 0
DWIDTH 20 0
BBX 18 14 1 1
BITMAP
F9E7C0
30C300
30C300
30C300
30C300
30C300
30C300
30C300
30C300
30C300
30C300
30C300
30C300
FFFFC0
ENDCHAR
STARTCHAR 0429
ENCODING 1065
SWIDTH 1000 0
DWIDTH 20 0
BBX 18 16 1 -1
BITMAP
FBEF80
30C200
308200
308200
308200
308200
308200
308200
308200
308200
308200
308200
30C300
FFFFC0
0000C0
000040
ENDCHAR
STARTCHAR 042A
ENCODING 1066
SWIDTH 1000 0
DWIDTH 20 0
BBX 15 14 3 1
BITMAP
FF00
8C00
8C00
8C00
0C00
0C00
0FF0
0C1C
0C04
0C06
0C06
0C04
0C1C
3FF0
ENDCHAR
STARTCHAR 042B
ENCODING 1067
SWIDTH 1000 0
DWIDTH 20 0
BBX 16 14 2 1
BITMAP
F81F
2004
2004
2004
2004
2004
3F84
20C4
2064
2024
2024
2064
60C6
FF9F
ENDCHAR
STARTCHAR 042C
ENCODING 1068
SWIDTH 1000 0
DWIDTH 20 0
BBX 12 14 4 1
BITMAP
F800
2000
2000
2000
2000
2000
3FC0
2060
2030
2010
2010
2030
2060
FFC0
ENDCHAR
STARTCHAR 042D
ENCODING 1069
SWIDTH 1000 0
DWIDTH 20 0
BBX 13 14 4 1
BITMAP
3F00
C1C0
8060
8030
0030
0010
3E10
43F8
0010
8010
8030
8060
C0C0
7F00
ENDCHAR
STARTCHAR 042E
ENCODING 1070
SWIDTH 1000 0
DWIDTH 20 0
BBX 16 14 2 1
BITMAP
F8F8
618C
6306
6203
6603
6603
7E01
6601
6603
6603
6203
6306
618C
F8F8
ENDCHAR
STARTCHAR 042F
ENCODING 1071
SWIDTH 1000 0
DWIDTH 20 0
BBX 13 14 3 1
BITMAP
0FF8
3830
3030
2030
3030
3830
0FF0
0630
0630
0C30
0830
1830
2030
C0F8
ENDCHAR
STARTCHAR 0430
ENCODING 1072
SWIDTH 1000 0
DWIDTH 20 0
BBX 10 9 6 1
BITMAP
7C00
C600
C200
0200
3E00
C200
8200
8200
FFC0
ENDCHAR
STARTCHAR 0431
ENCODING 1073
SWIDTH 1000 0
DWIDTH 20 0
BBX 10 14 5 1
BITMAP
0040
0F80
3F00
6000
4000
5E00
A180
C080
C0C0
C0C0
C0C0
4080
6180
1E00
ENDCHAR
STARTCHAR 0432
ENCODING 1074
SWIDTH 1000 0
DWIDTH 20 0
BBX 9 9 5 1
BITMAP
FF00
4180
4180
4100
7F00
4180
4080
4180
FE00
ENDCHAR
STARTCHAR 0433
ENCODING 1075
SWIDTH 1000 0
DWIDTH 20 0
BBX 10 9 5 1
BITMAP
FFC0
20C0
2040
2040
2000
2000
2000
2000
F800
ENDCHAR
STARTCHAR 0434
ENCODING 1076
SWIDTH 1000 0
DWIDTH 20 0
BBX 12 11 4 -1
BITMAP
3FE0
08C0
10C0
10C0
10C0
10C0
20C0
40C0
FFF0
8010
8010
ENDCHAR
STARTCHAR 0435
ENCODING 1077
SWIDTH 1000 0
DWIDTH 20 0
BBX 9 9 5 1
BITMAP
1E00
6180
4080
FF80
C000
C000
4080
6180
1E00
ENDCHAR
STARTCHAR 0436
ENCODING 1078
SWIDTH 1000 0
DWIDTH 20 0
BBX 16 9 2 1
BITMAP
63C6
718E
0990
05A0
0BD0
1998
1188
218C
FBDF
ENDCHAR
STARTCHAR 0437
ENCODING 1079
SWIDTH 1000 0
DWIDTH 20 0
BBX 8 9 6 1
BITMAP
7C
C2
83
02
3C
03
81
81
FE
ENDCHAR
STARTCHAR 0438
ENCODING 1080
SWIDTH 1000 0
DWIDTH 20 0
BBX 12 9 4 1
BITMAP
F9F0
2040
21C0
2240
2440
2840
3040
2040
F9F0
ENDCHAR
STARTCHAR 0439
ENCODING 1081
SWIDTH 1000 0
DWIDTH 20 0
BBX 12 12 4 1
BITMAP
1980
0F00
0000
F9F0
2040
21C0
2240
2440
2840
3040
2040
F9F0
ENDCHAR
STARTCHAR 043A
ENCODING 1082
SWIDTH 1000 0
DWIDTH 20 0
BBX 11 9 5 1
BITMAP
F0C0
6140
6200
6400
7E00
6300
6100
6080
F3E0
ENDCHAR
STARTCHAR 043B
ENCODING 1083
SWIDTH 1000 0
DWIDTH 20 0
BBX 12 9 3 1
BITMAP
1FF0
0460
0460
0460
0460
0460
C860
C860
70F0
ENDCHAR
STARTCHAR 043C
ENCODING 1084
SWIDTH 1000 0
DWIDTH 20 0
BBX 14 9 3 1
BITMAP
F03C
3050
2850
2890
2C90
2510
2710
2310
F27C
ENDCHAR
STARTCHAR 043D
ENCODING 1085
SWIDTH 1000 0
DWIDTH 20 0
BBX 12 9 4 1
BITMAP
F9F0
2040
2040
2040
3FC0
2040
2040
2040
F9F0
ENDCHAR
STARTCHAR 043E
ENCODING 1086
SWIDTH 1000 0
DWIDTH 20 0
BBX 10 9 5 1
BITMAP
1E00
6180
4080
C0C0
C0C0
C0C0
4080
6180
1E00
ENDCHAR
STARTCHAR 043F
ENCODING 1087
SWIDTH 1000 0
DWIDTH 20 0
BBX 12 9 4 1
BITMAP
FFF0
2040
2040
2040
2040
2040
2040
2040
F9F0
ENDCHAR
STARTCHAR 0440
ENCODING 1088
SWIDTH 1000 0
DWIDTH 20 0
BBX 10 12 5 -2
BITMAP
DF00
6180
60C0
60C0
60C0
60C0
6180
7F00
6000
6000
6000
F000
ENDCHAR
STARTCHAR 0441
ENCODING 1089
SWIDTH 1000 0
DWIDTH 20 0
BBX 9 9 5 1
BITMAP
1F00
3180
6180
C000
C000
C000
4000
6080
1F00
ENDCHAR
STARTCHAR 0442
ENCODING 1090
SWIDTH 1000 0
DWIDTH 20 0
BBX 10 9 5 1
BITMAP
FFC0
CCC0
8C40
0C00
0C00
0C00
0C00
0C00
1E00
ENDCHAR
STARTCHAR 0443
ENCODING 1091
SWIDTH 1000 0
DWIDTH 20 0
BBX 12 12 4 -2
BITMAP
F8F0
3040
1040
1880
0880
0500
0700
0200
0200
3400
3400
3800
ENDCHAR
STARTCHAR 0444
ENCODING 1092
SWIDTH 1000 0
DWIDTH 20 0
BBX 12 17 4 -2
BITMAP
0E00
0600
0600
0600
0600
3FC0
4660
4630
C630
C630
4630
6660
3FC0
0600
0600
0600
0F00
ENDCHAR
STARTCHAR 0445
ENCODING 1093
SWIDTH 1000 0
DWIDTH 20 0
BBX 12 9 4 1
BITMAP
F9E0
1080
0900
0600
0600
0B00
1180
20C0
F1F0
ENDCHAR
STARTCHAR 0446
ENCODING 1094
SWIDTH 1000 0
DWIDTH 20 0
BBX 12 11 4 -1
BITMAP
F9E0
20C0
20C0
20C0
20C0
20C0
20C0
20C0
FFF0
0030
0010
ENDCHAR
STARTCHAR 0447
ENCODING 1095
SWIDTH 1000 0
DWIDTH 20 0
BBX 11 9 4 1
BITMAP
F9E0
20C0
20C0
20C0
30C0
1FC0
00C0
00C0
01E0
ENDCHAR
STARTCHAR 0448
ENCODING 1096
SWIDTH 1000 0
DWIDTH 20 0
BBX 16 9 2 1
BITMAP
FBDF
2184
2184
2184
2184
2184
2184
2184
FFFF
ENDCHAR
STARTCHAR 0449
ENCODING 1097
SWIDTH 1000 0
DWIDTH 20 0
BBX 16 11 2 -1
BITMAP
FBDF
2184
2184
2184
2184
2184
2184
2184
FFFF
0001
0001
ENDCHAR
STARTCHAR 044A
ENCODING 1098
SWIDTH 1000 0
DWIDTH 20 0
BBX 12 9 4 1
BITMAP
FC00
9800
1800
1800
1FC0
1820
1830
1820
3FC0
ENDCHAR
STARTCHAR 044B
ENCODING 1099
SWIDTH 1000 0
DWIDTH 20 0
BBX 14 9 3 1
BITMAP
F87C
2010
2010
2010
3F10
2090
20D0
2090
FF7C
ENDCHAR
STARTCHAR 044C
ENCODING 1100
SWIDTH 1000 0
DWIDTH 20 0
BBX 10 9 5 1
BITMAP
F800
2000
2000
2000
3F80
20C0
20C0
20C0
FF80
ENDCHAR
STARTCHAR 044D
ENCODING 1101
SWIDTH 1000 0
DWIDTH 20 0
BBX 10 9 5 1
BITMAP
3E00
4180
80C0
00C0
3FC0
40C0
0080
8180
7E00
ENDCHAR
STARTCHAR 044E
ENCODING 1102
SWIDTH 1000 0
DWIDTH 20 0
BBX 14 9 3 1
BITMAP
F1F0
6318
660C
6404
7C04
6404
660C
6318
F1F0
ENDCHAR
STARTCHAR 044F
ENCODING 1103
SWIDTH 1000 0
DWIDTH 20 0
BBX 10 9 5 1
BITMAP
3FC0
6180
4180
6180
3F80
1980
1180
2180
C3C0
ENDCHAR
STARTCHAR 0451
ENCODING 1105
SWIDTH 1000 0
DWIDTH 20 0
BBX 9 13 5 1
BITMAP
2100
3300
0000
0000
1E00
6180
4080
FF80
C000
C000
4080
6180
1E00
ENDCHAR
STARTCHAR 1E3E
ENCODING 7742
SWIDTH 500 0
DWIDTH 10 0
BBX 10 16 0 1
BITMAP
0700
0800
E1C0
6180
6280
7280
5280
5280
5480
5480
5C80
4C80
4C80
4880
4880
EBC0
ENDCHAR
STARTCHAR 1E3F
ENCODING 7743
SWIDTH 500 0
DWIDTH 10 0
BBX 10 13 0 1
BITMAP
0700
0800
0000
4000
DB00
6C80
4C80
4C80
4C80
4C80
4C80
4C80
EDC0
ENDCHAR
STARTCHAR 1F70
ENCODING 8048
SWIDTH 500 0
DWIDTH 10 0
BBX 8 14 1 0
BITMAP
70
08
00
02
3A
66
42
C2
C2
C2
C2
46
6B
3B
ENDCHAR
STARTCHAR 1F71
ENCODING 8049
SWIDTH 500 0
DWIDTH 10 0
BBX 8 14 1 0
BITMAP
0E
10
00
02
3A
66
42
C2
C2
C2
C2
46
6B
3B
ENDCHAR
STARTCHAR 1F72
ENCODING 8050
SWIDTH 500 0
DWIDTH 10 0
BBX 7 14 2 0
BITMAP
E0
10
00
00
7C
C4
84
C0
38
C0
82
82
C6
78
ENDCHAR
STARTCHAR 1F73
ENCODING 8051
SWIDTH 500 0
DWIDTH 10 0
BBX 7 14 2 0
BITMAP
1C
20
00
00
7C
C4
84
C0
38
C0
82
82
C6
78
ENDCHAR
STARTCHAR 2010
ENCODING 8208
SWIDTH 1000 0
DWIDTH 20 0
BBX 6 1 7 7
BITMAP
FC
ENDCHAR
STARTCHAR 2013
ENCODING 8211
SWIDTH 500 0
DWIDTH 10 0
BBX 4 1 3 7
BITMAP
F0
ENDCHAR
STARTCHAR 2014
ENCODING 8212
SWIDTH 1000 0
DWIDTH 20 0
BBX 18 1 1 7
BITMAP
FFFFC0
ENDCHAR
STARTCHAR 2015
ENCODING 8213
SWIDTH 1000 0
DWIDTH 20 0
BBX 18 1 1 7
BITMAP
FFFFC0
ENDCHAR
STARTCHAR 2016
ENCODING 8214
SWIDTH 1000 0
DWIDTH 20 0
BBX 4 20 8 -2
BITMAP
90
90
90
90
90
90
90
90
90
90
90
90
90
90
90
90
90
90
90
90
ENDCHAR
STARTCHAR 2018
ENCODING 8216
SWIDTH 1000 0
DWIDTH 20 0
BBX 2 6 16 11
BITMAP
40
40
80
C0
C0
C0
ENDCHAR
STARTCHAR 2019
ENCODING 8217
SWIDTH 1000 0
DWIDTH 20 0
BBX 2 6 2 11
BITMAP
C0
C0
C0
40
80
80
ENDCHAR
STARTCHAR 201C
ENCODING 8220
SWIDTH 1000 0
DWIDTH 20 0
BBX 6 6 12 11
BITMAP
44
44
88
CC
CC
CC
ENDCHAR
STARTCHAR 201D
ENCODING 8221
SWIDTH 1000 0
DWIDTH 20 0
BBX 6 6 2 11
BITMAP
CC
CC
CC
44
88
90
ENDCHAR
STARTCHAR 2020
ENCODING 8224
SWIDTH 1000 0
DWIDTH 20 0
BBX 8 18 6 -1
BITMAP
18
18
18
DB
FF
F7
18
18
18
18
10
10
10
10
10
10
10
10
ENDCHAR
STARTCHAR 2021
ENCODING 8225
SWIDTH 1000 0
DWIDTH 20 0
BBX 8 19 6 -2
BITMAP
18
18
18
F7
FF
18
18
10
10
10
10
10
18
18
F7
FF
18
18
18
ENDCHAR
STARTCHAR 2022
ENCODING 8226
SWIDTH 500 0
DWIDTH 10 0
BBX 4 4 3 6
BITMAP
60
F0
F0
70
ENDCHAR
STARTCHAR 2025
ENCODING 8229
SWIDTH 1000 0
DWIDTH 20 0
BBX 12 3 4 6
BITMAP
C030
C030
C030
ENDCHAR
STARTCHAR 2026
ENCODING 8230
SWIDTH 1000 0
DWIDTH 20 0
BBX 16 2 2 6
BITMAP
C183
E187
ENDCHAR
STARTCHAR 2030
ENCODING 8240
SWIDTH 1000 0
DWIDTH 20 0
BBX 18 18 1 -1
BITMAP
006000
704000
488000
C88000
8D0000
C90000
4A0000
720000
040000
040000
05C380
0B2480
0A24C0
122C40
1224C0
232480
21C380
400000
ENDCHAR
STARTCHAR 2032
ENCODING 8242
SWIDTH 1000 0
DWIDTH 20 0
BBX 3 5 1 12
BITMAP
60
40
40
80
80
ENDCHAR
STARTCHAR 2033
ENCODING 8243
SWIDTH 1000 0
DWIDTH 20 0
BBX 6 5 1 12
BITMAP
6C
48
48
90
90
ENDCHAR
STARTCHAR 203B
ENCODING 8251
SWIDTH 1000 0
DWIDTH 20 0
BBX 16 16 2 0
BITMAP
8182
C183
6186
300C
1818
0C30
0660
E3C7
E187
E3C7
0660
0C30
1818
318C
6186
C183
ENDCHAR
STARTCHAR 203C
ENCODING 8252
SWIDTH 500 0
DWIDTH 10 0
BBX 6 17 2 -1
BITMAP
CC
CC
CC
CC
CC
CC
CC
CC
CC
84
88
88
00
00
00
CC
CC
ENDCHAR
STARTCHAR 203E
ENCODING 8254
SWIDTH 1000 0
DWIDTH 20 0
BBX 20 1 0 17
BITMAP
FFFFF0
ENDCHAR
STARTCHAR 203F
ENCODING 8255
SWIDTH 500 0
DWIDTH 10 0
BBX 8 2 1 -2
BITMAP
81
7E
ENDCHAR
STARTCHAR 2042
ENCODING 8258
SWIDTH 500 0
DWIDTH 10 0
BBX 9 11 1 2
BITMAP
3400
1800
1800
3400
1000
0000
4200
DB80
6600
FF00
4280
ENDCHAR
STARTCHAR 2047
ENCODING 8263
SWIDTH 500 0
DWIDTH 10 0
BBX 9 17 1 -1
BITMAP
6700
A500
B980
B980
B580
2100
2100
2200
4200
4200
4200
4200
4200
0000
0000
C600
6600
ENDCHAR
STARTCHAR 2048
ENCODING 8264
SWIDTH 500 0
DWIDTH 10 0
BBX 8 17 1 -1
BITMAP
62
93
92
9A
92
12
12
22
22
42
42
42
42
00
00
63
63
ENDCHAR
STARTCHAR 2049
ENCODING 8265
SWIDTH 500 0
DWIDTH 10 0
BBX 8 17 1 -1
BITMAP
4E
D3
51
51
59
43
42
42
44
44
44
44
44
00
00
CC
EC
ENDCHAR
STARTCHAR 2051
ENCODING 8273
SWIDTH 1000 0
DWIDTH 20 0
BBX 6 15 7 0
BITMAP
30
EC
30
68
A4
30
00
00
00
30
A4
78
78
AC
30
ENDCHAR
STARTCHAR 20AC
ENCODING 8364
SWIDTH 500 0
DWIDTH 10 0
BBX 8 15 1 0
BITMAP
1D
33
21
61
60
FC
40
40
FC
40
61
61
22
32
1C
ENDCHAR
STARTCHAR 2103
ENCODING 8451
SWIDTH 1000 0
DWIDTH 20 0
BBX 17 16 1 1
BITMAP
600000
900000
90F900
630700
060300
0C0100
0C0000
080000
080000
080000
080000
0C0180
0C0100
060100
030600
00F800
ENDCHAR
STARTCHAR 210F
ENCODING 8463
SWIDTH 500 0
DWIDTH 10 0
BBX 8 15 1 0
BITMAP
30
50
14
18
60
AE
32
22
42
42
44
44
85
85
06
ENDCHAR
STARTCHAR 2113
ENCODING 8467
SWIDTH 500 0
DWIDTH 10 0
BBX 8 15 1 0
BITMAP
06
0A
12
12
22
22
24
24
68
70
61
61
A2
26
1C
ENDCHAR
STARTCHAR 2116
ENCODING 8470
SWIDTH 1000 0
DWIDTH 20 0
BBX 18 14 1 1
BITMAP
E38000
610000
710000
510000
511C00
492200
492200
4D2300
456300
476300
432300
432200
4122C0
E11CC0
ENDCHAR
STARTCHAR 2121
ENCODING 8481
SWIDTH 1000 0
DWIDTH 20 0
BBX 18 14 1 1
BITMAP
FE0000
920000
920000
100000
13F700
111200
110200
112200
11E200
112200
110200
111240
111240
7FF7C0
ENDCHAR
STARTCHAR 2127
ENCODING 8487
SWIDTH 500 0
DWIDTH 10 0
BBX 8 15 1 0
BITMAP
E7
A9
A5
42
42
C3
81
81
81
81
81
C3
42
66
3C
ENDCHAR
STARTCHAR 212B
ENCODING 8491
SWIDTH 1000 0
DWIDTH 20 0
BBX 14 16 3 1
BITMAP
0300
0480
0480
0300
0300
0500
0580
0480
0880
08C0
1040
1FE0
1060
2020
2030
F07C
ENDCHAR
STARTCHAR 2135
ENCODING 8501
SWIDTH 500 0
DWIDTH 10 0
BBX 8 14 1 1
BITMAP
C4
46
43
63
25
34
58
48
8C
84
82
C2
C1
C2
ENDCHAR
STARTCHAR 2153
ENCODING 8531
SWIDTH 500 0
DWIDTH 10 0
BBX 8 19 1 -2
BITMAP
C1
41
42
42
44
44
48
48
C8
36
19
2D
21
26
41
41
89
89
87
ENDCHAR
STARTCHAR 2154
ENCODING 8532
SWIDTH 500 0
DWIDTH 10 0
BBX 8 18 1 -2
BITMAP
61
A1
92
22
24
44
98
98
F8
17
1D
21
26
41
41
89
89
87
ENDCHAR
STARTCHAR 2155
ENCODING 8533
SWIDTH 500 0
DWIDTH 10 0
BBX 8 19 1 -2
BITMAP
C1
41
42
42
44
44
48
48
C8
37
18
28
2E
29
41
41
89
89
86
ENDCHAR
STARTCHAR 2160
ENCODING 8544
SWIDTH 1000 0
DWIDTH 20 0
BBX 6 14 7 1
BITMAP
FC
30
30
30
30
30
30
30
30
30
30
30
30
FC
ENDCHAR
STARTCHAR 2161
ENCODING 8545
SWIDTH 1000 0
DWIDTH 20 0
BBX 12 14 4 1
BITMAP
FFF0
2040
2040
2040
2040
2040
2040
2040
2040
2040
2040
2040
3040
FFF0
ENDCHAR
STARTCHAR 2162
ENCODING 8546
SWIDTH 1000 0
DWIDTH 20 0
BBX 16 14 2 1
BITMAP
FFFF
2184
2184
2184
2184
2184
2184
2184
2184
2184
2184
2184
2184
FFFF
ENDCHAR
STARTCHAR 2163
ENCODING 8547
SWIDTH 1000 0
DWIDTH 20 0
BBX 17 14 2 1
BITMAP
FFC780
220100
230200
210200
210400
218400
208400
208800
20C800
204800
207000
207000
203000
F82000
ENDCHAR
STARTCHAR 2164
ENCODING 8548
SWIDTH 1000 0
DWIDTH 20 0
BBX 14 14 3 1
BITMAP
F87C
2018
3010
3010
1020
1820
0840
0C40
0C40
0480
0680
0300
0300
0100
ENDCHAR
STARTCHAR 2165
ENCODING 8549
SWIDTH 1000 0
DWIDTH 20 0
BBX 17 14 1 1
BITMAP
F8FF80
602200
202200
304200
104200
104200
188200
088200
088200
0D0200
050200
050200
060200
020F80
ENDCHAR
STARTCHAR 2166
ENCODING 8550
SWIDTH 1000 0
DWIDTH 20 0
BBX 19 14 0 1
BITMAP
F8FFE0
302C80
104C80
104C80
104C80
188C80
088C80
088C80
0D0C80
050C80
050C80
060C80
020C80
021FE0
ENDCHAR
STARTCHAR 2167
ENCODING 8551
SWIDTH 1000 0
DWIDTH 20 0
BBX 18 14 1 1
BITMAP
F3FFC0
40B480
613480
213480
213480
223480
323480
123480
123480
1C3480
0C3480
0C3480
0C3480
087FC0
ENDCHAR
STARTCHAR 2168
ENCODING 8552
SWIDTH 1000 0
DWIDTH 20 0
BBX 17 14 2 1
BITMAP
FFCF00
218400
208400
20C800
205000
207000
202000
205000
205800
208800
208C00
210400
230600
FF8F80
ENDCHAR
STARTCHAR 2169
ENCODING 8553
SWIDTH 1000 0
DWIDTH 20 0
BBX 15 14 3 1
BITMAP
FC7C
3020
1840
0840
0C80
0700
0300
0300
0480
08C0
1060
2030
2018
F87E
ENDCHAR
STARTCHAR 216A
ENCODING 8554
SWIDTH 1000 0
DWIDTH 20 0
BBX 17 14 1 1
BITMAP
7DFF80
104200
188200
088200
0D0200
050200
060200
060200
050200
098200
108200
10C200
204200
F9FF80
ENDCHAR
STARTCHAR 216B
ENCODING 8555
SWIDTH 1000 0
DWIDTH 20 0
BBX 18 14 1 1
BITMAP
FBFFC0
208900
110900
110900
0A0900
0C0900
040900
060900
0A0900
130900
118900
208900
40C900
F1FFC0
ENDCHAR
STARTCHAR 2170
ENCODING 8560
SWIDTH 1000 0
DWIDTH 20 0
BBX 4 14 8 1
BITMAP
60
60
00
00
60
E0
60
60
60
60
60
60
60
F0
ENDCHAR
STARTCHAR 2171
ENCODING 8561
SWIDTH 1000 0
DWIDTH 20 0
BBX 10 14 5 1
BITMAP
6180
6180
0000
0000
6180
E380
6080
6080
6080
6080
6080
6080
6080
F3C0
ENDCHAR
STARTCHAR 2172
ENCODING 8562
SWIDTH 1000 0
DWIDTH 20 0
BBX 14 14 3 1
BITMAP
6318
6318
0000
0000
E738
6318
6318
6318
6318
6318
6318
6318
6318
FFFC
ENDCHAR
STARTCHAR 2173
ENCODING 8563
SWIDTH 1000 0
DWIDTH 20 0
BBX 15 14 3 1
BITMAP
6000
6000
0000
0000
2000
EF9E
2208
2308
2110
2190
2090
20A0
2060
F840
ENDCHAR
STARTCHAR 2174
ENCODING 8564
SWIDTH 1000 0
DWIDTH 20 0
BBX 12 9 4 1
BITMAP
F8F0
2040
1080
1080
1900
0900
0D00
0600
0600
ENDCHAR
STARTCHAR 2175
ENCODING 8565
SWIDTH 1000 0
DWIDTH 20 0
BBX 15 14 2 1
BITMAP
000C
000C
0000
0000
0004
F1FC
208C
208C
310C
110C
1A0C
0A0C
0C0C
041E
ENDCHAR
STARTCHAR 2176
ENCODING 8566
SWIDTH 1000 0
DWIDTH 20 0
BBX 18 14 1 1
BITMAP
001980
001980
000000
000000
000900
F9FB00
209900
309900
111900
111900
0A1900
0A1900
0C1900
043FC0
ENDCHAR
STARTCHAR 2177
ENCODING 8567
SWIDTH 1000 0
DWIDTH 20 0
BBX 18 14 1 1
BITMAP
006D80
006D80
000000
000000
002480
F3FF80
60A480
212480
212480
122480
122480
1C2480
0C2480
08FFC0
ENDCHAR
STARTCHAR 2178
ENCODING 8568
SWIDTH 1000 0
DWIDTH 20 0
BBX 15 14 3 1
BITMAP
6000
6000
0000
0000
2000
E79C
2190
2090
2060
2060
20A0
2110
2208
FF3E
ENDCHAR
STARTCHAR 2179
ENCODING 8569
SWIDTH 1000 0
DWIDTH 20 0
BBX 12 9 4 1
BITMAP
F9E0
1080
0900
0600
0600
0B00
1180
20C0
F1F0
ENDCHAR
STARTCHAR 217A
ENCODING 8570
SWIDTH 1000 0
DWIDTH 20 0
BBX 15 14 2 1
BITMAP
000C
000C
0000
0000
0004
7BDC
110C
1A0C
0C0C
040C
0A0C
130C
218C
F3FE
ENDCHAR
STARTCHAR 217B
ENCODING 8571
SWIDTH 1000 0
DWIDTH 20 0
BBX 18 14 1 1
BITMAP
001980
001980
000000
000000
000900
7BFB00
111900
0A1900
0C1900
0E1900
121900
111900
219900
F3FFC0
ENDCHAR
STARTCHAR 2190
ENCODING 8592
SWIDTH 1000 0
DWIDTH 20 0
BBX 18 7 1 4
BITMAP
0C0000
100000
600000
FFFFC0
600000
100000
0C0000
ENDCHAR
STARTCHAR 2191
ENCODING 8593
SWIDTH 1000 0
DWIDTH 20 0
BBX 7 18 7 -1
BITMAP
20
30
78
EC
A4
22
20
20
20
20
20
20
20
20
20
20
20
20
ENDCHAR
STARTCHAR 2192
ENCODING 8594
SWIDTH 1000 0
DWIDTH 20 0
BBX 18 7 1 4
BITMAP
000C00
000200
000180
FFFFC0
000180
000200
000C00
ENDCHAR
STARTCHAR 2193
ENCODING 8595
SWIDTH 1000 0
DWIDTH 20 0
BBX 7 18 7 -2
BITMAP
20
20
20
20
20
20
20
20
20
20
20
20
22
A4
EC
78
30
20
ENDCHAR
STARTCHAR 2194
ENCODING 8596
SWIDTH 500 0
DWIDTH 10 0
BBX 9 7 1 4
BITMAP
6600
4200
8100
FF80
8100
4200
6600
ENDCHAR
STARTCHAR 2196
ENCODING 8598
SWIDTH 500 0
DWIDTH 10 0
BBX 8 15 1 0
BITMAP
20
78
56
52
90
88
08
08
04
04
04
02
02
01
01
ENDCHAR
STARTCHAR 2197
ENCODING 8599
SWIDTH 500 0
DWIDTH 10 0
BBX 8 15 1 0
BITMAP
04
1E
6A
4A
09
11
10
10
20
20
20
40
40
80
80
ENDCHAR
STARTCHAR 2198
ENCODING 8600
SWIDTH 500 0
DWIDTH 10 0
BBX 8 15 1 0
BITMAP
80
40
40
40
20
20
20
10
12
11
09
4A
36
1C
04
ENDCHAR
STARTCHAR 2199
ENCODING 8601
SWIDTH 500 0
DWIDTH 10 0
BBX 8 15 1 0
BITMAP
01
02
02
02
04
04
04
08
88
88
90
52
6C
38
20
ENDCHAR
STARTCHAR 21C4
ENCODING 8644
SWIDTH 500 0
DWIDTH 10 0
BBX 8 15 1 0
BITMAP
18
04
02
FF
02
04
08
10
18
20
40
FF
40
20
18
ENDCHAR
STARTCHAR 21D2
ENCODING 8658
SWIDTH 1000 0
DWIDTH 20 0
BBX 18 11 1 2
BITMAP
001000
000C00
000600
FFFF00
000180
0000C0
000180
FFFF00
000600
000C00
001000
ENDCHAR
STARTCHAR 21D4
ENCODING 8660
SWIDTH 1000 0
DWIDTH 20 0
BBX 18 11 1 2
BITMAP
041000
0C0C00
180600
3FFF00
600180
C000C0
600180
3FFF00
180600
0C0C00
041000
ENDCHAR
STARTCHAR 21E6
ENCODING 8678
SWIDTH 500 0
DWIDTH 10 0
BBX 8 6 1 5
BITMAP
10
70
5F
81
5E
30
ENDCHAR
STARTCHAR 21E7
ENCODING 8679
SWIDTH 500 0
DWIDTH 10 0
BBX 6 16 2 0
BITMAP
20
30
50
88
84
CC
50
50
50
50
50
50
50
50
50
70
ENDCHAR
STARTCHAR 21E8
ENCODING 8680
SWIDTH 500 0
DWIDTH 10 0
BBX 8 6 1 5
BITMAP
08
0C
FA
81
7A
0C
ENDCHAR
STARTCHAR 21E9
ENCODING 8681
SWIDTH 500 0
DWIDTH 10 0
BBX 6 16 2 -1
BITMAP
70
50
50
50
50
50
50
50
50
50
CC
88
88
50
30
20
ENDCHAR
STARTCHAR 2200
ENCODING 8704
SWIDTH 1000 0
DWIDTH 20 0
BBX 18 17 1 -1
BITMAP
800040
400080
400100
200100
200200
100200
0FFC00
080400
040800
040800
021000
021000
012000
012000
00C000
00C000
008000
ENDCHAR
STARTCHAR 2202
ENCODING 8706
SWIDTH 1000 0
DWIDTH 20 0
BBX 10 15 5 0
BITMAP
0F00
1180
0080
00C0
00C0
00C0
1EC0
21C0
4080
4080
C180
C180
4300
6600
3C00
ENDCHAR
STARTCHAR 2203
ENCODING 8707
SWIDTH 1000 0
DWIDTH 20 0
BBX 14 15 3 0
BITMAP
FFFC
0004
0004
0004
0004
0004
0004
FFFC
0004
0004
0004
0004
0004
0004
FFFC
ENDCHAR
STARTCHAR 2205
ENCODING 8709
SWIDTH 500 0
DWIDTH 10 0
BBX 8 11 1 2
BITMAP
02
3A
66
C7
89
91
91
62
7C
40
40
ENDCHAR
STARTCHAR 2207
ENCODING 8711
SWIDTH 1000 0
DWIDTH 20 0
BBX 16 15 2 0
BITMAP
FFFF
4002
2004
2004
1008
1008
0810
0810
0420
0420
0240
0240
0180
0180
0100
ENDCHAR
STARTCHAR 2208
ENCODING 8712
SWIDTH 1000 0
DWIDTH 20 0
BBX 16 14 2 1
BITMAP
07FF
1800
3000
6000
4000
4000
8000
FFFF
8000
4000
4000
2000
1800
07FF
ENDCHAR
STARTCHAR 2209
ENCODING 8713
SWIDTH 500 0
DWIDTH 10 0
BBX 8 14 1 1
BITMAP
04
04
1F
24
44
88
88
FF
88
90
50
30
1F
20
ENDCHAR
STARTCHAR 220B
ENCODING 8715
SWIDTH 1000 0
DWIDTH 20 0
BBX 16 14 2 1
BITMAP
FFE0
0018
000C
0006
0002
0002
0001
FFFF
0002
0002
0002
0004
0018
FFE0
ENDCHAR
STARTCHAR 2212
ENCODING 8722
SWIDTH 500 0
DWIDTH 10 0
BBX 8 1 1 7
BITMAP
FF
ENDCHAR
STARTCHAR 2213
ENCODING 8723
SWIDTH 500 0
DWIDTH 10 0
BBX 8 13 1 1
BITMAP
FF
00
00
10
10
10
10
10
FF
10
10
10
10
ENDCHAR
STARTCHAR 221A
ENCODING 8730
SWIDTH 1000 0
DWIDTH 20 0
BBX 19 19 1 -1
BITMAP
007FE0
00C000
008000
008000
010000
010000
010000
020000
020000
020000
440000
440000
440000
E80000
A80000
280000
300000
100000
100000
ENDCHAR
STARTCHAR 221D
ENCODING 8733
SWIDTH 1000 0
DWIDTH 20 0
BBX 16 7 2 4
BITMAP
781E
C661
8380
8180
8380
C661
781E
ENDCHAR
STARTCHAR 221E
ENCODING 8734
SWIDTH 1000 0
DWIDTH 20 0
BBX 16 8 2 4
BITMAP
781E
C423
8241
8181
8181
81C1
C263
7C1E
ENDCHAR
STARTCHAR 221F
ENCODING 8735
SWIDTH 1000 0
DWIDTH 20 0
BBX 16 16 3 0
BITMAP
8000
8000
8000
8000
8000
8000
8000
8000
8000
8000
8000
8000
8000
8000
8000
FFFF
ENDCHAR
STARTCHAR 2220
ENCODING 8736
SWIDTH 1000 0
DWIDTH 20 0
BBX 16 16 2 0
BITMAP
0001
0002
0004
0008
0010
0020
0040
0080
0100
0200
0400
0800
1000
2000
4000
FFFF
ENDCHAR
STARTCHAR 2225
ENCODING 8741
SWIDTH 1000 0
DWIDTH 20 0
BBX 10 18 5 -1
BITMAP
0480
0240
0480
0480
0480
0900
0900
0900
1200
1200
1200
2400
2400
2800
4800
4800
5000
9000
ENDCHAR
STARTCHAR 2226
ENCODING 8742
SWIDTH 500 0
DWIDTH 10 0
BBX 8 18 1 -1
BITMAP
09
0D
09
09
12
92
52
34
34
2C
2C
4C
4A
49
90
90
90
A0
ENDCHAR
STARTCHAR 2227
ENCODING 8743
SWIDTH 1000 0
DWIDTH 20 0
BBX 18 16 1 -1
BITMAP
00C000
00C000
012000
012000
021000
021000
040800
040800
080400
080400
100200
100200
200100
200100
400080
800040
ENDCHAR
STARTCHAR 2228
ENCODING 8744
SWIDTH 1000 0
DWIDTH 20 0
BBX 18 16 1 0
BITMAP
800040
400080
200100
200100
100200
100200
080400
080400
040800
040800
021000
021000
012000
012000
00C000
00C000
ENDCHAR
STARTCHAR 2229
ENCODING 8745
SWIDTH 1000 0
DWIDTH 20 0
BBX 14 15 3 0
BITMAP
0FC0
1820
2010
4008
8004
8004
8004
8004
8004
8004
8004
8004
8004
8004
8004
ENDCHAR
STARTCHAR 222A
ENCODING 8746
SWIDTH 1000 0
DWIDTH 20 0
BBX 14 15 3 0
BITMAP
8004
8004
8004
8004
8004
8004
8004
8004
8004
8004
8008
4008
2010
1860
0FC0
ENDCHAR
STARTCHAR 222B
ENCODING 8747
SWIDTH 1000 0
DWIDTH 20 0
BBX 10 18 5 -1
BITMAP
0380
0240
04C0
0400
0400
0400
0400
0C00
0C00
0C00
0C00
0800
0800
0800
0800
0800
D000
F000
ENDCHAR
STARTCHAR 222C
ENCODING 8748
SWIDTH 1000 0
DWIDTH 20 0
BBX 16 18 2 -1
BITMAP
0387
0649
04D9
0410
0410
0C10
0C10
0C10
0810
0810
0830
0830
0830
0820
0820
1820
9360
E1C0
ENDCHAR
STARTCHAR 222E
ENCODING 8750
SWIDTH 1000 0
DWIDTH 20 0
BBX 10 18 5 -1
BITMAP
0180
0240
04C0
0400
0400
0400
0400
1E00
2D00
2D00
2D00
1A00
0C00
0800
0800
0800
D000
F000
ENDCHAR
STARTCHAR 2234
ENCODING 8756
SWIDTH 1000 0
DWIDTH 20 0
BBX 12 13 4 1
BITMAP
0600
0600
0600
0000
0000
0000
0000
0000
0000
0000
C030
C030
C030
ENDCHAR
STARTCHAR 2235
ENCODING 8757
SWIDTH 1000 0
DWIDTH 20 0
BBX 12 13 4 1
BITMAP
C030
C030
C030
0000
0000
0000
0000
0000
0000
0000
0600
0600
0600
ENDCHAR
STARTCHAR 223D
ENCODING 8765
SWIDTH 1000 0
DWIDTH 20 0
BBX 16 8 2 4
BITMAP
781E
C863
8041
8081
8101
8201
C603
781E
ENDCHAR
STARTCHAR 2243
ENCODING 8771
SWIDTH 500 0
DWIDTH 10 0
BBX 8 6 1 5
BITMAP
70
99
0E
00
00
FF
ENDCHAR
STARTCHAR 2245
ENCODING 8773
SWIDTH 500 0
DWIDTH 10 0
BBX 8 7 1 4
BITMAP
71
8E
00
00
FF
00
FF
ENDCHAR
STARTCHAR 2248
ENCODING 8776
SWIDTH 500 0
DWIDTH 10 0
BBX 8 6 1 4
BITMAP
71
8E
00
00
71
8E
ENDCHAR
STARTCHAR 2252
ENCODING 8786
SWIDTH 1000 0
DWIDTH 20 0
BBX 14 13 3 1
BITMAP
1800
3800
0000
0000
FFFC
0000
0000
0000
FFFC
0000
0000
0060
0030
ENDCHAR
STARTCHAR 2260
ENCODING 8800
SWIDTH 1000 0
DWIDTH 20 0
BBX 14 14 3 1
BITMAP
0020
0040
0040
0080
0080
FFFC
0100
0300
0200
FFFC
0400
0800
0800
1000
ENDCHAR
STARTCHAR 2261
ENCODING 8801
SWIDTH 1000 0
DWIDTH 20 0
BBX 14 9 3 3
BITMAP
FFFC
0000
0000
0000
FFFC
0000
0000
0000
FFFC
ENDCHAR
STARTCHAR 2262
ENCODING 8802
SWIDTH 500 0
DWIDTH 10 0
BBX 8 13 1 1
BITMAP
02
04
FF
04
08
08
FF
10
10
20
FF
20
40
ENDCHAR
STARTCHAR 2266
ENCODING 8806
SWIDTH 1000 0
DWIDTH 20 0
BBX 14 16 3 0
BITMAP
0004
001C
00E0
0700
1800
E000
3800
0700
00C0
0038
0004
0000
FFFC
0000
0000
FFFC
ENDCHAR
STARTCHAR 2267
ENCODING 8807
SWIDTH 1000 0
DWIDTH 20 0
BBX 14 16 3 0
BITMAP
8000
E000
1C00
0380
0060
001C
0070
0380
0C00
7000
8000
0000
FFFC
0000
0000
FFFC
ENDCHAR
STARTCHAR 226A
ENCODING 8810
SWIDTH 1000 0
DWIDTH 20 0
BBX 16 17 2 -1
BITMAP
0033
00C4
0188
0230
0440
1880
3100
4600
8800
4600
3100
1880
0440
0230
0188
00C4
0033
ENDCHAR
STARTCHAR 226B
ENCODING 8811
SWIDTH 1000 0
DWIDTH 20 0
BBX 16 17 2 -1
BITMAP
CC00
2300
1180
0C40
0220
0118
008C
0062
0011
0062
008C
0118
0220
0C40
1180
2300
CC00
ENDCHAR
STARTCHAR 2276
ENCODING 8822
SWIDTH 500 0
DWIDTH 10 0
BBX 8 14 1 1
BITMAP
01
03
0C
30
C0
30
8C
C3
30
0C
03
0C
30
C0
ENDCHAR
STARTCHAR 2277
ENCODING 8823
SWIDTH 500 0
DWIDTH 10 0
BBX 8 14 1 1
BITMAP
80
C0
30
0C
03
0C
31
C3
0C
30
C0
30
0C
03
ENDCHAR
STARTCHAR 2282
ENCODING 8834
SWIDTH 1000 0
DWIDTH 20 0
BBX 16 14 2 1
BITMAP
07FF
1800
2000
4000
4000
4000
8000
8000
4000
4000
4000
2000
1800
07FF
ENDCHAR
STARTCHAR 2283
ENCODING 8835
SWIDTH 1000 0
DWIDTH 20 0
BBX 16 14 2 1
BITMAP
FFE0
0018
0004
0002
0002
0002
0001
0001
0002
0002
0002
0004
0018
FFE0
ENDCHAR
STARTCHAR 2284
ENCODING 8836
SWIDTH 500 0
DWIDTH 10 0
BBX 8 14 1 1
BITMAP
04
04
1F
24
44
88
88
88
88
90
50
30
1F
20
ENDCHAR
STARTCHAR 2285
ENCODING 8837
SWIDTH 500 0
DWIDTH 10 0
BBX 8 13 1 1
BITMAP
04
F8
0C
0A
09
11
11
11
11
22
24
F8
20
ENDCHAR
STARTCHAR 2286
ENCODING 8838
SWIDTH 1000 0
DWIDTH 20 0
BBX 16 15 2 0
BITMAP
0FFF
3000
6000
4000
8000
8000
8000
4000
6000
3000
0FFF
0000
0000
0000
FFFF
ENDCHAR
STARTCHAR 2287
ENCODING 8839
SWIDTH 1000 0
DWIDTH 20 0
BBX 16 15 2 0
BITMAP
FFF0
000C
0006
0002
0001
0001
0001
0002
0002
000C
FFF0
0000
0000
0000
FFFF
ENDCHAR
STARTCHAR 228A
ENCODING 8842
SWIDTH 500 0
DWIDTH 10 0
BBX 8 14 1 0
BITMAP
1F
60
40
80
80
80
80
40
60
1F
00
08
FF
10
ENDCHAR
STARTCHAR 228B
ENCODING 8843
SWIDTH 500 0
DWIDTH 10 0
BBX 8 14 1 0
BITMAP
F8
06
02
01
01
01
01
02
06
F8
00
08
FF
10
ENDCHAR
STARTCHAR 2295
ENCODING 8853
SWIDTH 500 0
DWIDTH 10 0
BBX 9 10 1 3
BITMAP
3C00
4200
9100
9100
9100
FF80
9100
9100
4200
3C00
ENDCHAR
STARTCHAR 2296
ENCODING 8854
SWIDTH 500 0
DWIDTH 10 0
BBX 9 9 1 3
BITMAP
3C00
4200
8100
8100
7F00
8180
8100
4200
3C00
ENDCHAR
STARTCHAR 2297
ENCODING 8855
SWIDTH 500 0
DWIDTH 10 0
BBX 9 9 1 3
BITMAP
3C00
4200
C500
A700
1900
9980
A500
C300
7C00
ENDCHAR
STARTCHAR 22A5
ENCODING 8869
SWIDTH 1000 0
DWIDTH 20 0
BBX 18 16 1 0
BITMAP
008000
008000
008000
008000
008000
008000
008000
008000
008000
008000
008000
008000
008000
008000
008000
FFFFC0
ENDCHAR
STARTCHAR 22BF
ENCODING 8895
SWIDTH 1000 0
DWIDTH 20 0
BBX 16 16 2 0
BITMAP
0001
0003
0005
0009
0011
0021
0041
0081
0101
0201
0401
0801
1001
2001
4001
FFFF
ENDCHAR
STARTCHAR 22DA
ENCODING 8922
SWIDTH 500 0
DWIDTH 10 0
BBX 8 15 1 0
BITMAP
03
1C
60
E0
1C
03
00
FF
00
C0
38
06
07
38
C0
ENDCHAR
STARTCHAR 22DB
ENCODING 8923
SWIDTH 500 0
DWIDTH 10 0
BBX 8 15 1 0
BITMAP
C0
38
06
07
38
C0
00
FF
00
03
1C
60
E0
1C
03
ENDCHAR
STARTCHAR 2305
ENCODING 8965
SWIDTH 500 0
DWIDTH 10 0
BBX 8 9 1 2
BITMAP
FF
10
18
18
24
24
42
42
81
ENDCHAR
STARTCHAR 2306
ENCODING 8966
SWIDTH 500 0
DWIDTH 10 0
BBX 8 12 1 1
BITMAP
FF
00
00
FF
10
18
18
24
24
42
42
81
ENDCHAR
STARTCHAR 2312
ENCODING 8978
SWIDTH 1000 0
DWIDTH 20 0
BBX 18 4 1 12
BITMAP
07F800
380700
400080
800040
ENDCHAR
STARTCHAR 2318
ENCODING 8984
SWIDTH 1000 0
DWIDTH 20 0
BBX 18 19 1 -2
BITMAP
700380
880440
880440
880840
8808C0
7FFF80
080800
080800
080800
080800
080800
080800
080800
7FFF80
C80840
880840
880440
880440
700380
ENDCHAR
STARTCHAR 23BE
ENCODING 9150
SWIDTH 1000 0
DWIDTH 20 0
BBX 10 20 10 -2
BITMAP
FFC0
8000
8000
8000
8000
8000
8000
8000
8000
8000
8000
8000
8000
8000
8000
8000
8000
8000
8000
8000
ENDCHAR
STARTCHAR 23BF
ENCODING 9151
SWIDTH 1000 0
DWIDTH 20 0
BBX 10 20 10 -2
BITMAP
8000
8000
8000
8000
8000
8000
8000
8000
8000
8000
8000
8000
8000
8000
8000
8000
8000
8000
8000
FFC0
ENDCHAR
STARTCHAR 23C0
ENCODING 9152
SWIDTH 1000 0
DWIDTH 20 0
BBX 16 20 2 -2
BITMAP
0100
0100
0180
0F70
1108
2104
4102
4102
8102
8101
8101
8102
4102
4102
2104
1108
0D30
03C0
0100
0100
ENDCHAR
STARTCHAR 23C1
ENCODING 9153
SWIDTH 1000 0
DWIDTH 20 0
BBX 20 20 0 -2
BITMAP
FFFFF0
004000
004000
03FC00
044200
084100
104080
104080
204080
204040
204040
204080
104080
104080
084100
044200
034C00
00F000
004000
004000
ENDCHAR
STARTCHAR 23C2
ENCODING 9154
SWIDTH 1000 0
DWIDTH 20 0
BBX 20 20 0 -2
BITMAP
004000
004000
006000
03DC00
044200
084100
104080
104080
204080
204040
204040
204080
104080
104080
084100
044200
03DC00
006000
004000
FFFFF0
ENDCHAR
STARTCHAR 23C3
ENCODING 9155
SWIDTH 1000 0
DWIDTH 20 0
BBX 18 20 1 -2
BITMAP
008000
008000
008000
00C000
00C000
01A000
029000
029000
048800
048800
088400
108400
108200
208100
208100
408080
7FFF80
808040
008000
008000
ENDCHAR
STARTCHAR 23C4
ENCODING 9156
SWIDTH 1000 0
DWIDTH 20 0
BBX 20 20 0 -2
BITMAP
FFFFF0
004000
004000
006000
006000
00D000
015000
014800
024400
024400
044200
084200
084100
104080
104080
204040
3FFFC0
404020
004000
004000
ENDCHAR
STARTCHAR 23C5
ENCODING 9157
SWIDTH 1000 0
DWIDTH 20 0
BBX 20 20 0 -2
BITMAP
004000
004000
004000
006000
006000
00D000
014800
014800
024400
024400
044200
084200
084100
104080
104080
204040
3FFFC0
404020
004000
FFFFF0
ENDCHAR
STARTCHAR 23C6
ENCODING 9158
SWIDTH 1000 0
DWIDTH 20 0
BBX 18 20 1 -2
BITMAP
008000
008000
008000
008000
008000
008000
008000
008000
3E8000
C18000
006040
009F80
008000
008000
008000
008000
008000
008000
008000
008000
ENDCHAR
STARTCHAR 23C7
ENCODING 9159
SWIDTH 1000 0
DWIDTH 20 0
BBX 20 20 0 -2
BITMAP
FFFFF0
004000
004000
004000
004000
004000
004000
004000
1F4000
60C000
003020
004FC0
004000
004000
004000
004000
004000
004000
004000
004000
ENDCHAR
STARTCHAR 23C8
ENCODING 9160
SWIDTH 1000 0
DWIDTH 20 0
BBX 20 20 0 -2
BITMAP
004000
004000
004000
004000
004000
004000
004000
004000
3F4000
40C000
003020
004FC0
004000
004000
004000
004000
004000
004000
004000
FFFFF0
ENDCHAR
STARTCHAR 23C9
ENCODING 9161
SWIDTH 1000 0
DWIDTH 20 0
BBX 20 20 0 -2
BITMAP
FFFFF0
004000
004000
004000
004000
004000
004000
004000
004000
004000
004000
004000
004000
004000
004000
004000
004000
004000
004000
004000
ENDCHAR
STARTCHAR 23CA
ENCODING 9162
SWIDTH 1000 0
DWIDTH 20 0
BBX 20 20 0 -2
BITMAP
004000
004000
004000
004000
004000
004000
004000
004000
004000
004000
004000
004000
004000
004000
004000
004000
004000
004000
004000
FFFFF0
ENDCHAR
STARTCHAR 23CB
ENCODING 9163
SWIDTH 1000 0
DWIDTH 20 0
BBX 10 20 0 -2
BITMAP
FFC0
0040
0040
0040
0040
0040
0040
0040
0040
0040
0040
0040
0040
0040
0040
0040
0040
0040
0040
0040
ENDCHAR
STARTCHAR 23CC
ENCODING 9164
SWIDTH 1000 0
DWIDTH 20 0
BBX 10 20 0 -2
BITMAP
0040
0040
0040
0040
0040
0040
0040
0040
0040
0040
0040
0040
0040
0040
0040
0040
0040
0040
0040
FFC0
ENDCHAR
STARTCHAR 23CE
ENCODING 9166
SWIDTH 1000 0
DWIDTH 20 0
BBX 17 17 1 -1
BITMAP
001F80
001080
001080
001080
001080
001080
021080
061080
1A1080
23E080
400080
800080
400100
33FE00
0A0000
060000
020000
ENDCHAR
STARTCHAR 2423
ENCODING 9251
SWIDTH 1000 0
DWIDTH 20 0
BBX 16 4 2 0
BITMAP
8001
8001
8001
FFFF
ENDCHAR
STARTCHAR 2460
ENCODING 9312
SWIDTH 1000 0
DWIDTH 20 0
BBX 18 18 1 -1
BITMAP
03F000
0C0C00
100200
21C100
40C080
804080
804040
804040
804040
804040
804040
804040
804080
404080
21E100
101200
0C0C00
03F000
ENDCHAR
STARTCHAR 2461
ENCODING 9313
SWIDTH 1000 0
DWIDTH 20 0
BBX 18 18 1 -1
BITMAP
03F000
0C0C00
100200
21E100
423080
861880
861840
801840
801040
802040
804040
808840
810880
420880
27F900
100200
0C0C00
03F000
ENDCHAR
STARTCHAR 2462
ENCODING 9314
SWIDTH 1000 0
DWIDTH 20 0
BBX 18 18 1 -2
BITMAP
03F000
0C0C00
31E300
421100
461880
861880
801840
803040
81C040
803040
800840
860840
860880
461880
21E100
100200
0C0C00
03F000
ENDCHAR
STARTCHAR 2463
ENCODING 9315
SWIDTH 1000 0
DWIDTH 20 0
BBX 18 18 1 -1
BITMAP
03F000
0C0C00
100200
202100
406080
80A080
812040
822040
822040
842040
882040
8FF840
802080
402080
207100
108A00
0C0400
03F800
ENDCHAR
STARTCHAR 2464
ENCODING 9316
SWIDTH 1000 0
DWIDTH 20 0
BBX 18 18 1 -1
BITMAP
03F000
0C0C00
100200
23F100
420080
820080
820040
83E040
821840
800840
800840
860840
861880
423080
21E100
100200
0C0C00
03F000
ENDCHAR
STARTCHAR 2465
ENCODING 9317
SWIDTH 1000 0
DWIDTH 20 0
BBX 18 18 1 -1
BITMAP
03F000
040800
180600
20F100
411080
421880
860040
840040
85E040
861040
841840
840840
840880
421880
233100
11E200
0C0400
03F800
ENDCHAR
STARTCHAR 2466
ENCODING 9318
SWIDTH 1000 0
DWIDTH 20 0
BBX 18 18 1 -2
BITMAP
03F000
0C0C00
300200
47F900
460880
841080
841040
802040
802040
804040
804040
804040
80C080
40C080
20C100
100200
0C0C00
03F000
ENDCHAR
STARTCHAR 2467
ENCODING 9319
SWIDTH 1000 0
DWIDTH 20 0
BBX 18 18 1 -1
BITMAP
03F000
040800
180600
21E100
421080
461880
861040
821040
81A040
816040
821040
840840
840880
440880
261900
11E200
0C0400
03F800
ENDCHAR
STARTCHAR 2468
ENCODING 9320
SWIDTH 1000 0
DWIDTH 20 0
BBX 18 18 1 -1
BITMAP
03F000
040800
180600
21E100
433080
461880
840840
840840
860840
821840
81E840
800840
861880
461080
223100
11E200
0C0400
03F800
ENDCHAR
STARTCHAR 2469
ENCODING 9321
SWIDTH 1000 0
DWIDTH 20 0
BBX 18 18 1 -1
BITMAP
03F000
0C0C00
100200
243900
4C6480
844480
844440
844640
84C640
84C640
844640
844440
844480
446480
2E3900
110200
0C0400
03F800
ENDCHAR
STARTCHAR 246A
ENCODING 9322
SWIDTH 1000 0
DWIDTH 20 0
BBX 18 18 1 -1
BITMAP
03F000
0C0C00
100200
240900
5C3880
840880
840840
840840
840840
840840
840840
840840
840880
440880
2E1D00
112200
0C0400
03F800
ENDCHAR
STARTCHAR 246B
ENCODING 9323
SWIDTH 1000 0
DWIDTH 20 0
BBX 18 18 1 -1
BITMAP
03F000
0C0C00
100200
243900
4C4C80
844480
844440
840440
840840
840840
841040
842040
844480
444480
2EFD00
110200
0C0400
03F800
ENDCHAR
STARTCHAR 246C
ENCODING 9324
SWIDTH 1000 0
DWIDTH 20 0
BBX 18 17 1 -1
BITMAP
03F000
1C0E00
200300
4C3900
444480
844440
840440
840C40
843040
840C40
840440
84C680
44C480
2E7900
110200
0C0400
03F800
ENDCHAR
STARTCHAR 246D
ENCODING 9325
SWIDTH 1000 0
DWIDTH 20 0
BBX 18 17 1 -1
BITMAP
03F000
0C0C00
300200
4C0900
441880
842880
842840
844840
848840
848840
84FE40
840880
440880
2E1D00
112200
0C0400
03F800
ENDCHAR
STARTCHAR 246E
ENCODING 9326
SWIDTH 1000 0
DWIDTH 20 0
BBX 18 17 1 -1
BITMAP
03F000
0C0C00
300200
4C7D00
544080
844080
844040
84B840
844440
840640
840640
84C480
44CC80
2E7900
110200
0C0400
03F800
ENDCHAR
STARTCHAR 246F
ENCODING 9327
SWIDTH 1000 0
DWIDTH 20 0
BBX 18 18 1 -1
BITMAP
03F000
0C0C00
100200
243900
5C2480
844480
844040
844040
84F840
84C440
84C640
84C640
844680
444480
2E3900
110200
0C0400
03F800
ENDCHAR
STARTCHAR 2470
ENCODING 9328
SWIDTH 1000 0
DWIDTH 20 0
BBX 18 17 1 -1
BITMAP
03F000
0C0C00
300200
4CFF00
448480
848480
840840
840840
840840
841040
841040
841080
441080
2E3100
110200
0C0400
03F800
ENDCHAR
STARTCHAR 2471
ENCODING 9329
SWIDTH 1000 0
DWIDTH 20 0
BBX 18 18 1 -1
BITMAP
03F000
0C0C00
100200
243900
4C4480
844480
844440
846C40
843040
843840
844440
848640
848680
444480
2E3900
110200
0C0400
03F800
ENDCHAR
STARTCHAR 2472
ENCODING 9330
SWIDTH 1000 0
DWIDTH 20 0
BBX 18 18 1 -1
BITMAP
03F000
0C0C00
100200
243900
4C4C80
844480
84C440
84C640
844640
844640
843C40
840440
844480
444C80
2E7900
110200
0C0400
03F800
ENDCHAR
STARTCHAR 2473
ENCODING 9331
SWIDTH 1000 0
DWIDTH 20 0
BBX 18 18 1 -1
BITMAP
03F000
0C0C00
100200
2E1D00
593480
99A280
992240
812240
812240
822240
842240
842240
88A280
50B480
3F9D00
100200
0C0400
03F800
ENDCHAR
STARTCHAR 24D0
ENCODING 9424
SWIDTH 1000 0
DWIDTH 20 0
BBX 18 18 1 -1
BITMAP
03F000
040800
180600
200100
400080
41E080
822040
821040
803040
81D040
821040
861040
823C80
43D880
200100
100200
0C0400
03F800
ENDCHAR
STARTCHAR 24D1
ENCODING 9425
SWIDTH 1000 0
DWIDTH 20 0
BBX 18 18 1 -1
BITMAP
03F000
040800
180600
220100
460080
420080
820040
82F040
831840
820840
820840
820840
820880
431880
22F100
100200
0C0400
03F800
ENDCHAR
STARTCHAR 24D2
ENCODING 9426
SWIDTH 1000 0
DWIDTH 20 0
BBX 18 18 1 -1
BITMAP
03F000
040800
180600
200100
400080
41E080
831040
823040
860040
860040
860040
821040
831080
41E080
200100
100200
0C0400
03F800
ENDCHAR
STARTCHAR 24D3
ENCODING 9427
SWIDTH 1000 0
DWIDTH 20 0
BBX 18 18 1 -1
BITMAP
03F000
040800
180600
203100
407080
401080
801040
83D040
863040
841040
841040
841040
841080
463080
23D900
100200
0C0400
03F800
ENDCHAR
STARTCHAR 24D4
ENCODING 9428
SWIDTH 1000 0
DWIDTH 20 0
BBX 18 17 1 -1
BITMAP
03F000
0C0C00
300300
400100
400080
81E080
821040
861840
85E040
860040
831840
81E080
400080
200100
100200
0C0400
03F800
ENDCHAR
STARTCHAR 24D5
ENCODING 9429
SWIDTH 1000 0
DWIDTH 20 0
BBX 18 18 1 -1
BITMAP
03F000
0C0C00
100200
207100
409080
808080
808040
83E040
808040
808040
808040
808040
808080
408080
41C100
300200
0C0400
03F800
ENDCHAR
STARTCHAR 24D6
ENCODING 9430
SWIDTH 1000 0
DWIDTH 20 0
BBX 18 18 1 -1
BITMAP
03F000
040800
180600
200100
41D880
422880
821040
822040
822040
83C040
83E040
821840
840880
461880
23F100
100200
0C0400
03F800
ENDCHAR
STARTCHAR 24D7
ENCODING 9431
SWIDTH 1000 0
DWIDTH 20 0
BBX 18 18 1 -1
BITMAP
03F000
040800
180600
220100
460080
420080
820040
82F040
831040
820840
820840
820840
820880
420880
471900
302600
0C0400
03F800
ENDCHAR
STARTCHAR 24D8
ENCODING 9432
SWIDTH 1000 0
DWIDTH 20 0
BBX 18 18 1 -1
BITMAP
03F000
040800
180600
20C100
40C080
400080
800040
81C040
804040
804040
804040
804040
804080
404080
40C100
312200
0C0400
03F800
ENDCHAR
STARTCHAR 24D9
ENCODING 9433
SWIDTH 1000 0
DWIDTH 20 0
BBX 18 18 1 -1
BITMAP
03F000
040800
184600
206100
400080
400080
80C040
804040
804040
804040
804040
804040
804080
404080
224100
128200
0D0400
03F800
ENDCHAR
STARTCHAR 24DA
ENCODING 9434
SWIDTH 1000 0
DWIDTH 20 0
BBX 18 19 1 -2
BITMAP
03F000
0C0800
100600
220100
460100
420080
820080
827840
822040
824040
82C040
836040
822040
421080
431C80
24A100
100200
0C0C00
03F000
ENDCHAR
STARTCHAR 24DB
ENCODING 9435
SWIDTH 1000 0
DWIDTH 20 0
BBX 18 18 1 -1
BITMAP
03F000
040800
180600
204100
41C080
404080
804040
804040
804040
804040
804040
804040
804080
404080
40C100
312200
0C0400
03F800
ENDCHAR
STARTCHAR 24DC
ENCODING 9436
SWIDTH 1000 0
DWIDTH 20 0
BBX 18 18 1 -1
BITMAP
03F000
0C0C00
100200
200100
400080
9B9880
8CE440
884440
884440
884440
884440
884440
8CE680
520980
200100
100200
0C0400
03F800
ENDCHAR
STARTCHAR 24DD
ENCODING 9437
SWIDTH 1000 0
DWIDTH 20 0
BBX 18 18 1 -1
BITMAP
03F000
0C0C00
100200
200100
400080
86E080
831040
821840
821840
821840
821840
821840
871880
402480
200100
100200
0C0400
03F800
ENDCHAR
STARTCHAR 24DE
ENCODING 9438
SWIDTH 1000 0
DWIDTH 20 0
BBX 18 18 1 -1
BITMAP
03F000
040800
180600
200100
400080
41E080
833040
821040
861840
840840
861840
821040
833080
41E080
200100
100200
0C0400
03F800
ENDCHAR
STARTCHAR 24DF
ENCODING 9439
SWIDTH 1000 0
DWIDTH 20 0
BBX 18 18 1 -1
BITMAP
03F000
0C0800
100600
200100
400080
46F080
831840
830840
830840
830C40
831840
83F040
830080
430080
230100
148200
0C0400
03F800
ENDCHAR
STARTCHAR 24E0
ENCODING 9440
SWIDTH 1000 0
DWIDTH 20 0
BBX 18 18 1 -1
BITMAP
03F000
0C0800
100600
200100
400080
43F080
863040
843040
8C3040
843040
863040
83F040
803080
403080
203100
104A00
0C0400
03F800
ENDCHAR
STARTCHAR 24E1
ENCODING 9441
SWIDTH 1000 0
DWIDTH 20 0
BBX 18 18 1 -1
BITMAP
03F000
0C0C00
100200
200100
400080
83B880
81D840
808040
808040
808040
808040
808040
818080
424080
200100
100200
0C0400
03F800
ENDCHAR
STARTCHAR 24E2
ENCODING 9442
SWIDTH 1000 0
DWIDTH 20 0
BBX 18 18 1 -1
BITMAP
03F000
040800
180600
200100
400080
41C080
833040
821040
810040
80C040
843040
821040
831080
40E080
200100
100200
0C0400
03F800
ENDCHAR
STARTCHAR 24E3
ENCODING 9443
SWIDTH 1000 0
DWIDTH 20 0
BBX 18 19 1 -2
BITMAP
03F000
0C0C00
100200
200100
408080
818080
83E040
808040
808040
808040
808040
808040
809040
40E080
400080
200100
100200
0C0C00
03F000
ENDCHAR
STARTCHAR 24E4
ENCODING 9444
SWIDTH 1000 0
DWIDTH 20 0
BBX 18 18 1 -1
BITMAP
03F000
040800
180600
200100
400080
421080
863040
821040
821040
821040
821040
821040
823080
41E880
200100
100200
0C0400
03F800
ENDCHAR
STARTCHAR 24E5
ENCODING 9445
SWIDTH 1000 0
DWIDTH 20 0
BBX 18 18 1 -1
BITMAP
03F000
040800
180600
200100
400080
400080
8F3C40
821040
821040
812040
812040
80C040
80C080
408080
400100
300200
0C0400
03F800
ENDCHAR
STARTCHAR 24E6
ENCODING 9446
SWIDTH 1000 0
DWIDTH 20 0
BBX 18 18 1 -1
BITMAP
03F000
040800
180600
200100
400080
400080
9CEE40
8C4440
84C440
84A840
872840
833040
831080
421080
400100
300200
0C0400
03F800
ENDCHAR
STARTCHAR 24E7
ENCODING 9447
SWIDTH 1000 0
DWIDTH 20 0
BBX 18 17 1 -1
BITMAP
03F000
0C0C00
300200
400100
400080
8F3880
812040
80C040
80C040
812040
821040
861880
492480
200100
100200
0C0400
03F800
ENDCHAR
STARTCHAR 24E8
ENCODING 9448
SWIDTH 1000 0
DWIDTH 20 0
BBX 18 18 1 -1
BITMAP
03F000
040800
180600
200100
400080
47BC80
830840
811040
809040
80A040
806040
804040
804080
428080
438100
300200
0C0400
03F800
ENDCHAR
STARTCHAR 24E9
ENCODING 9449
SWIDTH 1000 0
DWIDTH 20 0
BBX 18 17 1 -1
BITMAP
03F000
0C0C00
300200
400100
400080
83F080
842040
804040
80C040
819040
811040
821080
45E080
200100
100200
0C0400
03F800
ENDCHAR
STARTCHAR 24EB
ENCODING 9451
SWIDTH 1000 0
DWIDTH 20 0
BBX 18 18 1 -1
BITMAP
03F000
0FFC00
1FFE00
3BFF00
73E780
7BF780
FBF7C0
FBF7C0
FBF7C0
FBF7C0
FBF7C0
FBF7C0
7BF780
7BF780
31E300
1FFE00
0FFC00
03F000
ENDCHAR
STARTCHAR 24EC
ENCODING 9452
SWIDTH 1000 0
DWIDTH 20 0
BBX 18 18 1 -1
BITMAP
03F000
0FFC00
1FFE00
3BC700
73BB80
7BBB80
FB9BC0
FBFBC0
FBF3C0
FBF7C0
FBEFC0
FBDFC0
7BDD80
7BBD80
318100
1FFE00
0FFC00
03F000
ENDCHAR
STARTCHAR 24ED
ENCODING 9453
SWIDTH 1000 0
DWIDTH 20 0
BBX 18 17 1 -1
BITMAP
03F000
1FFE00
3FFF00
63FF00
7BBB80
FBBBC0
FBFBC0
FBF7C0
FBFFC0
FBFBC0
FBF9C0
7BB980
7BBB80
31FF00
1FFE00
0FFC00
03F000
ENDCHAR
STARTCHAR 24EE
ENCODING 9454
SWIDTH 1000 0
DWIDTH 20 0
BBX 18 17 1 -1
BITMAP
03F000
0FFC00
1FFE00
33F700
7BE780
FBF780
FBD7C0
FBB7C0
FBB7C0
FB77C0
FB01C0
7BF780
7BF780
31E300
1FFE00
0FFC00
03F000
ENDCHAR
STARTCHAR 24EF
ENCODING 9455
SWIDTH 1000 0
DWIDTH 20 0
BBX 18 17 1 -1
BITMAP
03F000
0FFC00
3FFE00
238300
7BBF80
FBBF80
FBBFC0
FBC3C0
FBBBC0
FBF9C0
FBFDC0
7BBD80
7BBB80
31FF00
1FFE00
0FFC00
03F000
ENDCHAR
STARTCHAR 24F0
ENCODING 9456
SWIDTH 1000 0
DWIDTH 20 0
BBX 18 18 1 -1
BITMAP
03F000
0FFC00
1FFE00
3BE300
73DB80
7BBB80
FBBFC0
FBBFC0
FBDBC0
FBBBC0
FBBDC0
FBBDC0
7BBD80
7BBB80
31DF00
1FFE00
0FFC00
03F000
ENDCHAR
STARTCHAR 24F1
ENCODING 9457
SWIDTH 1000 0
DWIDTH 20 0
BBX 18 17 1 -1
BITMAP
03F000
0FFC00
3FFE00
338100
7BBF80
FBFB80
FBFFC0
FBF7C0
FBF7C0
FBE7C0
FBEFC0
7BEF80
7BEF80
31EF00
1FFE00
0FFC00
03F000
ENDCHAR
STARTCHAR 24F2
ENCODING 9458
SWIDTH 1000 0
DWIDTH 20 0
BBX 18 18 1 -1
BITMAP
03F000
0FFC00
1FFE00
3BC700
739B80
7BBB80
FBBBC0
FB9BC0
FBC7C0
FBFFC0
FBBBC0
FB39C0
7B7D80
7BBD80
31FB00
1FFE00
0FFC00
03F000
ENDCHAR
STARTCHAR 24F3
ENCODING 9459
SWIDTH 1000 0
DWIDTH 20 0
BBX 18 18 1 -1
BITMAP
03F000
0FFC00
1FFE00
3BC700
739B80
7BBB80
FBB9C0
FBBDC0
FBBDC0
FB9DC0
FBC9C0
FBF9C0
7BBB80
7BBB80
31F700
1FFE00
0FFC00
03F000
ENDCHAR
STARTCHAR 24F4
ENCODING 9460
SWIDTH 1000 0
DWIDTH 20 0
BBX 18 18 1 -1
BITMAP
03F000
0FFC00
1FFE00
31E300
6EE980
66DD80
E6DDC0
FEDDC0
FDDDC0
FDDDC0
FBDDC0
F7DDC0
77DD80
6EFD80
20EB00
1FFE00
0FFC00
03F000
ENDCHAR
STARTCHAR 24F5
ENCODING 9461
SWIDTH 1000 0
DWIDTH 20 0
BBX 18 19 1 -2
BITMAP
07F000
1BFC00
2C0E00
504700
A1C180
A04140
C040C0
C040C0
8040C0
8040C0
8040C0
C040C0
C04140
A04180
61E280
381500
141A00
0FEC00
03F000
ENDCHAR
STARTCHAR 24F6
ENCODING 9462
SWIDTH 1000 0
DWIDTH 20 0
BBX 18 19 1 -2
BITMAP
07F000
1BFC00
2C0E00
51E700
A23180
A61940
C618C0
C010C0
8010C0
8020C0
8040C0
C080C0
C10940
A20980
67FA80
380500
141A00
0FEC00
03F000
ENDCHAR
STARTCHAR 24F7
ENCODING 9463
SWIDTH 1000 0
DWIDTH 20 0
BBX 18 19 1 -2
BITMAP
03F000
0FFC00
1C0E00
300700
61E180
A21180
C618C0
C018C0
8030C0
81C0C0
8038C0
C008C0
C60940
A61940
63E280
380500
141A00
0FEC00
03F000
ENDCHAR
STARTCHAR 24F8
ENCODING 9464
SWIDTH 1000 0
DWIDTH 20 0
BBX 18 19 1 -2
BITMAP
07F000
1FFC00
280E00
502300
A06180
C0A140
C120C0
C220C0
8220C0
8420C0
C820C0
CFF8C0
C02140
A02180
507280
288D00
141A00
0FEC00
03F000
ENDCHAR
STARTCHAR 24F9
ENCODING 9465
SWIDTH 1000 0
DWIDTH 20 0
BBX 18 19 1 -2
BITMAP
03F000
0C0C00
17F200
380D00
63F280
A20140
C20140
C200C0
83E0C0
8218C0
8008C0
C008C0
C61940
A63180
61E280
380500
141A00
0FEC00
03F000
ENDCHAR
STARTCHAR 24FA
ENCODING 9466
SWIDTH 1000 0
DWIDTH 20 0
BBX 18 19 1 -2
BITMAP
07F000
1BFC00
2C0E00
50F700
A11180
A21940
C200C0
C600C0
84E0C0
8710C0
8418C0
C608C0
C21940
A31180
61E280
380500
141A00
0FEC00
03F000
ENDCHAR
STARTCHAR 24FB
ENCODING 9467
SWIDTH 1000 0
DWIDTH 20 0
BBX 18 19 1 -2
BITMAP
03F000
0C0C00
17F200
380D00
63FA80
A20940
C41140
C410C0
8020C0
8020C0
8040C0
C040C0
C04140
A0C180
60C280
38C500
141A00
0FEC00
03F000
ENDCHAR
STARTCHAR 24FC
ENCODING 9468
SWIDTH 1000 0
DWIDTH 20 0
BBX 18 19 1 -2
BITMAP
07F000
1BFC00
2C0E00
51E700
A21180
A21140
C210C0
C210C0
81A0C0
8260C0
8410C0
C408C0
C40940
A61980
63E280
380500
141A00
0FEC00
03F000
ENDCHAR
STARTCHAR 24FD
ENCODING 9469
SWIDTH 1000 0
DWIDTH 20 0
BBX 18 19 1 -2
BITMAP
07F000
1BFC00
2C0E00
51E700
A33180
A21140
C618C0
C608C0
8608C0
8318C0
81E8C0
C018C0
C61140
A23180
61C280
380500
141A00
0FEC00
03F000
ENDCHAR
STARTCHAR 24FE
ENCODING 9470
SWIDTH 1000 0
DWIDTH 20 0
BBX 18 19 1 -2
BITMAP
07F000
1BFC00
2C0E00
500700
AE3980
A66D40
C644C0
C644C0
8646C0
86C6C0
8646C0
C644C0
C64540
A66D80
663A80
390500
141A00
0FEC00
03F000
ENDCHAR
STARTCHAR 2500
ENCODING 9472
SWIDTH 1000 0
DWIDTH 20 0
BBX 20 1 0 7
BITMAP
FFFFF0
ENDCHAR
STARTCHAR 2501
ENCODING 9473
SWIDTH 1000 0
DWIDTH 20 0
BBX 20 2 0 7
BITMAP
FFFFF0
FFFFF0
ENDCHAR
STARTCHAR 2502
ENCODING 9474
SWIDTH 1000 0
DWIDTH 20 0
BBX 1 20 9 -2
BITMAP
80
80
80
80
80
80
80
80
80
80
80
80
80
80
80
80
80
80
80
80
ENDCHAR
STARTCHAR 2503
ENCODING 9475
SWIDTH 1000 0
DWIDTH 20 0
BBX 2 20 9 -2
BITMAP
C0
C0
C0
C0
C0
C0
C0
C0
C0
C0
C0
C0
C0
C0
C0
C0
C0
C0
C0
C0
ENDCHAR
STARTCHAR 250C
ENCODING 9484
SWIDTH 1000 0
DWIDTH 20 0
BBX 10 10 10 -2
BITMAP
FFC0
8000
8000
8000
8000
8000
8000
8000
8000
8000
ENDCHAR
STARTCHAR 250F
ENCODING 9487
SWIDTH 1000 0
DWIDTH 20 0
BBX 11 11 9 -2
BITMAP
FFE0
FFE0
C000
C000
C000
C000
C000
C000
C000
C000
C000
ENDCHAR
STARTCHAR 2510
ENCODING 9488
SWIDTH 1000 0
DWIDTH 20 0
BBX 10 10 0 -2
BITMAP
FFC0
0040
0040
0040
0040
0040
0040
0040
0040
0040
ENDCHAR
STARTCHAR 2513
ENCODING 9491
SWIDTH 1000 0
DWIDTH 20 0
BBX 11 11 0 -2
BITMAP
FFE0
FFE0
0060
0060
0060
0060
0060
0060
0060
0060
0060
ENDCHAR
STARTCHAR 2514
ENCODING 9492
SWIDTH 1000 0
DWIDTH 20 0
BBX 10 11 10 7
BITMAP
8000
8000
8000
8000
8000
8000
8000
8000
8000
8000
FFC0
ENDCHAR
STARTCHAR 2517
ENCODING 9495
SWIDTH 1000 0
DWIDTH 20 0
BBX 11 11 9 7
BITMAP
C000
C000
C000
C000
C000
C000
C000
C000
C000
FFE0
FFE0
ENDCHAR
STARTCHAR 2518
ENCODING 9496
SWIDTH 1000 0
DWIDTH 20 0
BBX 10 11 0 7
BITMAP
0040
0040
0040
0040
0040
0040
0040
0040
0040
0040
FFC0
ENDCHAR
STARTCHAR 251B
ENCODING 9499
SWIDTH 1000 0
DWIDTH 20 0
BBX 11 11 0 7
BITMAP
0060
0060
0060
0060
0060
0060
0060
0060
0060
FFE0
FFE0
ENDCHAR
STARTCHAR 251C
ENCODING 9500
SWIDTH 1000 0
DWIDTH 20 0
BBX 10 20 10 -2
BITMAP
8000
8000
8000
8000
8000
8000
8000
8000
8000
8000
FFC0
8000
8000
8000
8000
8000
8000
8000
8000
8000
ENDCHAR
STARTCHAR 251D
ENCODING 9501
SWIDTH 1000 0
DWIDTH 20 0
BBX 10 20 10 -2
BITMAP
8000
8000
8000
8000
8000
8000
8000
8000
8000
FFC0
FFC0
8000
8000
8000
8000
8000
8000
8000
8000
8000
ENDCHAR
STARTCHAR 2520
ENCODING 9504
SWIDTH 1000 0
DWIDTH 20 0
BBX 11 20 9 -2
BITMAP
C000
C000
C000
C000
C000
C000
C000
C000
C000
C000
FFE0
C000
C000
C000
C000
C000
C000
C000
C000
C000
ENDCHAR
STARTCHAR 2523
ENCODING 9507
SWIDTH 1000 0
DWIDTH 20 0
BBX 11 20 9 -2
BITMAP
C000
C000
C000
C000
C000
C000
C000
C000
C000
FFE0
FFE0
C000
C000
C000
C000
C000
C000
C000
C000
C000
ENDCHAR
STARTCHAR 2524
ENCODING 9508
SWIDTH 1000 0
DWIDTH 20 0
BBX 10 20 0 -2
BITMAP
0040
0040
0040
0040
0040
0040
0040
0040
0040
0040
FFC0
0040
0040
0040
0040
0040
0040
0040
0040
0040
ENDCHAR
STARTCHAR 2525
ENCODING 9509
SWIDTH 1000 0
DWIDTH 20 0
BBX 10 20 0 -2
BITMAP
0040
0040
0040
0040
0040
0040
0040
0040
0040
FFC0
FFC0
0040
0040
0040
0040
0040
0040
0040
0040
0040
ENDCHAR
STARTCHAR 2528
ENCODING 9512
SWIDTH 1000 0
DWIDTH 20 0
BBX 11 20 0 -2
BITMAP
0060
0060
0060
0060
0060
0060
0060
0060
0060
0060
FFE0
0060
0060
0060
0060
0060
0060
0060
0060
0060
ENDCHAR
STARTCHAR 252B
ENCODING 9515
SWIDTH 1000 0
DWIDTH 20 0
BBX 11 20 0 -2
BITMAP
0060
0060
0060
0060
0060
0060
0060
0060
0060
FFE0
FFE0
0060
0060
0060
0060
0060
0060
0060
0060
0060
ENDCHAR
STARTCHAR 252C
ENCODING 9516
SWIDTH 1000 0
DWIDTH 20 0
BBX 20 10 0 -2
BITMAP
FFFFF0
004000
004000
004000
004000
004000
004000
004000
004000
004000
ENDCHAR
STARTCHAR 252F
ENCODING 9519
SWIDTH 1000 0
DWIDTH 20 0
BBX 20 11 0 -2
BITMAP
FFFFF0
FFFFF0
004000
004000
004000
004000
004000
004000
004000
004000
004000
ENDCHAR
STARTCHAR 2530
ENCODING 9520
SWIDTH 1000 0
DWIDTH 20 0
BBX 20 10 0 -2
BITMAP
FFFFF0
006000
006000
006000
006000
006000
006000
006000
006000
006000
ENDCHAR
STARTCHAR 2533
ENCODING 9523
SWIDTH 1000 0
DWIDTH 20 0
BBX 20 11 0 -2
BITMAP
FFFFF0
FFFFF0
006000
006000
006000
006000
006000
006000
006000
006000
006000
ENDCHAR
STARTCHAR 2534
ENCODING 9524
SWIDTH 1000 0
DWIDTH 20 0
BBX 20 11 0 7
BITMAP
004000
004000
004000
004000
004000
004000
004000
004000
004000
004000
FFFFF0
ENDCHAR
STARTCHAR 2537
ENCODING 9527
SWIDTH 1000 0
DWIDTH 20 0
BBX 20 11 0 7
BITMAP
004000
004000
004000
004000
004000
004000
004000
004000
004000
FFFFF0
FFFFF0
ENDCHAR
STARTCHAR 2538
ENCODING 9528
SWIDTH 1000 0
DWIDTH 20 0
BBX 20 11 0 7
BITMAP
006000
006000
006000
006000
006000
006000
006000
006000
006000
006000
FFFFF0
ENDCHAR
STARTCHAR 253B
ENCODING 9531
SWIDTH 1000 0
DWIDTH 20 0
BBX 20 11 0 7
BITMAP
006000
006000
006000
006000
006000
006000
006000
006000
006000
FFFFF0
FFFFF0
ENDCHAR
STARTCHAR 253C
ENCODING 9532
SWIDTH 1000 0
DWIDTH 20 0
BBX 20 20 0 -2
BITMAP
004000
004000
004000
004000
004000
004000
004000
004000
004000
004000
FFFFF0
004000
004000
004000
004000
004000
004000
004000
004000
004000
ENDCHAR
STARTCHAR 253F
ENCODING 9535
SWIDTH 1000 0
DWIDTH 20 0
BBX 20 20 0 -2
BITMAP
004000
004000
004000
004000
004000
004000
004000
004000
004000
FFFFF0
FFFFF0
004000
004000
004000
004000
004000
004000
004000
004000
004000
ENDCHAR
STARTCHAR 2542
ENCODING 9538
SWIDTH 1000 0
DWIDTH 20 0
BBX 20 20 0 -2
BITMAP
006000
006000
006000
006000
006000
006000
006000
006000
006000
006000
FFFFF0
006000
006000
006000
006000
006000
006000
006000
006000
006000
ENDCHAR
STARTCHAR 254B
ENCODING 9547
SWIDTH 1000 0
DWIDTH 20 0
BBX 20 20 0 -2
BITMAP
006000
006000
006000
006000
006000
006000
006000
006000
006000
FFFFF0
FFFFF0
006000
006000
006000
006000
006000
006000
006000
006000
006000
ENDCHAR
STARTCHAR 25A0
ENCODING 9632
SWIDTH 1000 0
DWIDTH 20 0
BBX 14 15 3 0
BITMAP
FFFC
FFFC
FFFC
FFFC
FFFC
FFFC
FFFC
FFFC
FFFC
FFFC
FFFC
FFFC
FFFC
FFFC
FFFC
ENDCHAR
STARTCHAR 25A1
ENCODING 9633
SWIDTH 1000 0
DWIDTH 20 0
BBX 14 15 3 0
BITMAP
FFFC
8004
8004
8004
8004
8004
8004
8004
8004
8004
8004
8004
8004
8004
FFFC
ENDCHAR
STARTCHAR 25B1
ENCODING 9649
SWIDTH 500 0
DWIDTH 10 0
BBX 8 5 1 5
BITMAP
3F
41
42
82
FC
ENDCHAR
STARTCHAR 25B2
ENCODING 9650
SWIDTH 1000 0
DWIDTH 20 0
BBX 16 16 2 0
BITMAP
0100
0180
0180
03C0
03C0
07E0
07E0
0FF0
0FF0
1FF8
1FF8
3FFC
3FFC
7FFE
7FFE
FFFF
ENDCHAR
STARTCHAR 25B3
ENCODING 9651
SWIDTH 1000 0
DWIDTH 20 0
BBX 16 16 2 0
BITMAP
0100
0180
0180
0240
0240
0420
0420
0810
0810
1008
1008
2004
2004
4002
4002
FFFF
ENDCHAR
STARTCHAR 25B6
ENCODING 9654
SWIDTH 500 0
DWIDTH 10 0
BBX 8 11 1 2
BITMAP
80
E0
F0
FC
FE
FF
FE
F8
F0
E0
80
ENDCHAR
STARTCHAR 25B7
ENCODING 9655
SWIDTH 500 0
DWIDTH 10 0
BBX 8 11 1 2
BITMAP
80
E0
90
8C
82
81
86
88
B0
E0
80
ENDCHAR
STARTCHAR 25BC
ENCODING 9660
SWIDTH 1000 0
DWIDTH 20 0
BBX 16 16 2 -1
BITMAP
FFFF
7FFE
7FFE
3FFC
3FFC
1FF8
1FF8
0FF0
0FF0
07E0
07E0
03C0
03C0
0180
0180
0100
ENDCHAR
STARTCHAR 25BD
ENCODING 9661
SWIDTH 1000 0
DWIDTH 20 0
BBX 16 16 2 -1
BITMAP
FFFF
4002
4002
2004
2004
1008
1008
0810
0810
0420
0420
0240
0240
0180
0180
0100
ENDCHAR
STARTCHAR 25C0
ENCODING 9664
SWIDTH 500 0
DWIDTH 10 0
BBX 8 11 1 2
BITMAP
01
07
0F
3F
7F
FF
7F
1F
0F
03
01
ENDCHAR
STARTCHAR 25C1
ENCODING 9665
SWIDTH 500 0
DWIDTH 10 0
BBX 8 11 1 2
BITMAP
01
07
09
31
41
81
61
11
0D
03
01
ENDCHAR
STARTCHAR 25C6
ENCODING 9670
SWIDTH 1000 0
DWIDTH 20 0
BBX 18 18 1 -1
BITMAP
008000
00C000
01E000
03F000
07F800
0FFC00
1FFE00
3FFF00
7FFF80
FFFFC0
7FFF80
3FFF00
1FFE00
0FFC00
07F800
03F000
01E000
00C000
ENDCHAR
STARTCHAR 25C7
ENCODING 9671
SWIDTH 1000 0
DWIDTH 20 0
BBX 18 18 1 -1
BITMAP
008000
00C000
012000
021000
040800
080400
100200
200100
400080
800040
400080
200100
100200
080400
040800
021000
012000
00C000
ENDCHAR
STARTCHAR 25C9
ENCODING 9673
SWIDTH 500 0
DWIDTH 10 0
BBX 10 9 0 3
BITMAP
1E00
2100
4C80
9E80
9E40
9E80
4C80
2100
1E00
ENDCHAR
STARTCHAR 25CB
ENCODING 9675
SWIDTH 1000 0
DWIDTH 20 0
BBX 16 17 2 -1
BITMAP
07E0
1818
300C
4002
4002
8001
8001
8001
8001
8001
8001
8001
4002
4002
300C
1818
07E0
ENDCHAR
STARTCHAR 25CE
ENCODING 9678
SWIDTH 1000 0
DWIDTH 20 0
BBX 16 17 2 -1
BITMAP
07E0
1818
2004
43C2
4C32
8811
9009
9009
9009
9009
8811
8C31
43C2
4002
2004
1818
07E0
ENDCHAR
STARTCHAR 25CF
ENCODING 9679
SWIDTH 1000 0
DWIDTH 20 0
BBX 16 17 2 -1
BITMAP
07E0
1FF8
3FFC
7FFE
7FFE
FFFF
FFFF
FFFF
FFFF
FFFF
FFFF
FFFF
7FFE
7FFE
3FFC
1FF8
07E0
ENDCHAR
STARTCHAR 25D0
ENCODING 9680
SWIDTH 500 0
DWIDTH 10 0
BBX 9 9 1 3
BITMAP
3C00
7200
F100
F100
F180
F100
F100
7200
3C00
ENDCHAR
STARTCHAR 25D1
ENCODING 9681
SWIDTH 500 0
DWIDTH 10 0
BBX 9 9 1 3
BITMAP
3C00
4E00
8F00
8F00
0F80
8F00
8F00
4E00
3C00
ENDCHAR
STARTCHAR 25D2
ENCODING 9682
SWIDTH 500 0
DWIDTH 10 0
BBX 9 10 1 3
BITMAP
3C00
4200
8100
8100
8100
FF80
FF00
FF00
7E00
3C00
ENDCHAR
STARTCHAR 25D3
ENCODING 9683
SWIDTH 500 0
DWIDTH 10 0
BBX 9 10 1 3
BITMAP
3C00
7E00
FF00
FF00
FF00
8180
8100
8100
4200
3C00
ENDCHAR
STARTCHAR 25E6
ENCODING 9702
SWIDTH 500 0
DWIDTH 10 0
BBX 4 5 3 5
BITMAP
60
90
90
90
60
ENDCHAR
STARTCHAR 25EF
ENCODING 9711
SWIDTH 1000 0
DWIDTH 20 0
BBX 18 18 1 -1
BITMAP
03F000
040800
180600
200100
400080
400080
800040
800040
800040
800040
800040
800040
800080
400080
200100
100200
0C0400
03F800
ENDCHAR
STARTCHAR 2600
ENCODING 9728
SWIDTH 1000 0
DWIDTH 20 0
BBX 18 19 1 -2
BITMAP
008000
008000
008000
208100
11E200
0BFC00
07F800
0FFC00
0FFC00
EFFDC0
0FFC00
07F800
07F800
09E400
100200
208100
008000
008000
008000
ENDCHAR
STARTCHAR 2601
ENCODING 9729
SWIDTH 1000 0
DWIDTH 20 0
BBX 18 14 1 -1
BITMAP
03C000
07E000
0FF000
0FF380
0FFF80
0FFFC0
3FFFC0
7FFF80
FFFF00
FFFF80
FF7FC0
7E7FC0
3C3F80
001F00
ENDCHAR
STARTCHAR 2602
ENCODING 9730
SWIDTH 1000 0
DWIDTH 20 0
BBX 18 19 1 -2
BITMAP
008000
008000
03F000
1FFE00
3FFF00
7FFF80
7FFF80
9CCE40
888440
888440
008000
008000
008000
008000
008000
008000
028000
028000
038000
ENDCHAR
STARTCHAR 2603
ENCODING 9731
SWIDTH 1000 0
DWIDTH 20 0
BBX 18 18 1 -1
BITMAP
819040
082840
184400
004300
C18200
0E4380
103C00
112200
D12200
500400
09E8C0
900600
A0C100
40C100
400100
40C100
20C100
1FFE00
ENDCHAR
STARTCHAR 2605
ENCODING 9733
SWIDTH 1000 0
DWIDTH 20 0
BBX 19 19 1 -2
BITMAP
008000
008000
00C000
00C000
00C000
01E000
01E000
FFFFE0
3FFF00
1FFE00
0FFC00
07F800
07F800
0FFC00
0F3C00
0E1C00
1C0E00
100200
200200
ENDCHAR
STARTCHAR 2606
ENCODING 9734
SWIDTH 1000 0
DWIDTH 20 0
BBX 19 19 1 -2
BITMAP
008000
008000
00C000
00C000
014000
012000
012000
FF3FE0
400080
300300
080400
040800
040800
088800
09E400
0A1400
140C00
180600
200200
ENDCHAR
STARTCHAR 260E
ENCODING 9742
SWIDTH 1000 0
DWIDTH 20 0
BBX 18 15 1 0
BITMAP
1FFE00
7FFF80
F61BC0
E619C0
E7F9C0
0FF800
0E1C00
1C0E00
1C0E00
1C0E00
3C0F00
7C0F80
7E1F80
7FFF80
FFFFC0
ENDCHAR
STARTCHAR 2616
ENCODING 9750
SWIDTH 1000 0
DWIDTH 20 0
BBX 16 16 2 0
BITMAP
0180
0660
1818
2004
4002
4002
4002
4002
4002
4002
4002
8002
8001
8001
8001
FFFF
ENDCHAR
STARTCHAR 2617
ENCODING 9751
SWIDTH 1000 0
DWIDTH 20 0
BBX 16 16 2 0
BITMAP
0180
07E0
0FF0
3FFC
7FFE
7FFE
7FFE
7FFE
7FFE
7FFE
7FFE
7FFE
FFFF
FFFF
FFFF
FFFF
ENDCHAR
STARTCHAR 261E
ENCODING 9758
SWIDTH 1000 0
DWIDTH 20 0
BBX 18 8 1 4
BITMAP
71CF80
963040
981080
91FF00
9E5200
906C00
98D400
F7F800
ENDCHAR
STARTCHAR 2640
ENCODING 9792
SWIDTH 1000 0
DWIDTH 20 0
BBX 12 18 4 -1
BITMAP
0F00
1080
2040
2040
4040
4040
2040
2040
1080
0F00
0400
0400
FFF0
0400
0400
0400
0400
0400
ENDCHAR
STARTCHAR 2642
ENCODING 9794
SWIDTH 1000 0
DWIDTH 20 0
BBX 16 16 2 -1
BITMAP
007F
0003
0005
0009
0011
0021
0041
3C80
4300
8100
8080
8080
8080
8100
4300
3C00
ENDCHAR
STARTCHAR 2660
ENCODING 9824
SWIDTH 500 0
DWIDTH 10 0
BBX 8 12 1 2
BITMAP
10
18
3C
3C
7E
FF
FF
FF
FF
FF
18
3C
ENDCHAR
STARTCHAR 2661
ENCODING 9825
SWIDTH 500 0
DWIDTH 10 0
BBX 8 11 1 2
BITMAP
E7
99
91
81
81
81
82
42
24
18
18
ENDCHAR
STARTCHAR 2662
ENCODING 9826
SWIDTH 500 0
DWIDTH 10 0
BBX 8 13 1 1
BITMAP
10
18
24
24
42
81
81
82
42
24
24
18
10
ENDCHAR
STARTCHAR 2663
ENCODING 9827
SWIDTH 500 0
DWIDTH 10 0
BBX 10 11 0 2
BITMAP
0C00
1E00
1E00
1E00
7F80
FFC0
FFC0
7F80
7F80
0C00
1E00
ENDCHAR
STARTCHAR 2664
ENCODING 9828
SWIDTH 500 0
DWIDTH 10 0
BBX 8 12 1 2
BITMAP
10
18
24
42
81
81
81
99
FF
28
28
3C
ENDCHAR
STARTCHAR 2665
ENCODING 9829
SWIDTH 500 0
DWIDTH 10 0
BBX 8 11 1 2
BITMAP
E7
FF
FF
FF
FF
FF
7E
7E
3C
18
18
ENDCHAR
STARTCHAR 2666
ENCODING 9830
SWIDTH 500 0
DWIDTH 10 0
BBX 8 13 1 1
BITMAP
10
18
3C
3C
7E
FF
FF
7E
7E
3C
3C
18
10
ENDCHAR
STARTCHAR 2667
ENCODING 9831
SWIDTH 500 0
DWIDTH 10 0
BBX 10 11 0 2
BITMAP
0C00
1200
2200
1200
7380
8040
8040
7F80
1400
1400
1E00
ENDCHAR
STARTCHAR 2668
ENCODING 9832
SWIDTH 1000 0
DWIDTH 20 0
BBX 16 15 2 1
BITMAP
0100
1210
1210
1210
1310
1110
0988
0888
488C
888B
8889
9091
8101
7006
1FF8
ENDCHAR
STARTCHAR 2669
ENCODING 9833
SWIDTH 500 0
DWIDTH 10 0
BBX 4 11 2 2
BITMAP
10
10
10
10
10
10
10
10
70
F0
60
ENDCHAR
STARTCHAR 266A
ENCODING 9834
SWIDTH 1000 0
DWIDTH 20 0
BBX 13 17 4 -1
BITMAP
0400
0400
0700
0780
04C0
0460
0430
0418
0418
0410
0410
0460
0400
7C00
F800
F800
F000
ENDCHAR
STARTCHAR 266B
ENCODING 9835
SWIDTH 500 0
DWIDTH 10 0
BBX 8 11 1 2
BITMAP
07
3F
21
21
21
21
21
21
27
E7
C0
ENDCHAR
STARTCHAR 266C
ENCODING 9836
SWIDTH 500 0
DWIDTH 10 0
BBX 8 11 1 2
BITMAP
07
3D
23
3F
21
21
21
21
27
E7
C0
ENDCHAR
STARTCHAR 266D
ENCODING 9837
SWIDTH 1000 0
DWIDTH 20 0
BBX 7 17 7 -1
BITMAP
80
80
80
80
80
80
BC
C6
86
86
86
84
8C
88
90
E0
80
ENDCHAR
STARTCHAR 266E
ENCODING 9838
SWIDTH 500 0
DWIDTH 10 0
BBX 4 11 3 2
BITMAP
80
80
B0
F0
90
90
90
F0
90
10
10
ENDCHAR
STARTCHAR 266F
ENCODING 9839
SWIDTH 1000 0
DWIDTH 20 0
BBX 12 17 4 -1
BITMAP
1080
1080
1080
10F0
17E0
FE80
D080
1080
1080
10B0
17F0
7E80
F080
1080
1080
1080
1000
ENDCHAR
STARTCHAR 2713
ENCODING 10003
SWIDTH 1000 0
DWIDTH 20 0
BBX 13 14 5 1
BITMAP
0010
0018
0020
0020
0040
0080
0100
0300
8600
8400
C800
5000
7000
2000
ENDCHAR
STARTCHAR 2756
ENCODING 10070
SWIDTH 1000 0
DWIDTH 20 0
BBX 18 18 1 -1
BITMAP
008000
00C000
01E000
03F000
07F800
13F400
19E600
3CCF00
7E1F80
FF3FC0
7E9F80
3CCF00
19E600
03F000
07F800
03F000
01E000
00C000
ENDCHAR
STARTCHAR 2776
ENCODING 10102
SWIDTH 1000 0
DWIDTH 20 0
BBX 18 18 1 -1
BITMAP
03F000
0FFC00
1FFE00
3E3F00
7F3F80
7FBF80
FFBFC0
FFBFC0
FFBFC0
FFBFC0
FFBFC0
FFBFC0
7FBF80
7F3F80
3E1F00
1FFE00
0FFC00
03F000
ENDCHAR
STARTCHAR 2777
ENCODING 10103
SWIDTH 1000 0
DWIDTH 20 0
BBX 18 18 1 -1
BITMAP
03F000
0FFC00
1FFE00
3FDF00
7DEF80
79E780
F9E7C0
FFEFC0
FFCFC0
FF9FC0
FF3FC0
FE7FC0
7EF780
7DF780
3A0700
1FFE00
0FFC00
03F000
ENDCHAR
STARTCHAR 2778
ENCODING 10104
SWIDTH 1000 0
DWIDTH 20 0
BBX 18 18 1 -2
BITMAP
03F000
0FFC00
3E1F00
3DEF00
79E780
79E780
FFE7C0
FFCFC0
FE3FC0
FFEFC0
FFF7C0
F9F7C0
79F780
7BE780
3FFF00
1FFE00
0FFC00
03F000
ENDCHAR
STARTCHAR 2779
ENCODING 10105
SWIDTH 1000 0
DWIDTH 20 0
BBX 18 18 1 -1
BITMAP
03F000
0FFC00
1FFE00
3FDF00
7F9F80
7F5F80
FEDFC0
FFDFC0
FDDFC0
FBDFC0
F7DFC0
F007C0
7FDF80
7FDF80
3F8F00
1FFE00
0FFC00
03F000
ENDCHAR
STARTCHAR 277A
ENCODING 10106
SWIDTH 1000 0
DWIDTH 20 0
BBX 18 19 1 -2
BITMAP
03F000
0FFC00
1FFE00
3C0F00
7C0F80
7DFF80
FDFFC0
FDFFC0
FE1FC0
FDE7C0
FFE7C0
FFF7C0
F9F7C0
79E780
7FEF80
3FDF00
1FFE00
0FFC00
03F000
ENDCHAR
STARTCHAR 277B
ENCODING 10107
SWIDTH 1000 0
DWIDTH 20 0
BBX 18 18 1 -1
BITMAP
03F000
07F800
1FFE00
3F1F00
7EEF80
7DE780
F9FFC0
FBFFC0
FA1FC0
F9EFC0
FBE7C0
FBF7C0
79F780
7DE780
3CCF00
1E1E00
0FFC00
03F000
ENDCHAR
STARTCHAR 277C
ENCODING 10108
SWIDTH 1000 0
DWIDTH 20 0
BBX 18 18 1 -2
BITMAP
03F000
0FFC00
1FFE00
380700
79F780
7BEF80
FBEFC0
FFDFC0
FFDFC0
FF9FC0
FFBFC0
FFBFC0
7F3F80
7F3F80
3F3F00
1FFE00
0FFC00
03F000
ENDCHAR
STARTCHAR 277D
ENCODING 10109
SWIDTH 1000 0
DWIDTH 20 0
BBX 18 18 1 -1
BITMAP
03F000
07F800
1FFE00
3E1F00
7CEF80
79E780
F9E7C0
FDEFC0
FEDFC0
FFBFC0
FDEFC0
FBE7C0
7BF780
7BF780
39E700
1E1E00
0FFC00
03F000
ENDCHAR
STARTCHAR 277E
ENCODING 10110
SWIDTH 1000 0
DWIDTH 20 0
BBX 18 18 1 -1
BITMAP
03F000
07F800
1FFE00
3E1F00
7CCF80
79E780
FBF7C0
FBF7C0
F9F7C0
FDF7C0
FE17C0
FFF7C0
79E780
79EF80
3DCF00
1E1E00
0FFC00
03F000
ENDCHAR
STARTCHAR 277F
ENCODING 10111
SWIDTH 1000 0
DWIDTH 20 0
BBX 18 18 1 -1
BITMAP
03F000
0FFC00
1FFE00
3BC700
739380
7BBB80
FBBBC0
FBB9C0
FB39C0
FB39C0
FBB9C0
FBB9C0
7BBB80
7BBB80
31D700
1FFE00
0FFC00
03F000
ENDCHAR
STARTCHAR 2934
ENCODING 10548
SWIDTH 500 0
DWIDTH 10 0
BBX 8 15 1 0
BITMAP
0C
1E
2A
29
49
08
08
08
08
08
08
08
08
18
F0
ENDCHAR
STARTCHAR 2935
ENCODING 10549
SWIDTH 500 0
DWIDTH 10 0
BBX 8 15 1 0
BITMAP
F0
18
08
08
08
08
08
08
08
08
49
29
2A
1E
0C
ENDCHAR
STARTCHAR 29BF
ENCODING 10687
SWIDTH 1000 0
DWIDTH 20 0
BBX 16 17 2 -1
BITMAP
07E0
1818
2004
4002
4002
83C1
83C1
87E1
87E1
83C1
83C1
8001
4002
4002
2004
1818
07E0
ENDCHAR
STARTCHAR 29FA
ENCODING 10746
SWIDTH 500 0
DWIDTH 10 0
BBX 8 11 1 2
BITMAP
24
24
24
24
24
FF
24
24
24
24
24
ENDCHAR
STARTCHAR 29FB
ENCODING 10747
SWIDTH 500 0
DWIDTH 10 0
BBX 8 11 1 2
BITMAP
52
52
52
52
52
FF
52
52
52
52
52
ENDCHAR
STARTCHAR 3000
ENCODING 12288
SWIDTH 1000 0
DWIDTH 20 0
BBX 0 0 0 0
BITMAP
ENDCHAR
STARTCHAR 3001
ENCODING 12289
SWIDTH 1000 0
DWIDTH 20 0
BBX 4 4 1 -1
BITMAP
80
60
30
30
ENDCHAR
STARTCHAR 3002
ENCODING 12290
SWIDTH 1000 0
DWIDTH 20 0
BBX 5 5 1 -2
BITMAP
70
88
88
88
70
ENDCHAR
STARTCHAR 3003
ENCODING 12291
SWIDTH 1000 0
DWIDTH 20 0
BBX 9 9 5 4
BITMAP
1980
1100
1300
3300
2200
2200
4400
8800
8800
ENDCHAR
STARTCHAR 3005
ENCODING 12293
SWIDTH 1000 0
DWIDTH 20 0
BBX 13 12 3 2
BITMAP
0600
0600
0400
0C30
0BF8
1020
2040
4080
8F00
0180
00C0
0040
ENDCHAR
STARTCHAR 3006
ENCODING 12294
SWIDTH 1000 0
DWIDTH 20 0
BBX 14 15 3 0
BITMAP
0018
000C
0010
0020
0C40
1280
2100
2280
2480
4440
4840
5000
6000
E000
4000
ENDCHAR
STARTCHAR 3007
ENCODING 12295
SWIDTH 1000 0
DWIDTH 20 0
BBX 16 16 2 0
BITMAP
03E0
0C18
1004
6002
4002
8001
8001
8001
8001
8001
8001
4002
4002
3004
1818
07E0
ENDCHAR
STARTCHAR 3008
ENCODING 12296
SWIDTH 1000 0
DWIDTH 20 0
BBX 8 18 11 -1
BITMAP
03
02
04
08
18
10
20
40
C0
C0
40
20
10
18
08
04
02
03
ENDCHAR
STARTCHAR 3009
ENCODING 12297
SWIDTH 1000 0
DWIDTH 20 0
BBX 8 18 1 -1
BITMAP
C0
40
20
10
18
08
04
02
03
03
02
04
08
18
10
20
40
C0
ENDCHAR
STARTCHAR 300A
ENCODING 12298
SWIDTH 1000 0
DWIDTH 20 0
BBX 8 18 11 -1
BITMAP
0D
0A
12
14
24
28
48
90
A0
A0
90
48
28
24
14
12
0A
0D
ENDCHAR
STARTCHAR 300B
ENCODING 12299
SWIDTH 1000 0
DWIDTH 20 0
BBX 8 18 1 -1
BITMAP
A0
90
48
28
24
14
12
0A
09
0D
0A
12
14
24
28
48
90
A0
ENDCHAR
STARTCHAR 300C
ENCODING 12300
SWIDTH 1000 0
DWIDTH 20 0
BBX 5 15 13 2
BITMAP
F8
80
80
80
80
80
80
80
80
80
80
80
80
80
80
ENDCHAR
STARTCHAR 300D
ENCODING 12301
SWIDTH 1000 0
DWIDTH 20 0
BBX 5 14 2 -1
BITMAP
08
08
08
08
08
08
08
08
08
08
08
08
08
F8
ENDCHAR
STARTCHAR 300E
ENCODING 12302
SWIDTH 1000 0
DWIDTH 20 0
BBX 6 15 12 2
BITMAP
FC
84
84
BC
A0
A0
A0
A0
A0
A0
A0
A0
A0
A0
E0
ENDCHAR
STARTCHAR 300F
ENCODING 12303
SWIDTH 1000 0
DWIDTH 20 0
BBX 6 14 2 -1
BITMAP
1C
14
14
14
14
14
14
14
14
14
14
F4
84
FC
ENDCHAR
STARTCHAR 3010
ENCODING 12304
SWIDTH 1000 0
DWIDTH 20 0
BBX 4 18 14 -1
BITMAP
F0
E0
C0
C0
C0
80
80
80
80
80
80
80
80
C0
C0
C0
E0
F0
ENDCHAR
STARTCHAR 3011
ENCODING 12305
SWIDTH 1000 0
DWIDTH 20 0
BBX 4 18 2 -1
BITMAP
F0
70
30
30
30
10
10
10
10
10
10
10
10
10
30
30
70
F0
ENDCHAR
STARTCHAR 3012
ENCODING 12306
SWIDTH 1000 0
DWIDTH 20 0
BBX 14 16 3 -1
BITMAP
FFFC
FFFC
0000
0000
0000
FFFC
FFFC
0300
0300
0300
0300
0300
0300
0300
0300
0300
ENDCHAR
STARTCHAR 3013
ENCODING 12307
SWIDTH 1000 0
DWIDTH 20 0
BBX 14 9 3 3
BITMAP
FFFC
FFFC
FFFC
0000
0000
0000
FFFC
FFFC
FFFC
ENDCHAR
STARTCHAR 3014
ENCODING 12308
SWIDTH 1000 0
DWIDTH 20 0
BBX 4 19 14 -2
BITMAP
10
30
C0
80
80
80
80
80
80
80
80
80
80
80
80
80
C0
30
10
ENDCHAR
STARTCHAR 3015
ENCODING 12309
SWIDTH 1000 0
DWIDTH 20 0
BBX 4 19 2 -2
BITMAP
80
C0
30
10
10
10
10
10
10
10
10
10
10
10
10
10
30
C0
80
ENDCHAR
STARTCHAR 3016
ENCODING 12310
SWIDTH 1000 0
DWIDTH 20 0
BBX 5 18 13 -1
BITMAP
F8
90
A0
A0
C0
C0
C0
C0
C0
C0
C0
C0
C0
A0
A0
A0
90
F8
ENDCHAR
STARTCHAR 3017
ENCODING 12311
SWIDTH 1000 0
DWIDTH 20 0
BBX 5 18 2 -1
BITMAP
F8
88
48
28
28
28
18
18
18
18
18
18
28
28
28
48
88
F8
ENDCHAR
STARTCHAR 3018
ENCODING 12312
SWIDTH 1000 0
DWIDTH 20 0
BBX 5 19 13 -2
BITMAP
08
18
68
88
B0
A0
A0
A0
A0
A0
A0
A0
A0
A0
B0
88
48
38
08
ENDCHAR
STARTCHAR 3019
ENCODING 12313
SWIDTH 1000 0
DWIDTH 20 0
BBX 5 19 2 -2
BITMAP
80
C0
B0
88
68
28
28
28
28
28
28
28
28
28
68
88
90
E0
80
ENDCHAR
STARTCHAR 301C
ENCODING 12316
SWIDTH 1000 0
DWIDTH 20 0
BBX 16 5 2 5
BITMAP
1C00
6301
8181
00C6
0038
ENDCHAR
STARTCHAR 301D
ENCODING 12317
SWIDTH 1000 0
DWIDTH 20 0
BBX 6 8 13 9
BITMAP
80
C0
30
08
C4
60
10
0C
ENDCHAR
STARTCHAR 301F
ENCODING 12319
SWIDTH 1000 0
DWIDTH 20 0
BBX 6 7 1 -1
BITMAP
C0
20
18
8C
60
10
0C
ENDCHAR
STARTCHAR 3020
ENCODING 12320
SWIDTH 1000 0
DWIDTH 20 0
BBX 18 14 1 0
BITMAP
3FFF00
3FFF00
000000
3FFF00
3FFF00
00C000
FCDEC0
94CA40
88CC40
44C880
241100
122200
0DCC00
07F000
ENDCHAR
STARTCHAR 3033
ENCODING 12339
SWIDTH 1000 0
DWIDTH 20 0
BBX 6 17 6 -2
BITMAP
08
0C
0C
0C
08
18
10
10
20
20
40
40
40
80
80
80
80
ENDCHAR
STARTCHAR 3034
ENCODING 12340
SWIDTH 1000 0
DWIDTH 20 0
BBX 11 17 6 -2
BITMAP
0800
0C00
0C00
0C00
0800
1800
1000
1000
2000
2080
4240
4160
4180
8000
8000
8000
8000
ENDCHAR
STARTCHAR 3035
ENCODING 12341
SWIDTH 1000 0
DWIDTH 20 0
BBX 7 18 6 0
BITMAP
80
80
80
80
40
60
20
30
10
18
08
0C
04
06
06
06
02
02
ENDCHAR
STARTCHAR 303B
ENCODING 12347
SWIDTH 1000 0
DWIDTH 20 0
BBX 8 13 6 1
BITMAP
20
20
18
0C
18
20
20
30
1C
07
1A
60
80
ENDCHAR
STARTCHAR 303C
ENCODING 12348
SWIDTH 1000 0
DWIDTH 20 0
BBX 17 17 2 -1
BITMAP
FFFF80
000380
000680
000C80
001880
003080
006080
00C080
018080
030080
060080
0C0080
180080
300080
600080
C00080
FFFF80
ENDCHAR
STARTCHAR 303D
ENCODING 12349
SWIDTH 1000 0
DWIDTH 20 0
BBX 15 17 3 -1
BITMAP
3000
D180
0A80
0440
0040
0040
0020
0020
0020
0010
0010
0010
0008
0008
000C
0004
0006
ENDCHAR
STARTCHAR 3041
ENCODING 12353
SWIDTH 1000 0
DWIDTH 20 0
BBX 13 14 4 -1
BITMAP
0C00
0400
4980
3E00
0900
0FC0
1930
2910
4A08
8C08
8810
9810
E860
0380
ENDCHAR
STARTCHAR 3042
ENCODING 12354
SWIDTH 1000 0
DWIDTH 20 0
BBX 16 17 2 -1
BITMAP
0600
0300
0230
23E0
1E00
0240
02F0
076C
1A42
22C3
6281
4303
C203
CE02
7204
0218
00E0
ENDCHAR
STARTCHAR 3043
ENCODING 12355
SWIDTH 1000 0
DWIDTH 20 0
BBX 14 11 3 0
BITMAP
C040
4020
4018
4008
400C
4404
4804
4800
2800
3000
1800
ENDCHAR
STARTCHAR 3044
ENCODING 12356
SWIDTH 1000 0
DWIDTH 20 0
BBX 16 12 2 1
BITMAP
C020
4018
4004
4006
4002
4403
4401
4801
4800
2800
3800
1800
ENDCHAR
STARTCHAR 3045
ENCODING 12357
SWIDTH 1000 0
DWIDTH 20 0
BBX 10 14 5 -1
BITMAP
3000
0E00
1000
0000
0F00
B180
C080
00C0
00C0
0080
0080
0100
0600
3800
ENDCHAR
STARTCHAR 3046
ENCODING 12358
SWIDTH 1000 0
DWIDTH 20 0
BBX 11 17 4 -1
BITMAP
1000
0F00
0880
1000
0000
1F80
F840
C020
0020
0020
0020
0020
0040
00C0
0100
0600
3800
ENDCHAR
STARTCHAR 3047
ENCODING 12359
SWIDTH 1000 0
DWIDTH 20 0
BBX 13 14 4 -1
BITMAP
1800
0780
0800
0000
4380
3DC0
0200
0400
0F00
1900
3100
6100
C080
80F8
ENDCHAR
STARTCHAR 3048
ENCODING 12360
SWIDTH 1000 0
DWIDTH 20 0
BBX 15 16 3 0
BITMAP
0800
0780
03C0
0C00
0060
43A0
3C40
0180
0300
0600
0B80
1C80
30C0
6040
C040
803E
ENDCHAR
STARTCHAR 3049
ENCODING 12361
SWIDTH 1000 0
DWIDTH 20 0
BBX 13 13 4 0
BITMAP
2000
1040
1030
1618
FC08
1000
1000
17C0
3830
D010
9010
9030
67C0
ENDCHAR
STARTCHAR 304A
ENCODING 12362
SWIDTH 1000 0
DWIDTH 20 0
BBX 16 15 2 0
BITMAP
1C00
0C1C
0806
0983
FE01
0800
0800
08F8
0F0C
1806
6802
4802
C806
490C
38F8
ENDCHAR
STARTCHAR 304B
ENCODING 12363
SWIDTH 1000 0
DWIDTH 20 0
BBX 17 15 2 0
BITMAP
0E0000
060000
041000
040C00
9F8200
E8C300
084100
084180
104F80
104080
204000
288000
448000
C30000
820000
ENDCHAR
STARTCHAR 304C
ENCODING 12364
SWIDTH 1000 0
DWIDTH 20 0
BBX 18 17 2 0
BITMAP
000100
000480
0E02C0
060100
041000
040C00
9F8200
E8C300
084100
084180
104F80
104080
204000
288000
448000
C30000
820000
ENDCHAR
STARTCHAR 304D
ENCODING 12365
SWIDTH 1000 0
DWIDTH 20 0
BBX 13 16 4 0
BITMAP
1C00
0400
06C0
0380
FE00
0118
0170
8380
7C80
0040
0140
00E0
4020
4000
3000
0FC0
ENDCHAR
STARTCHAR 304E
ENCODING 12366
SWIDTH 1000 0
DWIDTH 20 0
BBX 15 17 4 0
BITMAP
0004
1C22
041A
06CC
0380
FE00
0118
0170
8380
7C80
0040
0140
00E0
4020
4000
3000
0FC0
ENDCHAR
STARTCHAR 304F
ENCODING 12367
SWIDTH 1000 0
DWIDTH 20 0
BBX 9 17 5 -1
BITMAP
0300
0380
0600
0C00
1000
6000
C000
8000
8000
6000
1000
0C00
0600
0300
0180
0180
0080
ENDCHAR
STARTCHAR 3050
ENCODING 12368
SWIDTH 1000 0
DWIDTH 20 0
BBX 12 17 5 -1
BITMAP
0300
0380
0600
0C00
1030
6090
C040
8060
8000
6000
1000
0C00
0600
0300
0180
0180
0080
ENDCHAR
STARTCHAR 3051
ENCODING 12369
SWIDTH 1000 0
DWIDTH 20 0
BBX 15 17 3 -1
BITMAP
8060
4030
6010
4010
4816
443C
C3D0
8010
8010
8010
A010
A030
A020
C020
4040
4080
0300
ENDCHAR
STARTCHAR 3052
ENCODING 12370
SWIDTH 1000 0
DWIDTH 20 0
BBX 17 18 3 -1
BITMAP
000200
806980
403480
601200
401000
481600
443C00
C3D000
801000
801000
801000
A01000
A03000
A02000
C02000
404000
408000
030000
ENDCHAR
STARTCHAR 3053
ENCODING 12371
SWIDTH 1000 0
DWIDTH 20 0
BBX 13 13 3 1
BITMAP
3FE0
0180
0200
0400
0000
0000
0000
0000
0000
8000
4000
2018
1FF8
ENDCHAR
STARTCHAR 3054
ENCODING 12372
SWIDTH 1000 0
DWIDTH 20 0
BBX 16 16 3 1
BITMAP
0002
0009
0005
3FE4
0180
0200
0400
0000
0000
0000
0000
0000
8000
4000
2018
1FF8
ENDCHAR
STARTCHAR 3055
ENCODING 12373
SWIDTH 1000 0
DWIDTH 20 0
BBX 13 16 3 0
BITMAP
0E00
0200
0218
0130
81C0
7F80
0080
0040
0040
0120
00F0
4030
2000
2000
1800
07E0
ENDCHAR
STARTCHAR 3056
ENCODING 12374
SWIDTH 1000 0
DWIDTH 20 0
BBX 17 17 3 0
BITMAP
000300
0E0980
020680
021A00
013000
81C000
7F8000
008000
004000
004000
012000
00F000
403000
200000
200000
180000
07E000
ENDCHAR
STARTCHAR 3057
ENCODING 12375
SWIDTH 1000 0
DWIDTH 20 0
BBX 13 16 4 0
BITMAP
C000
6000
6000
6000
6000
4000
4000
4000
4000
4008
4008
4010
4010
6020
30C0
1F00
ENDCHAR
STARTCHAR 3058
ENCODING 12376
SWIDTH 1000 0
DWIDTH 20 0
BBX 13 16 4 0
BITMAP
C000
6000
6040
6220
61B0
40C0
4000
4000
4000
4008
4008
4010
4010
6020
30C0
1F00
ENDCHAR
STARTCHAR 3059
ENCODING 12377
SWIDTH 1000 0
DWIDTH 20 0
BBX 18 19 1 -2
BITMAP
00E000
006000
006000
006000
807FC0
7FC000
004000
01C000
022000
022000
062000
063000
026000
03A000
002000
006000
004000
008000
010000
ENDCHAR
STARTCHAR 305A
ENCODING 12378
SWIDTH 1000 0
DWIDTH 20 0
BBX 18 19 1 -2
BITMAP
00E0C0
006340
006100
006000
807FC0
7FC000
004000
01C000
022000
022000
062000
063000
026000
03A000
002000
006000
004000
008000
010000
ENDCHAR
STARTCHAR 305B
ENCODING 12379
SWIDTH 1000 0
DWIDTH 20 0
BBX 18 16 1 0
BITMAP
000800
181C00
0C0C00
040800
040800
047FC0
9F8800
E40800
040800
046800
041000
041000
040000
040000
020600
01FF00
ENDCHAR
STARTCHAR 305C
ENCODING 12380
SWIDTH 1000 0
DWIDTH 20 0
BBX 19 17 1 0
BITMAP
0000C0
000A60
181DA0
0C0C80
040800
040800
047FC0
9F8800
E40800
040800
046800
041000
041000
040000
040000
020600
01FF00
ENDCHAR
STARTCHAR 305D
ENCODING 12381
SWIDTH 1000 0
DWIDTH 20 0
BBX 16 16 2 0
BITMAP
0030
11D8
0E20
00C0
0100
0200
0C3F
9FC0
6180
0200
0200
0200
0200
0200
0100
00F8
ENDCHAR
STARTCHAR 305E
ENCODING 12382
SWIDTH 1000 0
DWIDTH 20 0
BBX 17 17 2 0
BITMAP
000180
003480
11DA00
0E2300
00C000
010000
020000
0C3F00
9FC000
618000
020000
020000
020000
020000
020000
010000
00F800
ENDCHAR
STARTCHAR 305F
ENCODING 12383
SWIDTH 1000 0
DWIDTH 20 0
BBX 16 16 2 0
BITMAP
0600
0200
0200
06C0
4780
3C00
083E
08D8
1820
1000
1000
2000
6200
4100
C086
807F
ENDCHAR
STARTCHAR 3060
ENCODING 12384
SWIDTH 1000 0
DWIDTH 20 0
BBX 16 16 2 0
BITMAP
0606
0219
020C
06C4
4780
3C00
083E
08D8
1820
1000
1000
2000
6200
4100
C086
807F
ENDCHAR
STARTCHAR 3061
ENCODING 12385
SWIDTH 1000 0
DWIDTH 20 0
BBX 15 16 2 0
BITMAP
0C00
0400
0400
84C0
7F00
0800
0800
0800
18F8
1B04
1C06
0806
0004
000C
0018
03E0
ENDCHAR
STARTCHAR 3062
ENCODING 12386
SWIDTH 1000 0
DWIDTH 20 0
BBX 15 17 2 0
BITMAP
000C
0C26
041A
0408
84C0
7F00
0800
0800
0800
18F8
1B04
1C06
0806
0004
000C
0018
03E0
ENDCHAR
STARTCHAR 3063
ENCODING 12387
SWIDTH 1000 0
DWIDTH 20 0
BBX 14 9 3 1
BITMAP
03F0
9C18
6008
000C
000C
0008
0018
0020
07C0
ENDCHAR
STARTCHAR 3064
ENCODING 12388
SWIDTH 1000 0
DWIDTH 20 0
BBX 16 12 2 1
BITMAP
00F8
0706
9802
E003
0003
0003
0002
0006
000C
0018
00E0
0700
ENDCHAR
STARTCHAR 3065
ENCODING 12389
SWIDTH 1000 0
DWIDTH 20 0
BBX 18 16 2 1
BITMAP
000180
0004C0
000200
000300
00F800
070600
980200
E00300
000300
000300
000200
000600
000C00
001800
00E000
070000
ENDCHAR
STARTCHAR 3066
ENCODING 12390
SWIDTH 1000 0
DWIDTH 20 0
BBX 15 15 2 0
BITMAP
001E
01FE
8E40
F080
0100
0200
0200
0200
0600
0600
0600
0200
0200
010C
00FC
ENDCHAR
STARTCHAR 3067
ENCODING 12391
SWIDTH 1000 0
DWIDTH 20 0
BBX 17 15 2 0
BITMAP
001E00
01FE00
8E4000
F08000
010300
020D80
020600
020200
060000
060000
060000
020000
020000
010C00
00FC00
ENDCHAR
STARTCHAR 3068
ENCODING 12392
SWIDTH 1000 0
DWIDTH 20 0
BBX 12 16 4 0
BITMAP
7000
1000
1000
1040
1020
10E0
0B80
0E00
1800
2000
4000
8000
8000
8000
4070
3FF0
ENDCHAR
STARTCHAR 3069
ENCODING 12393
SWIDTH 1000 0
DWIDTH 20 0
BBX 15 17 4 0
BITMAP
0008
7004
1032
1008
1040
1020
10E0
0B80
0E00
1800
2000
4000
8000
8000
8000
4070
3FF0
ENDCHAR
STARTCHAR 306A
ENCODING 12394
SWIDTH 1000 0
DWIDTH 20 0
BBX 16 16 2 0
BITMAP
0600
0600
05A0
7F1C
0C0E
0832
1840
1020
2020
6020
4020
C3E0
0C38
0826
0423
03C0
ENDCHAR
STARTCHAR 306B
ENCODING 12395
SWIDTH 1000 0
DWIDTH 20 0
BBX 15 15 3 0
BITMAP
4000
6418
63F0
4040
4180
8000
8000
8000
A000
A000
A400
C200
C30C
40FE
4000
ENDCHAR
STARTCHAR 306C
ENCODING 12396
SWIDTH 1000 0
DWIDTH 20 0
BBX 17 15 2 1
BITMAP
010000
208000
208000
10F000
179800
190400
310200
310200
520200
CA0300
8C0200
8C3A00
8C4600
948500
667980
ENDCHAR
STARTCHAR 306D
ENCODING 12397
SWIDTH 1000 0
DWIDTH 20 0
BBX 17 16 2 0
BITMAP
1C0000
040000
040000
040000
8C3800
76C400
050200
0E0200
180200
380200
280200
487A00
A88600
988700
088D80
087880
ENDCHAR
STARTCHAR 306E
ENCODING 12398
SWIDTH 1000 0
DWIDTH 20 0
BBX 16 14 2 0
BITMAP
03F0
0D1C
3106
2102
4103
C103
8201
8201
8403
8402
8806
500C
6018
00E0
ENDCHAR
STARTCHAR 306F
ENCODING 12399
SWIDTH 1000 0
DWIDTH 20 0
BBX 16 16 3 0
BITMAP
8040
4020
4020
4020
C826
87F8
8020
8020
8020
8020
A020
C3E0
C438
C826
8823
87C0
ENDCHAR
STARTCHAR 3070
ENCODING 12400
SWIDTH 1000 0
DWIDTH 20 0
BBX 16 17 3 0
BITMAP
0002
8049
4025
4024
4020
C826
87F8
8020
8020
8020
8020
A020
C3E0
C438
C826
8823
87C0
ENDCHAR
STARTCHAR 3071
ENCODING 12401
SWIDTH 1000 0
DWIDTH 20 0
BBX 16 17 3 0
BITMAP
0007
8049
4029
4027
4020
C826
87F8
8020
8020
8020
8020
A020
C3E0
C438
C826
8823
87C0
ENDCHAR
STARTCHAR 3072
ENCODING 12402
SWIDTH 1000 0
DWIDTH 20 0
BBX 16 16 2 0
BITMAP
0030
0610
1B18
F418
4814
1812
1013
2011
2008
4010
4010
4010
4010
2020
1040
0F80
ENDCHAR
STARTCHAR 3073
ENCODING 12403
SWIDTH 1000 0
DWIDTH 20 0
BBX 18 17 2 0
BITMAP
000100
0034C0
061240
1B1900
F41800
481400
181200
101300
201100
200800
401000
401000
401000
401000
202000
104000
0F8000
ENDCHAR
STARTCHAR 3074
ENCODING 12404
SWIDTH 1000 0
DWIDTH 20 0
BBX 17 17 2 0
BITMAP
000300
003480
061480
1B1B80
F41800
481400
181200
101300
201100
200800
401000
401000
401000
401000
202000
104000
0F8000
ENDCHAR
STARTCHAR 3075
ENCODING 12405
SWIDTH 1000 0
DWIDTH 20 0
BBX 18 16 1 0
BITMAP
020000
01E000
007000
008000
000000
000000
010000
008800
008600
044100
086080
1820C0
F03040
603000
042000
03E000
ENDCHAR
STARTCHAR 3076
ENCODING 12406
SWIDTH 1000 0
DWIDTH 20 0
BBX 18 16 1 0
BITMAP
020000
01E180
0074C0
008340
000100
000000
010000
008800
008600
044100
086080
1820C0
F03040
603000
042000
03E000
ENDCHAR
STARTCHAR 3077
ENCODING 12407
SWIDTH 1000 0
DWIDTH 20 0
BBX 18 16 1 0
BITMAP
020000
01E380
007440
008480
000380
000000
010000
008800
008600
044100
086080
1820C0
F03040
603000
042000
03E000
ENDCHAR
STARTCHAR 3078
ENCODING 12408
SWIDTH 1000 0
DWIDTH 20 0
BBX 16 10 2 3
BITMAP
0600
0500
0880
1840
3020
2010
E00C
C006
0003
0001
ENDCHAR
STARTCHAR 3079
ENCODING 12409
SWIDTH 1000 0
DWIDTH 20 0
BBX 16 12 2 3
BITMAP
0008
0024
0616
0508
0880
1840
3020
2010
E00C
C006
0003
0001
ENDCHAR
STARTCHAR 307A
ENCODING 12410
SWIDTH 1000 0
DWIDTH 20 0
BBX 16 12 2 3
BITMAP
001C
0012
0612
050C
0880
1840
3020
2010
E00C
C006
0003
0001
ENDCHAR
STARTCHAR 307B
ENCODING 12411
SWIDTH 1000 0
DWIDTH 20 0
BBX 16 16 3 0
BITMAP
8000
440C
43F0
4020
4020
8020
8C3E
83E0
8020
8020
A020
C3E0
C43C
C826
8423
83C0
ENDCHAR
STARTCHAR 307C
ENCODING 12412
SWIDTH 1000 0
DWIDTH 20 0
BBX 17 17 3 0
BITMAP
000300
800D80
441600
43FA00
402000
402000
802000
8C3E00
83E000
802000
802000
A02000
C3E000
C43C00
C82600
842300
83C000
ENDCHAR
STARTCHAR 307D
ENCODING 12413
SWIDTH 1000 0
DWIDTH 20 0
BBX 17 17 3 0
BITMAP
000700
800480
441480
43FB00
402000
402000
802000
8C3E00
83E000
802000
802000
A02000
C3E000
C43C00
C82600
842300
83C000
ENDCHAR
STARTCHAR 307E
ENCODING 12414
SWIDTH 1000 0
DWIDTH 20 0
BBX 13 16 4 0
BITMAP
0600
0200
0200
8270
7F80
0200
0200
8270
7F80
0200
0200
3E00
C3C0
8270
8218
7E00
ENDCHAR
STARTCHAR 307F
ENCODING 12415
SWIDTH 1000 0
DWIDTH 20 0
BBX 17 16 2 -1
BITMAP
10C000
1FC000
00C000
008000
010000
010C00
030400
3FC400
443400
840C00
880F00
900980
E01880
001000
006000
008000
ENDCHAR
STARTCHAR 3080
ENCODING 12416
SWIDTH 1000 0
DWIDTH 20 0
BBX 16 16 2 0
BITMAP
1C00
0C00
0D80
FF0C
0802
0803
3801
480F
8801
8800
9810
F010
1008
1008
101C
0FF8
ENDCHAR
STARTCHAR 3081
ENCODING 12417
SWIDTH 1000 0
DWIDTH 20 0
BBX 16 17 2 -1
BITMAP
0180
20C0
1080
10E0
1798
1886
3102
7103
4901
CA01
8A01
8403
8C02
9A06
620C
0030
01C0
ENDCHAR
STARTCHAR 3082
ENCODING 12418
SWIDTH 1000 0
DWIDTH 20 0
BBX 13 17 3 -1
BITMAP
0C00
0400
0C00
0800
8BC0
7C00
0800
1000
9080
7F88
1008
1008
1008
1008
1010
0830
07C0
ENDCHAR
STARTCHAR 3083
ENCODING 12419
SWIDTH 1000 0
DWIDTH 20 0
BBX 14 15 3 -2
BITMAP
0700
2180
5000
10F8
0F0C
1804
B804
C40C
04F8
0400
0200
0200
0300
0100
0100
ENDCHAR
STARTCHAR 3084
ENCODING 12420
SWIDTH 1000 0
DWIDTH 20 0
BBX 17 17 1 -1
BITMAP
018000
006000
386000
080000
043E00
05C180
060080
9A0080
620080
012180
011E00
018000
008000
008000
00C000
004000
004000
ENDCHAR
STARTCHAR 3085
ENCODING 12421
SWIDTH 1000 0
DWIDTH 20 0
BBX 14 14 3 -1
BITMAP
0180
C080
40F0
4398
4488
4884
9084
A08C
608C
6498
63B0
21E0
0100
0600
ENDCHAR
STARTCHAR 3086
ENCODING 12422
SWIDTH 1000 0
DWIDTH 20 0
BBX 16 17 2 -1
BITMAP
00C0
8040
4040
60F8
4146
4642
4841
4861
9041
9043
6043
6246
61DC
60F8
2080
0100
0200
ENDCHAR
STARTCHAR 3087
ENCODING 12423
SWIDTH 1000 0
DWIDTH 20 0
BBX 12 14 4 -1
BITMAP
0E00
0600
0600
0660
03E0
0200
0200
0200
0200
7E00
C380
82E0
4630
3C00
ENDCHAR
STARTCHAR 3088
ENCODING 12424
SWIDTH 1000 0
DWIDTH 20 0
BBX 14 16 3 0
BITMAP
0700
0300
0300
0300
0118
01F0
0100
0100
0100
0100
0100
3F00
41E0
8138
430C
3E00
ENDCHAR
STARTCHAR 3089
ENCODING 12425
SWIDTH 1000 0
DWIDTH 20 0
BBX 13 16 4 0
BITMAP
2000
1E00
1300
0000
4000
6000
4000
4000
47E0
9830
E018
C018
8018
0030
0060
0F80
ENDCHAR
STARTCHAR 308A
ENCODING 12426
SWIDTH 1000 0
DWIDTH 20 0
BBX 10 17 5 -1
BITMAP
0180
C280
4080
40C0
40C0
80C0
A0C0
A0C0
C0C0
C0C0
C080
8080
0180
0100
0200
0400
3800
ENDCHAR
STARTCHAR 308B
ENCODING 12427
SWIDTH 1000 0
DWIDTH 20 0
BBX 13 16 3 0
BITMAP
00C0
23E0
1C80
0100
0200
0400
0800
13E0
3C30
6018
C008
9C08
2308
2118
11B0
0FC0
ENDCHAR
STARTCHAR 308C
ENCODING 12428
SWIDTH 1000 0
DWIDTH 20 0
BBX 19 16 1 0
BITMAP
0C0000
060000
040000
041C00
4E2600
76C200
050200
060200
0C0600
140600
340620
640440
540440
8C0680
0C0380
040000
ENDCHAR
STARTCHAR 308D
ENCODING 12429
SWIDTH 1000 0
DWIDTH 20 0
BBX 14 16 3 0
BITMAP
00C0
23C0
1CA0
0100
0200
0400
0800
13E0
2C18
7008
C00C
800C
0008
0018
0030
0FC0
ENDCHAR
STARTCHAR 308E
ENCODING 12430
SWIDTH 1000 0
DWIDTH 20 0
BBX 14 14 3 -1
BITMAP
1800
0800
0800
0CF0
7D08
0A0C
0C04
1804
2804
4804
E808
9810
18E0
0800
ENDCHAR
STARTCHAR 308F
ENCODING 12431
SWIDTH 1000 0
DWIDTH 20 0
BBX 16 16 2 0
BITMAP
1C00
0400
0400
0400
8C3C
76C6
0503
0E01
1801
3801
2801
4801
E803
9806
0878
0800
ENDCHAR
STARTCHAR 3090
ENCODING 12432
SWIDTH 1000 0
DWIDTH 20 0
BBX 16 16 2 0
BITMAP
0080
13C0
1C80
0080
0180
01F8
070C
1B06
2203
4203
4403
8DE3
8932
9212
E10C
00F8
ENDCHAR
STARTCHAR 3091
ENCODING 12433
SWIDTH 1000 0
DWIDTH 20 0
BBX 16 16 2 0
BITMAP
10E0
0F60
0180
0300
05F0
1E0C
300C
270C
0898
07E0
0300
0400
183C
7E46
E3C3
8181
ENDCHAR
STARTCHAR 3092
ENCODING 12434
SWIDTH 1000 0
DWIDTH 20 0
BBX 13 16 3 0
BITMAP
0600
0200
06C0
8780
7800
0800
1018
3E38
73E0
4380
C700
0900
1100
1000
1000
0FF8
ENDCHAR
STARTCHAR 3093
ENCODING 12435
SWIDTH 1000 0
DWIDTH 20 0
BBX 16 16 2 0
BITMAP
0200
0100
0180
0300
0200
0400
0400
0800
1300
1581
3881
3081
6082
4082
C0C4
8078
ENDCHAR
STARTCHAR 3094
ENCODING 12436
SWIDTH 1000 0
DWIDTH 20 0
BBX 15 18 4 -1
BITMAP
000C
1026
0F10
0898
1000
0000
1F80
F840
C020
0020
0020
0020
0020
0040
00C0
0100
0600
3800
ENDCHAR
STARTCHAR 3095
ENCODING 12437
SWIDTH 1000 0
DWIDTH 20 0
BBX 15 13 3 0
BITMAP
0C00
0400
0440
0B30
9D88
6884
1086
109E
1086
2100
6900
4600
C600
ENDCHAR
STARTCHAR 3096
ENCODING 12438
SWIDTH 1000 0
DWIDTH 20 0
BBX 13 15 4 -2
BITMAP
40C0
4040
4060
4078
4FF0
4020
8020
8060
A040
A040
C040
4040
4080
4100
0200
ENDCHAR
STARTCHAR 3099
ENCODING 12441
SWIDTH 1000 0
DWIDTH 20 0
BBX 5 4 14 12
BITMAP
30
D8
60
20
ENDCHAR
STARTCHAR 309A
ENCODING 12442
SWIDTH 1000 0
DWIDTH 20 0
BBX 4 4 15 13
BITMAP
E0
90
90
E0
ENDCHAR
STARTCHAR 309B
ENCODING 12443
SWIDTH 1000 0
DWIDTH 20 0
BBX 5 4 1 12
BITMAP
30
D8
60
60
ENDCHAR
STARTCHAR 309C
ENCODING 12444
SWIDTH 1000 0
DWIDTH 20 0
BBX 4 4 1 13
BITMAP
60
90
90
60
ENDCHAR
STARTCHAR 309D
ENCODING 12445
SWIDTH 1000 0
DWIDTH 20 0
BBX 6 11 7 2
BITMAP
80
80
80
40
20
18
08
0C
1C
20
40
ENDCHAR
STARTCHAR 309E
ENCODING 12446
SWIDTH 1000 0
DWIDTH 20 0
BBX 9 12 7 2
BITMAP
0300
8C80
8600
8200
4000
2000
1800
0800
0C00
1C00
2000
4000
ENDCHAR
STARTCHAR 309F
ENCODING 12447
SWIDTH 1000 0
DWIDTH 20 0
BBX 12 17 4 -1
BITMAP
0600
0200
0400
07F0
0800
0800
1000
2780
3880
6040
C040
80C0
0080
4080
4100
2200
1C00
ENDCHAR
STARTCHAR 30A0
ENCODING 12448
SWIDTH 1000 0
DWIDTH 20 0
BBX 9 3 6 6
BITMAP
FF80
0000
FF80
ENDCHAR
STARTCHAR 30A1
ENCODING 12449
SWIDTH 1000 0
DWIDTH 20 0
BBX 12 13 4 -1
BITMAP
8030
FFF0
0060
0080
0F00
0600
0600
0400
0400
0400
0800
1000
6000
ENDCHAR
STARTCHAR 30A2
ENCODING 12450
SWIDTH 1000 0
DWIDTH 20 0
BBX 14 16 3 -1
BITMAP
000C
80FC
7F18
0030
0060
0780
0300
0300
0300
0200
0200
0600
0400
0800
1000
2000
ENDCHAR
STARTCHAR 30A3
ENCODING 12451
SWIDTH 1000 0
DWIDTH 20 0
BBX 12 14 3 -1
BITMAP
0020
0030
0060
00C0
0100
0700
1900
6100
8100
0100
0100
0100
0100
0100
ENDCHAR
STARTCHAR 30A4
ENCODING 12452
SWIDTH 1000 0
DWIDTH 20 0
BBX 13 17 2 -1
BITMAP
0010
0008
0018
0030
0060
0180
0380
0C80
3080
C080
0080
0080
0080
0080
0080
0080
0080
ENDCHAR
STARTCHAR 30A5
ENCODING 12453
SWIDTH 1000 0
DWIDTH 20 0
BBX 12 14 4 -1
BITMAP
0600
0600
8660
7DB0
4020
4020
4060
4040
0040
0080
0180
0300
0400
1800
ENDCHAR
STARTCHAR 30A6
ENCODING 12454
SWIDTH 1000 0
DWIDTH 20 0
BBX 14 17 3 -1
BITMAP
0700
0300
0300
C318
7FEC
6008
6018
6018
6010
6010
0020
0060
0040
0080
0100
0600
1800
ENDCHAR
STARTCHAR 30A7
ENCODING 12455
SWIDTH 1000 0
DWIDTH 20 0
BBX 14 10 3 1
BITMAP
4030
3FF8
0300
0300
0300
0300
0300
0300
83FC
7C00
ENDCHAR
STARTCHAR 30A8
ENCODING 12456
SWIDTH 1000 0
DWIDTH 20 0
BBX 16 11 2 2
BITMAP
401C
3FE2
0180
0180
0180
0180
0180
0180
0180
81FF
FE00
ENDCHAR
STARTCHAR 30A9
ENCODING 12457
SWIDTH 1000 0
DWIDTH 20 0
BBX 14 14 3 -1
BITMAP
01C0
00C0
00C0
805C
7FE0
0140
0240
0640
0440
0840
1040
6340
80C0
0040
ENDCHAR
STARTCHAR 30AA
ENCODING 12458
SWIDTH 1000 0
DWIDTH 20 0
BBX 16 16 2 0
BITMAP
0060
0020
0020
0020
802F
7FF0
00A0
0120
0320
0220
0420
0820
1020
21A0
4070
8020
ENDCHAR
STARTCHAR 30AB
ENCODING 12459
SWIDTH 1000 0
DWIDTH 20 0
BBX 15 17 2 -1
BITMAP
0180
0080
0080
0080
418E
3FF2
0102
0106
0304
0204
0604
0404
0888
1868
3030
4030
8000
ENDCHAR
STARTCHAR 30AC
ENCODING 12460
SWIDTH 1000 0
DWIDTH 20 0
BBX 17 18 2 -1
BITMAP
000300
018980
008680
008200
008000
418E00
3FF200
010200
010600
030400
020400
060400
040400
088800
186800
303000
403000
800000
ENDCHAR
STARTCHAR 30AD
ENCODING 12461
SWIDTH 1000 0
DWIDTH 20 0
BBX 16 17 2 -1
BITMAP
0600
0300
0300
0118
017C
8780
7900
0080
0087
00F8
8F80
70C0
0040
0040
0040
0060
0040
ENDCHAR
STARTCHAR 30AE
ENCODING 12462
SWIDTH 1000 0
DWIDTH 20 0
BBX 17 18 2 -1
BITMAP
000200
060180
030E80
030200
011800
017C00
878000
790000
008000
008700
00F800
8F8000
70C000
004000
004000
004000
006000
004000
ENDCHAR
STARTCHAR 30AF
ENCODING 12463
SWIDTH 1000 0
DWIDTH 20 0
BBX 13 15 3 0
BITMAP
0600
0218
07F8
0418
0810
1010
2020
4020
8040
00C0
0180
0300
0600
1800
6000
ENDCHAR
STARTCHAR 30B0
ENCODING 12464
SWIDTH 1000 0
DWIDTH 20 0
BBX 17 17 3 0
BITMAP
000300
000980
060600
021A00
07F800
041800
081000
101000
202000
402000
804000
00C000
018000
030000
060000
180000
600000
ENDCHAR
STARTCHAR 30B1
ENCODING 12465
SWIDTH 1000 0
DWIDTH 20 0
BBX 16 16 2 0
BITMAP
0800
0400
0C00
0C00
08FF
1760
1060
2040
4040
8040
00C0
0080
0180
0100
0600
1800
ENDCHAR
STARTCHAR 30B2
ENCODING 12466
SWIDTH 1000 0
DWIDTH 20 0
BBX 18 17 2 0
BITMAP
000180
0806C0
040300
0C0100
0C0000
08FF00
176000
106000
204000
404000
804000
00C000
008000
018000
010000
060000
180000
ENDCHAR
STARTCHAR 30B3
ENCODING 12467
SWIDTH 1000 0
DWIDTH 20 0
BBX 12 12 4 1
BITMAP
80F0
7F30
0020
0020
0020
0020
0020
0020
0020
8020
FFF0
7000
ENDCHAR
STARTCHAR 30B4
ENCODING 12468
SWIDTH 1000 0
DWIDTH 20 0
BBX 15 16 4 1
BITMAP
0004
0022
001A
0008
80F0
7F30
0020
0020
0020
0020
0020
0020
0020
8020
FFF0
7000
ENDCHAR
STARTCHAR 30B5
ENCODING 12469
SWIDTH 1000 0
DWIDTH 20 0
BBX 17 17 1 -1
BITMAP
003800
0C1800
060800
040800
040800
84FF80
7F1800
041800
041800
041000
041000
001000
002000
006000
00C000
010000
060000
ENDCHAR
STARTCHAR 30B6
ENCODING 12470
SWIDTH 1000 0
DWIDTH 20 0
BBX 18 18 1 -1
BITMAP
000080
003A40
0C1940
060900
040800
040800
84FF80
7F1800
041800
041800
041000
041000
001000
002000
006000
00C000
010000
060000
ENDCHAR
STARTCHAR 30B7
ENCODING 12471
SWIDTH 1000 0
DWIDTH 20 0
BBX 16 15 2 0
BITMAP
1C00
0300
0101
0001
F002
1802
0804
0008
0010
0020
0040
0180
2700
3C00
1800
ENDCHAR
STARTCHAR 30B8
ENCODING 12472
SWIDTH 1000 0
DWIDTH 20 0
BBX 16 17 2 0
BITMAP
0003
0009
1C04
0304
0101
0001
F002
1802
0804
0008
0010
0020
0040
0180
2700
3C00
1800
ENDCHAR
STARTCHAR 30B9
ENCODING 12473
SWIDTH 1000 0
DWIDTH 20 0
BBX 16 14 2 0
BITMAP
2030
1FF8
0030
0020
0060
0040
0080
01C0
0330
060C
0C06
1003
6003
8000
ENDCHAR
STARTCHAR 30BA
ENCODING 12474
SWIDTH 1000 0
DWIDTH 20 0
BBX 17 17 2 0
BITMAP
000300
000980
000680
203200
1FF800
003000
002000
006000
004000
008000
01C000
033000
060C00
0C0600
100300
600300
800000
ENDCHAR
STARTCHAR 30BB
ENCODING 12475
SWIDTH 1000 0
DWIDTH 20 0
BBX 16 15 1 0
BITMAP
0E00
0600
0600
0202
027F
8786
7A0C
0218
0220
0200
0200
0200
0200
0306
00FE
ENDCHAR
STARTCHAR 30BC
ENCODING 12476
SWIDTH 1000 0
DWIDTH 20 0
BBX 18 17 1 0
BITMAP
000080
000440
0E0340
060180
060000
020200
027F00
878600
7A0C00
021800
022000
020000
020000
020000
020000
030600
00FE00
ENDCHAR
STARTCHAR 30BD
ENCODING 12477
SWIDTH 1000 0
DWIDTH 20 0
BBX 14 15 3 0
BITMAP
0018
800C
4008
2008
3018
3010
1030
0020
0060
0040
0080
0100
0200
0C00
3000
ENDCHAR
STARTCHAR 30BE
ENCODING 12478
SWIDTH 1000 0
DWIDTH 20 0
BBX 17 17 3 0
BITMAP
000300
000E80
001200
800800
400C00
200800
301800
301000
103000
002000
006000
004000
008000
010000
020000
0C0000
300000
ENDCHAR
STARTCHAR 30BF
ENCODING 12479
SWIDTH 1000 0
DWIDTH 20 0
BBX 13 16 3 0
BITMAP
0600
0200
0218
07E8
0C18
0810
1030
2C20
4360
80C0
00C0
01A0
0330
0600
0800
7000
ENDCHAR
STARTCHAR 30C0
ENCODING 12480
SWIDTH 1000 0
DWIDTH 20 0
BBX 17 17 3 0
BITMAP
000300
060D80
020600
021A00
07E800
0C1800
081000
103000
2C2000
436000
80C000
00C000
01A000
033000
060000
080000
700000
ENDCHAR
STARTCHAR 30C1
ENCODING 12481
SWIDTH 1000 0
DWIDTH 20 0
BBX 16 17 2 -1
BITMAP
0010
0018
00F0
0F80
7080
0080
0087
83FF
7C80
0080
0180
0100
0100
0200
0400
0800
3000
ENDCHAR
STARTCHAR 30C2
ENCODING 12482
SWIDTH 1000 0
DWIDTH 20 0
BBX 18 18 2 -1
BITMAP
000180
0014C0
001A00
00F300
0F8000
708000
008000
008700
83FF00
7C8000
008000
018000
010000
010000
020000
040000
080000
300000
ENDCHAR
STARTCHAR 30C3
ENCODING 12483
SWIDTH 1000 0
DWIDTH 20 0
BBX 13 13 3 -1
BITMAP
0818
8418
4218
2210
2230
2020
0060
0040
0080
0100
0200
0C00
3000
ENDCHAR
STARTCHAR 30C4
ENCODING 12484
SWIDTH 1000 0
DWIDTH 20 0
BBX 15 15 2 0
BITMAP
0404
0206
C206
6306
2304
310C
2008
0018
0010
0020
0060
00C0
0100
0600
1800
ENDCHAR
STARTCHAR 30C5
ENCODING 12485
SWIDTH 1000 0
DWIDTH 20 0
BBX 18 17 2 0
BITMAP
000180
000240
040900
020700
C20600
630600
230400
310C00
200800
001800
001000
002000
006000
00C000
010000
060000
180000
ENDCHAR
STARTCHAR 30C6
ENCODING 12486
SWIDTH 1000 0
DWIDTH 20 0
BBX 16 16 2 -1
BITMAP
2038
1FC0
0000
0000
0000
800F
7FF0
0080
0080
0080
0180
0100
0100
0200
0400
1800
ENDCHAR
STARTCHAR 30C7
ENCODING 12487
SWIDTH 1000 0
DWIDTH 20 0
BBX 18 18 2 -1
BITMAP
000180
000640
203B00
1FC100
000000
000000
000000
800F00
7FF000
008000
008000
008000
018000
010000
010000
020000
040000
180000
ENDCHAR
STARTCHAR 30C8
ENCODING 12488
SWIDTH 1000 0
DWIDTH 20 0
BBX 10 17 6 -1
BITMAP
C000
6000
2000
2000
2000
2000
3000
2E00
2380
21C0
20C0
2000
2000
2000
2000
2000
6000
ENDCHAR
STARTCHAR 30C9
ENCODING 12489
SWIDTH 1000 0
DWIDTH 20 0
BBX 11 17 6 -1
BITMAP
C000
6100
20C0
2360
2180
2000
3000
2E00
2380
21C0
20C0
2000
2000
2000
2000
2000
6000
ENDCHAR
STARTCHAR 30CA
ENCODING 12490
SWIDTH 1000 0
DWIDTH 20 0
BBX 16 17 2 0
BITMAP
0100
0080
00C0
0080
0080
0080
81FF
7E80
0080
0080
0080
0180
0100
0300
0200
0400
1800
ENDCHAR
STARTCHAR 30CB
ENCODING 12491
SWIDTH 1000 0
DWIDTH 20 0
BBX 16 10 2 3
BITMAP
0008
3FFC
0000
0000
0000
0000
0000
0000
800F
FFF1
ENDCHAR
STARTCHAR 30CC
ENCODING 12492
SWIDTH 1000 0
DWIDTH 20 0
BBX 13 15 3 0
BITMAP
0010
40F8
3F30
0020
0020
1040
0C40
0380
01C0
0370
0618
0C08
1800
2000
C000
ENDCHAR
STARTCHAR 30CD
ENCODING 12493
SWIDTH 1000 0
DWIDTH 20 0
BBX 15 17 2 -1
BITMAP
0780
00C0
00C0
0030
20F0
1F30
0060
00C0
01C0
02B8
0C8C
1086
6082
8080
0080
0080
0180
ENDCHAR
STARTCHAR 30CE
ENCODING 12494
SWIDTH 1000 0
DWIDTH 20 0
BBX 12 15 3 0
BITMAP
0060
0030
0030
0020
0060
0060
0040
0080
0180
0300
0200
0400
1800
2000
C000
ENDCHAR
STARTCHAR 30CF
ENCODING 12495
SWIDTH 1000 0
DWIDTH 20 0
BBX 18 11 1 2
BITMAP
071000
030800
020400
060200
040300
040100
080180
180080
1000C0
2000C0
C00000
ENDCHAR
STARTCHAR 30D0
ENCODING 12496
SWIDTH 1000 0
DWIDTH 20 0
BBX 18 15 1 2
BITMAP
000100
000480
000280
000200
071000
030800
020400
060200
040300
040100
080180
180080
1000C0
2000C0
C00000
ENDCHAR
STARTCHAR 30D1
ENCODING 12497
SWIDTH 1000 0
DWIDTH 20 0
BBX 18 15 1 2
BITMAP
000300
000480
000480
000380
071000
030800
020400
060200
040300
040100
080180
180080
1000C0
2000C0
C00000
ENDCHAR
STARTCHAR 30D2
ENCODING 12498
SWIDTH 1000 0
DWIDTH 20 0
BBX 14 15 3 0
BITMAP
E000
6000
2020
2018
2070
21C0
2700
3800
2000
2000
2000
2000
2000
301C
0FF8
ENDCHAR
STARTCHAR 30D3
ENCODING 12499
SWIDTH 1000 0
DWIDTH 20 0
BBX 16 17 3 0
BITMAP
0004
0023
E01D
6004
2020
2018
2070
21C0
2700
3800
2000
2000
2000
2000
2000
301C
0FF8
ENDCHAR
STARTCHAR 30D4
ENCODING 12500
SWIDTH 1000 0
DWIDTH 20 0
BBX 16 17 3 0
BITMAP
000C
0012
E013
600E
2020
2018
2070
21C0
2700
3800
2000
2000
2000
2000
2000
301C
0FF8
ENDCHAR
STARTCHAR 30D5
ENCODING 12501
SWIDTH 1000 0
DWIDTH 20 0
BBX 14 14 3 0
BITMAP
8018
7FEC
0008
0018
0010
0030
0020
0060
0040
0080
0100
0600
0800
3000
ENDCHAR
STARTCHAR 30D6
ENCODING 12502
SWIDTH 1000 0
DWIDTH 20 0
BBX 17 17 3 0
BITMAP
000300
000C80
000600
801A00
7FEC00
000800
001800
001000
003000
002000
006000
004000
008000
010000
060000
080000
300000
ENDCHAR
STARTCHAR 30D7
ENCODING 12503
SWIDTH 1000 0
DWIDTH 20 0
BBX 17 17 3 0
BITMAP
000300
000480
000480
801B00
7FEC00
000800
001800
001000
003000
002000
006000
00C000
008000
010000
060000
080000
300000
ENDCHAR
STARTCHAR 30D8
ENCODING 12504
SWIDTH 1000 0
DWIDTH 20 0
BBX 17 10 2 3
BITMAP
020000
050000
088000
104000
303000
601800
E00C00
C00600
000300
000180
ENDCHAR
STARTCHAR 30D9
ENCODING 12505
SWIDTH 1000 0
DWIDTH 20 0
BBX 17 12 2 3
BITMAP
000C00
002600
021A00
050800
088000
104000
303000
601800
E00C00
C00600
000300
000180
ENDCHAR
STARTCHAR 30DA
ENCODING 12506
SWIDTH 1000 0
DWIDTH 20 0
BBX 17 12 2 3
BITMAP
000C00
001200
021200
050C00
088000
104000
303000
601800
E00C00
C00600
000300
000180
ENDCHAR
STARTCHAR 30DB
ENCODING 12507
SWIDTH 1000 0
DWIDTH 20 0
BBX 16 17 2 -1
BITMAP
0300
0180
0080
0080
008E
C3FF
7C80
0080
1098
1084
2086
2083
6083
C883
8780
0180
0100
ENDCHAR
STARTCHAR 30DC
ENCODING 12508
SWIDTH 1000 0
DWIDTH 20 0
BBX 17 18 2 -1
BITMAP
000200
030980
018680
008200
008000
008E00
C3FF00
7C8000
008000
109800
108400
208600
208300
608300
C88300
878000
018000
010000
ENDCHAR
STARTCHAR 30DD
ENCODING 12509
SWIDTH 1000 0
DWIDTH 20 0
BBX 17 17 2 -1
BITMAP
030380
018480
008480
008300
008E00
C3FF00
7C8000
008000
109800
108400
208600
208300
608300
C88300
878000
018000
010000
ENDCHAR
STARTCHAR 30DE
ENCODING 12510
SWIDTH 1000 0
DWIDTH 20 0
BBX 15 12 2 1
BITMAP
8006
7FFE
000C
0008
0018
1830
0440
0380
0180
00C0
0040
0040
ENDCHAR
STARTCHAR 30DF
ENCODING 12511
SWIDTH 1000 0
DWIDTH 20 0
BBX 11 14 4 0
BITMAP
3F00
00C0
0000
0000
7E00
0380
0080
0000
0000
F800
0700
01C0
00E0
0060
ENDCHAR
STARTCHAR 30E0
ENCODING 12512
SWIDTH 1000 0
DWIDTH 20 0
BBX 15 15 2 0
BITMAP
0300
0180
0100
0300
0200
0200
0440
0430
0818
0808
1004
107E
AF86
7002
0002
ENDCHAR
STARTCHAR 30E1
ENCODING 12513
SWIDTH 1000 0
DWIDTH 20 0
BBX 12 15 3 0
BITMAP
0070
0030
0020
0020
1060
0C40
0380
01C0
0160
0230
0410
0800
1000
6000
8000
ENDCHAR
STARTCHAR 30E2
ENCODING 12514
SWIDTH 1000 0
DWIDTH 20 0
BBX 15 13 2 1
BITMAP
4078
3F80
0200
0200
0200
82FE
7F00
0200
0200
0200
0200
0200
01FE
ENDCHAR
STARTCHAR 30E3
ENCODING 12515
SWIDTH 1000 0
DWIDTH 20 0
BBX 13 14 3 -1
BITMAP
1800
0C00
0400
0418
07F8
FC30
0420
0240
0200
0200
0200
0100
0100
0100
ENDCHAR
STARTCHAR 30E4
ENCODING 12516
SWIDTH 1000 0
DWIDTH 20 0
BBX 16 17 2 -1
BITMAP
1C00
0400
0400
0406
021F
03E4
FE0C
0208
0210
0120
0100
0100
0100
0180
0180
0080
0080
ENDCHAR
STARTCHAR 30E5
ENCODING 12517
SWIDTH 1000 0
DWIDTH 20 0
BBX 14 9 3 2
BITMAP
4060
3FA0
0020
0060
0040
0040
0040
804C
FFFC
ENDCHAR
STARTCHAR 30E6
ENCODING 12518
SWIDTH 1000 0
DWIDTH 20 0
BBX 17 11 2 2
BITMAP
201000
1FF800
001000
001000
001000
001000
001000
001000
001000
807F00
7F8080
ENDCHAR
STARTCHAR 30E7
ENCODING 12519
SWIDTH 1000 0
DWIDTH 20 0
BBX 10 11 5 1
BITMAP
0040
FFC0
0040
00C0
0080
7F80
0080
0080
0080
80C0
FF00
ENDCHAR
STARTCHAR 30E8
ENCODING 12520
SWIDTH 1000 0
DWIDTH 20 0
BBX 12 13 4 1
BITMAP
8060
7FB0
0020
0020
0020
4060
3FA0
0020
0020
0020
0020
81F0
7E00
ENDCHAR
STARTCHAR 30E9
ENCODING 12521
SWIDTH 1000 0
DWIDTH 20 0
BBX 13 16 3 -1
BITMAP
2060
1F80
0000
0000
8018
7FF8
0018
0010
0020
0060
0040
0080
0100
0600
0800
3000
ENDCHAR
STARTCHAR 30EA
ENCODING 12522
SWIDTH 1000 0
DWIDTH 20 0
BBX 9 17 5 -1
BITMAP
0180
8080
4080
4080
4080
4080
4080
4080
4080
4080
4180
0100
0300
0200
0400
1800
6000
ENDCHAR
STARTCHAR 30EB
ENCODING 12523
SWIDTH 1000 0
DWIDTH 20 0
BBX 18 15 1 0
BITMAP
00E000
0C6000
062000
062000
062000
062040
062040
042080
042100
0C2300
082600
106C00
207800
407000
802000
ENDCHAR
STARTCHAR 30EC
ENCODING 12524
SWIDTH 1000 0
DWIDTH 20 0
BBX 14 15 4 0
BITMAP
C000
6000
6000
6000
6004
6008
6010
6020
6040
6080
4300
4600
5800
7000
2000
ENDCHAR
STARTCHAR 30ED
ENCODING 12525
SWIDTH 1000 0
DWIDTH 20 0
BBX 14 13 3 1
BITMAP
C038
7FCC
4008
4008
4008
4018
4018
6010
6010
6010
7FF8
6000
6000
ENDCHAR
STARTCHAR 30EE
ENCODING 12526
SWIDTH 1000 0
DWIDTH 20 0
BBX 12 13 4 -1
BITMAP
8060
7FB0
4020
4020
4060
6040
6040
0080
0180
0100
0200
0C00
1000
ENDCHAR
STARTCHAR 30EF
ENCODING 12527
SWIDTH 1000 0
DWIDTH 20 0
BBX 14 15 3 0
BITMAP
0008
C1FC
7E08
6008
6018
6010
6010
6030
6020
0060
0040
0080
0100
0200
1C00
ENDCHAR
STARTCHAR 30F0
ENCODING 12528
SWIDTH 1000 0
DWIDTH 20 0
BBX 16 17 2 -1
BITMAP
00C0
0040
0040
0040
7FFE
0840
0840
0840
0840
0840
C87F
7FC0
0040
0040
0040
0040
0040
ENDCHAR
STARTCHAR 30F1
ENCODING 12529
SWIDTH 1000 0
DWIDTH 20 0
BBX 16 12 2 2
BITMAP
000C
3FFC
0018
0020
02C0
0180
0180
0180
0180
0180
8107
FFFF
ENDCHAR
STARTCHAR 30F2
ENCODING 12530
SWIDTH 1000 0
DWIDTH 20 0
BBX 13 15 4 0
BITMAP
0010
8078
7F90
0010
0030
80E0
7F20
0040
0040
0080
0180
0300
0200
0C00
3000
ENDCHAR
STARTCHAR 30F3
ENCODING 12531
SWIDTH 1000 0
DWIDTH 20 0
BBX 15 14 3 1
BITMAP
8000
6000
3800
1802
0804
0008
0018
0030
0060
00C0
0380
0F00
7C00
7000
ENDCHAR
STARTCHAR 30F4
ENCODING 12532
SWIDTH 1000 0
DWIDTH 20 0
BBX 17 18 3 -1
BITMAP
000200
070900
030580
030600
C31800
7FEC00
600800
601800
601800
601000
601000
002000
006000
004000
008000
010000
060000
180000
ENDCHAR
STARTCHAR 30F5
ENCODING 12533
SWIDTH 1000 0
DWIDTH 20 0
BBX 13 14 3 -1
BITMAP
0300
0100
0100
0118
7FE8
0208
0218
0610
0410
0C10
09A0
1060
2040
C000
ENDCHAR
STARTCHAR 30F6
ENCODING 12534
SWIDTH 1000 0
DWIDTH 20 0
BBX 14 14 3 -1
BITMAP
1800
0C00
0800
18FC
1780
2080
4080
8080
0100
0100
0200
0600
0800
1000
ENDCHAR
STARTCHAR 30F7
ENCODING 12535
SWIDTH 1000 0
DWIDTH 20 0
BBX 17 17 3 0
BITMAP
000300
000C80
000600
C07A00
7F8C00
600800
601800
601800
601000
603000
602000
006000
004000
008000
010000
020000
1C0000
ENDCHAR
STARTCHAR 30F8
ENCODING 12536
SWIDTH 1000 0
DWIDTH 20 0
BBX 17 18 2 -1
BITMAP
000100
00C480
004280
004300
004000
7FFE00
084000
084000
084000
084000
084000
C87F00
7FC000
004000
004000
004000
004000
004000
ENDCHAR
STARTCHAR 30F9
ENCODING 12537
SWIDTH 1000 0
DWIDTH 20 0
BBX 18 15 2 2
BITMAP
000180
0006C0
000300
000D00
3FFC00
001800
002000
03C000
018000
018000
018000
018000
018000
810700
FFFF00
ENDCHAR
STARTCHAR 30FA
ENCODING 12538
SWIDTH 1000 0
DWIDTH 20 0
BBX 16 17 4 0
BITMAP
0006
0019
000C
8074
7F98
0010
0030
80E0
7F20
0060
0040
0080
0180
0300
0200
0C00
3000
ENDCHAR
STARTCHAR 30FB
ENCODING 12539
SWIDTH 1000 0
DWIDTH 20 0
BBX 2 3 9 6
BITMAP
C0
C0
C0
ENDCHAR
STARTCHAR 30FC
ENCODING 12540
SWIDTH 1000 0
DWIDTH 20 0
BBX 16 2 2 7
BITMAP
8007
7FF8
ENDCHAR
STARTCHAR 30FD
ENCODING 12541
SWIDTH 1000 0
DWIDTH 20 0
BBX 8 10 6 3
BITMAP
80
40
20
10
08
04
06
03
03
01
ENDCHAR
STARTCHAR 30FE
ENCODING 12542
SWIDTH 1000 0
DWIDTH 20 0
BBX 11 12 6 3
BITMAP
0080
0040
8360
4180
2000
1000
0800
0400
0600
0300
0300
0100
ENDCHAR
STARTCHAR 30FF
ENCODING 12543
SWIDTH 1000 0
DWIDTH 20 0
BBX 13 16 3 -1
BITMAP
0010
80F8
7F10
0010
0010
0010
0010
0010
0010
0010
0010
0010
0010
0010
0010
0010
ENDCHAR
STARTCHAR 31F0
ENCODING 12784
SWIDTH 1000 0
DWIDTH 20 0
BBX 11 13 4 0
BITMAP
0800
0400
0460
0FA0
1860
1040
20C0
C080
0100
0300
0600
0800
7000
ENDCHAR
STARTCHAR 31F1
ENCODING 12785
SWIDTH 1000 0
DWIDTH 20 0
BBX 13 12 4 0
BITMAP
3800
0C00
0408
C010
3010
1020
0040
0080
0100
0200
4C00
3000
ENDCHAR
STARTCHAR 31F2
ENCODING 12786
SWIDTH 1000 0
DWIDTH 20 0
BBX 13 11 3 0
BITMAP
21C0
1E60
00C0
0080
0180
0100
02C0
0460
0830
3018
C008
ENDCHAR
STARTCHAR 31F3
ENCODING 12787
SWIDTH 1000 0
DWIDTH 20 0
BBX 8 14 7 -1
BITMAP
C0
40
40
40
40
78
46
43
41
40
40
40
40
40
ENDCHAR
STARTCHAR 31F4
ENCODING 12788
SWIDTH 1000 0
DWIDTH 20 0
BBX 11 12 4 0
BITMAP
0040
7FE0
00C0
0080
2080
1D00
0300
0380
0440
0820
3000
C000
ENDCHAR
STARTCHAR 31F5
ENCODING 12789
SWIDTH 1000 0
DWIDTH 20 0
BBX 14 10 3 0
BITMAP
0880
1C40
0820
0810
1018
1008
200C
400C
8000
8000
ENDCHAR
STARTCHAR 31F6
ENCODING 12790
SWIDTH 1000 0
DWIDTH 20 0
BBX 11 12 5 0
BITMAP
C000
4000
4080
41C0
4600
5800
6000
4000
4000
4000
40C0
3FE0
ENDCHAR
STARTCHAR 31F7
ENCODING 12791
SWIDTH 1000 0
DWIDTH 20 0
BBX 12 12 4 -1
BITMAP
8060
7FB0
0020
0060
0040
0080
0080
0100
0200
0400
1800
2000
ENDCHAR
STARTCHAR 31F8
ENCODING 12792
SWIDTH 1000 0
DWIDTH 20 0
BBX 14 8 3 2
BITMAP
0600
0B00
1980
30C0
2060
E030
401C
0004
ENDCHAR
STARTCHAR 31F9
ENCODING 12793
SWIDTH 1000 0
DWIDTH 20 0
BBX 13 14 3 -1
BITMAP
0700
0100
0100
0118
7FF8
0100
2120
1110
2118
2108
6108
CF00
0300
0200
ENDCHAR
STARTCHAR 31FA
ENCODING 12794
SWIDTH 1000 0
DWIDTH 20 0
BBX 13 12 3 0
BITMAP
0600
0300
0200
0400
0400
08C0
0820
1020
1010
23F8
FC08
0008
ENDCHAR
STARTCHAR 31FB
ENCODING 12795
SWIDTH 1000 0
DWIDTH 20 0
BBX 11 13 4 -1
BITMAP
3F80
0040
0000
8060
7FE0
0040
0040
0080
0180
0300
0400
1800
2000
ENDCHAR
STARTCHAR 31FC
ENCODING 12796
SWIDTH 1000 0
DWIDTH 20 0
BBX 7 14 6 -1
BITMAP
06
82
C2
42
42
42
C2
C2
C2
02
04
08
10
60
ENDCHAR
STARTCHAR 31FD
ENCODING 12797
SWIDTH 1000 0
DWIDTH 20 0
BBX 15 12 3 0
BITMAP
0300
1180
0900
0900
0904
0906
0908
1108
1110
2160
41C0
8180
ENDCHAR
STARTCHAR 31FE
ENCODING 12798
SWIDTH 1000 0
DWIDTH 20 0
BBX 11 12 5 0
BITMAP
C000
6000
6000
4020
4020
4040
4080
4100
4200
4C00
7000
6000
ENDCHAR
STARTCHAR 31FF
ENCODING 12799
SWIDTH 1000 0
DWIDTH 20 0
BBX 12 11 4 0
BITMAP
C060
7FF0
4020
4020
4020
4020
4020
4040
6060
7FE0
4000
ENDCHAR
STARTCHAR 3231
ENCODING 12849
SWIDTH 1000 0
DWIDTH 20 0
BBX 18 18 1 -1
BITMAP
200100
441900
445080
447080
865280
87FE40
BF9140
8D1040
8D1240
97FF40
973840
A53840
A45440
C45280
449380
471080
441100
200100
ENDCHAR
STARTCHAR 3232
ENCODING 12850
SWIDTH 1000 0
DWIDTH 20 0
BBX 18 18 1 -1
BITMAP
200100
410100
418080
410480
810280
BFFF40
820040
83FC40
860840
8A0840
8BF840
920840
A3F840
820880
420880
420880
427900
200100
ENDCHAR
STARTCHAR 3239
ENCODING 12857
SWIDTH 1000 0
DWIDTH 20 0
BBX 18 18 1 -1
BITMAP
200100
426100
466880
446480
842480
882240
8C2F40
8FF040
9C2040
AC2040
CC2040
8C1040
8C1240
8C1A80
4C0A80
4C0680
4C0700
200100
ENDCHAR
STARTCHAR 3251
ENCODING 12881
SWIDTH 1000 0
DWIDTH 20 0
BBX 18 18 1 -1
BITMAP
03F000
0C0C00
100200
2E0900
493880
998880
990840
810840
810840
820840
840840
840840
888880
508880
3F9D00
102200
0C0400
03F800
ENDCHAR
STARTCHAR 3252
ENCODING 12882
SWIDTH 1000 0
DWIDTH 20 0
BBX 18 18 1 -1
BITMAP
03F000
0C0C00
100200
2E1D00
592680
992280
99E240
810640
830440
820840
840840
881040
88A280
50A280
3FFF00
100200
0C0400
03F800
ENDCHAR
STARTCHAR 3253
ENCODING 12883
SWIDTH 1000 0
DWIDTH 20 0
BBX 18 17 1 -1
BITMAP
03F000
1C0E00
200300
4F1D00
512280
99B240
810240
810640
821840
860640
840240
88A280
50A280
3F9D00
100200
0C0400
03F800
ENDCHAR
STARTCHAR 3254
ENCODING 12884
SWIDTH 1000 0
DWIDTH 20 0
BBX 18 17 1 -1
BITMAP
03F000
0C0C00
300200
4E0D00
510C80
991C80
811C40
812C40
824C40
844C40
847E40
890C80
510C80
3F0D00
101200
0C0400
03F800
ENDCHAR
STARTCHAR 3255
ENCODING 12885
SWIDTH 1000 0
DWIDTH 20 0
BBX 18 17 1 -1
BITMAP
03F000
0C0C00
300200
4F3F00
512080
99A080
812040
813C40
822640
860240
840240
88A280
50A280
3FBD00
100200
0C0400
03F800
ENDCHAR
STARTCHAR 3256
ENCODING 12886
SWIDTH 1000 0
DWIDTH 20 0
BBX 18 18 1 -1
BITMAP
03F000
0C0C00
100200
2E1D00
513280
992680
992040
812040
837C40
826640
846240
882240
892280
512680
3F1D00
100200
0C0400
03F800
ENDCHAR
STARTCHAR 3257
ENCODING 12887
SWIDTH 1000 0
DWIDTH 20 0
BBX 18 17 1 -1
BITMAP
03F000
0C0C00
300200
4E7F00
514480
994480
810440
810840
820840
840840
840840
891880
511880
3F1100
100200
0C0400
03F800
ENDCHAR
STARTCHAR 3258
ENCODING 12888
SWIDTH 1000 0
DWIDTH 20 0
BBX 18 18 1 -1
BITMAP
03F000
0C0C00
100200
2E1D00
512280
992280
992240
813440
831840
821C40
842640
884240
896280
512680
3F1D00
100200
0C0400
03F800
ENDCHAR
STARTCHAR 3259
ENCODING 12889
SWIDTH 1000 0
DWIDTH 20 0
BBX 18 18 1 -1
BITMAP
03F000
0C0C00
100200
2E1D00
512680
992280
996240
816240
832240
822640
841A40
880240
892680
512480
3F3900
100200
0C0400
03F800
ENDCHAR
STARTCHAR 325A
ENCODING 12890
SWIDTH 1000 0
DWIDTH 20 0
BBX 18 18 1 -2
BITMAP
03F000
0C0C00
300300
4E1D00
513480
992680
812240
832240
8C2240
832240
812240
812240
912680
513480
2E1D00
100200
0C0C00
03F000
ENDCHAR
STARTCHAR 325B
ENCODING 12891
SWIDTH 1000 0
DWIDTH 20 0
BBX 18 17 1 -1
BITMAP
03F000
1C0E00
200300
4E3900
510880
990840
810840
810840
860840
830840
818840
998880
510880
4F1D00
302200
0C0400
03F800
ENDCHAR
STARTCHAR 325C
ENCODING 12892
SWIDTH 1000 0
DWIDTH 20 0
BBX 18 17 1 -1
BITMAP
03F000
1C0E00
200300
4E3D00
512680
996240
810640
810440
860C40
830840
811040
912280
512280
2E7F00
100200
0C0400
03F800
ENDCHAR
STARTCHAR 325D
ENCODING 12893
SWIDTH 1000 0
DWIDTH 20 0
BBX 18 18 1 -2
BITMAP
03F000
0C0C00
300300
4E1D00
512680
992280
810240
810440
861840
830640
810240
810240
916280
512680
2E3D00
100200
0C0C00
03F000
ENDCHAR
STARTCHAR 325E
ENCODING 12894
SWIDTH 1000 0
DWIDTH 20 0
BBX 18 17 1 -1
BITMAP
03F000
0C0C00
300200
4E0D00
510C80
991480
811440
812440
862440
834440
817E40
918480
510480
2E0D00
101200
0C0400
03F800
ENDCHAR
STARTCHAR 325F
ENCODING 12895
SWIDTH 1000 0
DWIDTH 20 0
BBX 18 18 1 -2
BITMAP
03F000
0C0C00
300200
4E3F00
512080
992080
812040
813C40
862640
832240
810240
810240
912280
512680
2E3D00
100200
0C0C00
03F000
ENDCHAR
STARTCHAR 32A4
ENCODING 12964
SWIDTH 1000 0
DWIDTH 20 0
BBX 18 17 1 -1
BITMAP
03F000
0C0C00
30C300
408100
408080
808040
808C40
80FC40
808040
808040
808040
408280
5FFE80
200100
100200
0C0400
03F800
ENDCHAR
STARTCHAR 32A5
ENCODING 12965
SWIDTH 1000 0
DWIDTH 20 0
BBX 18 18 1 -1
BITMAP
03F000
0C0C00
108200
20C100
408080
908480
9FFE40
988440
988440
988440
988440
9FFC40
808080
408080
208100
108200
0C0400
03F800
ENDCHAR
STARTCHAR 32A6
ENCODING 12966
SWIDTH 1000 0
DWIDTH 20 0
BBX 18 18 1 -1
BITMAP
03F000
0C0800
100600
200100
400280
7FFE80
808040
808040
80E040
809040
808C40
808440
808080
408080
208100
108200
0C0400
03F800
ENDCHAR
STARTCHAR 32A7
ENCODING 12967
SWIDTH 1000 0
DWIDTH 20 0
BBX 18 17 1 -1
BITMAP
03F000
0C0C00
318200
410100
410280
9FFE80
820040
820840
83FC40
844040
884040
904080
604480
2FFF00
100200
0C0400
03F800
ENDCHAR
STARTCHAR 32A8
ENCODING 12968
SWIDTH 1000 0
DWIDTH 20 0
BBX 18 19 1 -2
BITMAP
03F000
0C0C00
118200
210100
410280
BFFE80
820040
820040
840840
87FC40
8A0440
920440
E20440
43FC80
620480
320100
180200
0C0C00
03F000
ENDCHAR
STARTCHAR 32B1
ENCODING 12977
SWIDTH 1000 0
DWIDTH 20 0
BBX 18 18 1 -2
BITMAP
03F000
0C0C00
300300
4E1D00
513680
992680
812040
813C40
866640
836240
816240
812240
912280
512480
2E1D00
100200
0C0C00
03F000
ENDCHAR
STARTCHAR 32B2
ENCODING 12978
SWIDTH 1000 0
DWIDTH 20 0
BBX 18 18 1 -2
BITMAP
03F000
0C0C00
300200
4E7F00
514480
994480
810440
810840
860840
830840
810840
819840
911880
511880
2E1100
100200
0C0C00
03F000
ENDCHAR
STARTCHAR 32B3
ENCODING 12979
SWIDTH 1000 0
DWIDTH 20 0
BBX 18 18 1 -2
BITMAP
03F000
0C0C00
300300
4E1D00
512280
992280
812240
811440
860840
833440
812240
81C240
912280
512680
2E1D00
100200
0C0C00
03F000
ENDCHAR
STARTCHAR 32B4
ENCODING 12980
SWIDTH 1000 0
DWIDTH 20 0
BBX 18 18 1 -2
BITMAP
03F000
0C0C00
300300
4E1D00
512680
992280
816240
812240
862640
831E40
810240
818240
99A680
512480
2E3900
100200
0C0C00
03F000
ENDCHAR
STARTCHAR 32B5
ENCODING 12981
SWIDTH 1000 0
DWIDTH 20 0
BBX 18 17 1 -1
BITMAP
03F000
0C0C00
300200
421D00
463680
8A2280
8A2240
922240
922240
A22240
BF2240
822280
423680
271D00
180200
0C0400
03F800
ENDCHAR
STARTCHAR 32B6
ENCODING 12982
SWIDTH 1000 0
DWIDTH 20 0
BBX 18 17 1 -1
BITMAP
03F000
0C0C00
300200
421900
460880
860880
8A0840
8A0840
920840
A20840
BF8840
820880
420880
271D00
100200
0C0400
03F800
ENDCHAR
STARTCHAR 32B7
ENCODING 12983
SWIDTH 1000 0
DWIDTH 20 0
BBX 18 17 1 -1
BITMAP
03F000
0C0C00
300200
423D00
462680
8A6280
8A0640
920440
920440
A20840
BF1040
822280
422280
267F00
190200
0C0400
03F800
ENDCHAR
STARTCHAR 32B8
ENCODING 12984
SWIDTH 1000 0
DWIDTH 20 0
BBX 18 17 1 -1
BITMAP
03F000
0C0C00
300200
421D00
462680
8A2280
8A0240
920440
921840
A20640
BF0240
826280
426680
263D00
190200
0C0400
03F800
ENDCHAR
STARTCHAR 32B9
ENCODING 12985
SWIDTH 1000 0
DWIDTH 20 0
BBX 18 17 1 -1
BITMAP
03F000
0C0C00
300200
460D00
460C80
8A1480
8A1440
922440
922440
A24440
BF7E40
820480
420480
260D00
191200
0C0400
03F800
ENDCHAR
STARTCHAR 32BA
ENCODING 12986
SWIDTH 1000 0
DWIDTH 20 0
BBX 18 17 1 -1
BITMAP
03F000
0C0C00
300200
423F00
462080
8A2080
8A2040
923C40
922640
A20240
BF0240
822280
426280
263D00
190200
0C0400
03F800
ENDCHAR
STARTCHAR 32BB
ENCODING 12987
SWIDTH 1000 0
DWIDTH 20 0
BBX 18 17 1 -1
BITMAP
03F000
0C0C00
300200
421D00
463680
8A2680
8A2040
923C40
922640
A22240
BF2240
822280
422680
261D00
190200
0C0400
03F800
ENDCHAR
STARTCHAR 32BC
ENCODING 12988
SWIDTH 1000 0
DWIDTH 20 0
BBX 18 17 1 -1
BITMAP
03F000
0C0C00
300200
427F00
464480
8A4480
8A0440
920840
920840
A20840
BF1840
821080
421080
271100
100200
0C0400
03F800
ENDCHAR
STARTCHAR 32BD
ENCODING 12989
SWIDTH 1000 0
DWIDTH 20 0
BBX 18 17 1 -1
BITMAP
03F000
0C0C00
300200
421D00
462280
8A2280
8A2440
921840
921C40
A22640
BF4240
824280
422680
263D00
190200
0C0400
03F800
ENDCHAR
STARTCHAR 32BE
ENCODING 12990
SWIDTH 1000 0
DWIDTH 20 0
BBX 18 17 1 -1
BITMAP
03F000
0C0C00
300200
421D00
462680
8A2280
8A6240
922240
922640
A21A40
BF0240
822680
422480
273900
100200
0C0400
03F800
ENDCHAR
STARTCHAR 32BF
ENCODING 12991
SWIDTH 1000 0
DWIDTH 20 0
BBX 18 18 1 -2
BITMAP
03F000
0C0C00
300200
5F1D00
503480
902680
902240
962240
992240
812240
81A240
99A240
992680
533480
2E1D00
100200
0C0C00
03F000
ENDCHAR
STARTCHAR 32D0
ENCODING 13008
SWIDTH 1000 0
DWIDTH 20 0
BBX 18 18 1 -1
BITMAP
03F000
040800
180600
200100
500680
4FFE80
800840
801040
80E040
804040
804040
80C040
808080
408080
210100
120200
0C0400
03F800
ENDCHAR
STARTCHAR 32D1
ENCODING 13009
SWIDTH 1000 0
DWIDTH 20 0
BBX 18 18 1 -1
BITMAP
03F000
040800
180600
201900
400880
401880
803040
80C040
81C040
864040
984040
A04040
804080
404080
204100
104200
0C0400
03F800
ENDCHAR
STARTCHAR 32D2
ENCODING 13010
SWIDTH 1000 0
DWIDTH 20 0
BBX 18 18 1 -1
BITMAP
03F000
040800
180600
20C100
404080
504480
8FFE40
840440
840440
840C40
840840
800840
801080
402080
204100
108200
0F0400
03F800
ENDCHAR
STARTCHAR 32D3
ENCODING 13011
SWIDTH 1000 0
DWIDTH 20 0
BBX 18 18 1 -1
BITMAP
03F000
040800
180600
200100
400080
500C80
8FF040
808040
808040
808040
808040
808040
A08680
5FFF80
200100
100200
0C0400
03F800
ENDCHAR
STARTCHAR 32D4
ENCODING 13012
SWIDTH 1000 0
DWIDTH 20 0
BBX 18 18 1 -1
BITMAP
03F000
040800
186600
202100
402080
402680
9FFF40
806040
80A040
80A040
812040
822040
841080
48D080
303100
102200
0C0400
03F800
ENDCHAR
STARTCHAR 32D5
ENCODING 13013
SWIDTH 1000 0
DWIDTH 20 0
BBX 18 18 1 -1
BITMAP
03F000
040800
188600
204100
404080
404680
887E40
87C640
808440
808440
808440
810440
834880
422880
241900
181200
0C0400
03F800
ENDCHAR
STARTCHAR 32D6
ENCODING 13014
SWIDTH 1000 0
DWIDTH 20 0
BBX 18 18 1 -1
BITMAP
03F000
040800
180600
238100
408080
408C80
80FC40
9F8040
804040
804640
80F940
9F4040
804080
402080
202100
102200
0C0400
03F800
ENDCHAR
STARTCHAR 32D7
ENCODING 13015
SWIDTH 1000 0
DWIDTH 20 0
BBX 18 18 1 -1
BITMAP
03F000
040800
180600
20C100
40C480
40FE80
810440
810C40
820840
841840
981040
802040
804080
408080
230100
1C0200
0C0400
03F800
ENDCHAR
STARTCHAR 32D8
ENCODING 13016
SWIDTH 1000 0
DWIDTH 20 0
BBX 18 18 1 -1
BITMAP
03F000
040800
180600
230100
410080
420080
83FF40
843040
842040
882040
902040
806040
804080
40C080
218100
120200
0C0400
03F800
ENDCHAR
STARTCHAR 32D9
ENCODING 13017
SWIDTH 1000 0
DWIDTH 20 0
BBX 18 18 1 -1
BITMAP
03F000
040800
180600
200100
400080
480C80
87FC40
800C40
800840
800840
800840
800840
800880
4FFC80
200100
100200
0C0400
03F800
ENDCHAR
STARTCHAR 32DA
ENCODING 13018
SWIDTH 1000 0
DWIDTH 20 0
BBX 18 18 1 -1
BITMAP
03F000
040800
180600
203100
461880
421080
821040
A27F40
9F9040
821040
821040
821040
801080
402080
204100
108200
0F0400
03F800
ENDCHAR
STARTCHAR 32DB
ENCODING 13019
SWIDTH 1000 0
DWIDTH 20 0
BBX 18 18 1 -1
BITMAP
03F000
040800
180600
200100
430080
408080
80C140
9C0240
860240
820440
800840
801040
802080
404080
298100
160200
0C0400
03F800
ENDCHAR
STARTCHAR 32DC
ENCODING 13020
SWIDTH 1000 0
DWIDTH 20 0
BBX 18 18 1 -1
BITMAP
03F000
040800
180600
200100
441880
43F880
801040
803040
802040
804040
80F040
818C40
820680
440280
380100
100200
0C0400
03F800
ENDCHAR
STARTCHAR 32DD
ENCODING 13021
SWIDTH 1000 0
DWIDTH 20 0
BBX 18 18 1 -1
BITMAP
03F000
040800
180600
260100
420080
420080
820440
83FE40
BE0840
821040
822040
820040
820080
430080
21FD00
100200
0C0400
03F800
ENDCHAR
STARTCHAR 32DE
ENCODING 13022
SWIDTH 1000 0
DWIDTH 20 0
BBX 18 18 1 -1
BITMAP
03F000
040800
180600
200100
400C80
4C0680
860440
820440
820C40
800840
801040
803040
802080
404080
218100
120200
0C0400
03F800
ENDCHAR
STARTCHAR 32DF
ENCODING 13023
SWIDTH 1000 0
DWIDTH 20 0
BBX 18 18 1 -1
BITMAP
03F000
040800
180600
20C100
408480
40FC80
810440
830840
830840
84D040
983040
803040
804880
408080
210100
160200
0C0400
03F800
ENDCHAR
STARTCHAR 32E0
ENCODING 13024
SWIDTH 1000 0
DWIDTH 20 0
BBX 18 18 1 -1
BITMAP
03F000
040800
180600
201900
403880
41C080
8E4040
804040
804F40
9FF040
804040
804040
808080
408080
210100
160200
0C0400
03F800
ENDCHAR
STARTCHAR 32E1
ENCODING 13025
SWIDTH 1000 0
DWIDTH 20 0
BBX 18 18 1 -1
BITMAP
03F000
040800
180600
200100
410480
508280
888240
84C640
84C440
840C40
800840
801040
803080
406080
208100
110200
0E0400
03F800
ENDCHAR
STARTCHAR 32E2
ENCODING 13026
SWIDTH 1000 0
DWIDTH 20 0
BBX 18 18 1 -1
BITMAP
03F000
040800
180600
200100
47F880
400080
800040
800240
9FFF40
804040
804040
804040
804080
408080
218100
120200
0C0400
03F800
ENDCHAR
STARTCHAR 32E3
ENCODING 13027
SWIDTH 1000 0
DWIDTH 20 0
BBX 18 18 1 -1
BITMAP
03F000
040800
180600
230100
410080
410080
810040
818040
816040
811840
810C40
810440
810080
410080
210100
110200
0C0400
03F800
ENDCHAR
STARTCHAR 32E5
ENCODING 13029
SWIDTH 1000 0
DWIDTH 20 0
BBX 18 18 1 -1
BITMAP
03F000
040800
180600
200100
400080
481880
87E440
800040
800040
800040
800040
A00E40
9FF180
400080
200100
100200
0C0400
03F800
ENDCHAR
STARTCHAR 32E9
ENCODING 13033
SWIDTH 1000 0
DWIDTH 20 0
BBX 18 18 1 -1
BITMAP
03F000
040800
180600
200100
400080
433080
830840
820C40
820440
840240
840340
880340
900180
600080
200100
100200
0C0400
03F800
ENDCHAR
STARTCHAR 32EC
ENCODING 13036
SWIDTH 1000 0
DWIDTH 20 0
BBX 18 18 1 -1
BITMAP
03F000
040800
180600
200100
400080
410080
828040
844040
8C3040
981840
B00C40
800640
800380
400080
200100
100200
0C0400
03F800
ENDCHAR
STARTCHAR 32ED
ENCODING 13037
SWIDTH 1000 0
DWIDTH 20 0
BBX 18 18 1 -1
BITMAP
03F000
040800
190600
20C100
404080
404080
907E40
8FC040
805040
844840
844440
884240
984280
524280
21C100
10C200
0C0400
03F800
ENDCHAR
STARTCHAR 32FA
ENCODING 13050
SWIDTH 1000 0
DWIDTH 20 0
BBX 18 18 1 -1
BITMAP
03F000
040800
180600
200100
400080
4C7C80
878440
840440
840440
840C40
840840
840840
840880
47FC80
240100
100200
0C0400
03F800
ENDCHAR
STARTCHAR 3303
ENCODING 13059
SWIDTH 1000 0
DWIDTH 20 0
BBX 18 17 1 -1
BITMAP
7F8000
010000
120000
0C8080
087FC0
080000
080000
100000
200000
0C0000
340000
144000
144000
148000
250000
460000
840000
ENDCHAR
STARTCHAR 330D
ENCODING 13069
SWIDTH 1000 0
DWIDTH 20 0
BBX 18 19 1 -2
BITMAP
180000
084000
8B3F80
751080
111080
111080
221080
261F80
461000
800000
660000
220000
220000
2280C0
227F00
220000
040000
080000
100000
ENDCHAR
STARTCHAR 3314
ENCODING 13076
SWIDTH 1000 0
DWIDTH 20 0
BBX 18 17 1 -1
BITMAP
180000
080000
0F8000
780000
08C000
070000
FC0000
040000
040000
024080
003FC0
002080
002080
002080
002080
002380
003C00
ENDCHAR
STARTCHAR 3318
ENCODING 13080
SWIDTH 1000 0
DWIDTH 20 0
BBX 18 18 1 -1
BITMAP
00C000
19DF00
130000
1D0080
223FC0
420080
840100
0C0200
180400
200800
481000
080000
080000
140000
130000
210000
A68000
788000
ENDCHAR
STARTCHAR 3322
ENCODING 13090
SWIDTH 1000 0
DWIDTH 20 0
BBX 18 19 1 -2
BITMAP
400000
303000
211840
9F8880
E20080
240100
200200
102400
1F1800
020000
030000
3C0000
440000
FF8000
044000
080000
080000
100000
600000
ENDCHAR
STARTCHAR 3323
ENCODING 13091
SWIDTH 1000 0
DWIDTH 20 0
BBX 18 19 1 -2
BITMAP
200000
302000
211840
9F8880
E20080
240100
200200
102C00
1F1800
200000
100000
100000
100000
1C0000
130000
110000
100000
100000
100000
ENDCHAR
STARTCHAR 3326
ENCODING 13094
SWIDTH 1000 0
DWIDTH 20 0
BBX 16 17 3 -1
BITMAP
8800
D400
8800
4000
B000
8800
8400
8000
C030
C090
0090
0091
0092
0092
0114
0218
0430
ENDCHAR
STARTCHAR 3327
ENCODING 13095
SWIDTH 1000 0
DWIDTH 20 0
BBX 17 17 2 -1
BITMAP
C00000
400000
400000
600000
580000
440000
460000
400000
408000
406000
002180
000100
000200
000400
000800
009000
006000
ENDCHAR
STARTCHAR 332B
ENCODING 13099
SWIDTH 1000 0
DWIDTH 20 0
BBX 18 19 1 -2
BITMAP
038000
028000
350000
120000
217FC0
218000
408000
808000
800000
000400
610200
248A00
3E9200
E41380
2822C0
202240
204200
3D8200
000200
ENDCHAR
STARTCHAR 3336
ENCODING 13110
SWIDTH 1000 0
DWIDTH 20 0
BBX 18 18 1 -1
BITMAP
000400
180480
2C0BC0
240880
433100
C18100
008200
000400
001800
202000
340200
3C0E00
440600
6BEA40
981A40
180A80
281300
C03300
ENDCHAR
STARTCHAR 333B
ENCODING 13115
SWIDTH 1000 0
DWIDTH 20 0
BBX 18 17 1 -1
BITMAP
030000
1B0000
2C0000
267FC0
C30000
818000
00C000
000000
02C000
310000
088000
E08000
210000
020000
040000
080000
300000
ENDCHAR
STARTCHAR 3349
ENCODING 13129
SWIDTH 1000 0
DWIDTH 20 0
BBX 15 17 2 -1
BITMAP
7800
0400
0000
7800
0C00
0000
F000
0C42
0622
0022
0022
0022
0022
0002
0004
000C
0010
ENDCHAR
STARTCHAR 334A
ENCODING 13130
SWIDTH 1000 0
DWIDTH 20 0
BBX 18 18 1 -1
BITMAP
000100
3C1100
001100
381100
041100
001100
780100
060200
020400
000800
0A0200
440E00
280600
261A40
23EA40
420A80
821300
803300
ENDCHAR
STARTCHAR 334D
ENCODING 13133
SWIDTH 1000 0
DWIDTH 20 0
BBX 18 19 1 -2
BITMAP
020000
020000
020000
340000
0C80C0
0A7F00
120000
200000
C00000
200000
100C00
103400
101440
1E1440
131480
102500
104600
108400
100000
ENDCHAR
STARTCHAR 3351
ENCODING 13137
SWIDTH 1000 0
DWIDTH 20 0
BBX 17 19 2 -2
BITMAP
040000
CC0000
441300
445300
445200
440200
040400
080800
101000
202000
600800
406800
202800
582880
442900
244A00
204C00
218800
200000
ENDCHAR
STARTCHAR 3357
ENCODING 13143
SWIDTH 1000 0
DWIDTH 20 0
BBX 16 18 2 -2
BITMAP
BE00
C293
8251
8452
8402
0804
1008
2030
0000
6000
2000
2000
3800
2600
2200
2000
2000
2000
ENDCHAR
STARTCHAR 337B
ENCODING 13179
SWIDTH 1000 0
DWIDTH 20 0
BBX 18 18 1 -1
BITMAP
000800
010700
FF0580
100480
937FC0
524400
524400
5252C0
747A80
544A80
114B00
FFCB00
104B00
104940
107B40
109540
1084C0
111840
ENDCHAR
STARTCHAR 337C
ENCODING 13180
SWIDTH 1000 0
DWIDTH 20 0
BBX 18 18 1 -1
BITMAP
008800
2F8C00
F6B240
A4D3C0
A49240
A49640
A4FE40
A89240
EB1240
B01A40
AFB640
A93640
A95240
A95240
E99240
A913C0
0F1240
091000
ENDCHAR
STARTCHAR 337D
ENCODING 13181
SWIDTH 1000 0
DWIDTH 20 0
BBX 18 18 1 -1
BITMAP
080000
080080
087FC0
080400
090400
FF8400
082400
083400
182480
182780
142400
142400
142400
222400
232400
412480
81FFC0
800000
ENDCHAR
STARTCHAR 337E
ENCODING 13182
SWIDTH 1000 0
DWIDTH 20 0
BBX 18 18 1 -1
BITMAP
090200
2FA300
F91200
A91200
A90B00
A94C80
AF3480
E935C0
A91E40
A92840
A92080
AF27C0
E96480
A92480
092480
112480
112780
272480
ENDCHAR
STARTCHAR 338E
ENCODING 13198
SWIDTH 1000 0
DWIDTH 20 0
BBX 18 13 1 -2
BITMAP
5B0EC0
EC9140
48B100
48A100
489100
489E00
489000
48B000
489F00
EDA080
0060C0
003080
001F00
ENDCHAR
STARTCHAR 338F
ENCODING 13199
SWIDTH 1000 0
DWIDTH 20 0
BBX 18 17 1 -2
BITMAP
600000
E00000
600000
600000
600000
671FC0
643180
682100
682100
783100
642E00
662000
621F00
632080
94C080
006080
001F00
ENDCHAR
STARTCHAR 339C
ENCODING 13212
SWIDTH 1000 0
DWIDTH 20 0
BBX 18 10 1 1
BITMAP
762D80
C97680
492480
492480
492480
492480
492480
492480
492480
FFFEC0
ENDCHAR
STARTCHAR 339D
ENCODING 13213
SWIDTH 1000 0
DWIDTH 20 0
BBX 18 10 1 1
BITMAP
3C5B80
62EC80
464480
404480
C04480
C04480
404480
424480
624480
3CEFC0
ENDCHAR
STARTCHAR 339E
ENCODING 13214
SWIDTH 1000 0
DWIDTH 20 0
BBX 18 14 1 1
BITMAP
400000
C00000
400000
400000
400000
4EDB80
486480
484480
504480
684480
484480
444480
444480
E7EFC0
ENDCHAR
STARTCHAR 33A1
ENCODING 13217
SWIDTH 1000 0
DWIDTH 20 0
BBX 17 15 2 1
BITMAP
000700
000500
000200
000480
000780
000000
EF3800
31C400
208400
208400
208400
208400
208400
208400
FBCF00
ENDCHAR
STARTCHAR 33C4
ENCODING 13252
SWIDTH 1000 0
DWIDTH 20 0
BBX 16 10 2 1
BITMAP
3C1C
6222
4646
C040
80C0
80C0
C040
4243
6262
3C3C
ENDCHAR
STARTCHAR 33CB
ENCODING 13259
SWIDTH 1000 0
DWIDTH 20 0
BBX 17 14 2 1
BITMAP
F9FE00
604300
204100
204180
204100
204300
3FFE00
204000
204000
204000
204000
204000
204000
F9F000
ENDCHAR
STARTCHAR 33CD
ENCODING 13261
SWIDTH 1000 0
DWIDTH 20 0
BBX 18 14 1 1
BITMAP
EE7F00
482200
482400
502400
502800
502800
702C00
503400
482400
482600
482200
442200
44A340
EFFFC0
ENDCHAR
STARTCHAR 3402
ENCODING 13314
SWIDTH 1000 0
DWIDTH 20 0
BBX 18 17 1 -1
BITMAP
060000
040200
040F00
0FF000
F40400
040400
040400
07FE00
000000
181800
109880
171FC0
F8F800
111880
111880
111880
1F8F80
ENDCHAR
STARTCHAR 3406
ENCODING 13318
SWIDTH 1000 0
DWIDTH 20 0
BBX 11 19 4 -2
BITMAP
0040
03E0
3C00
2040
3FE0
2020
2020
3FE0
2020
3FE0
2000
2020
3FE0
6020
4020
4060
C040
87C0
8000
ENDCHAR
STARTCHAR 342C
ENCODING 13356
SWIDTH 1000 0
DWIDTH 20 0
BBX 18 18 1 -1
BITMAP
00C000
00C000
00C180
7FFFC0
018000
011800
020400
041F00
3FE100
200100
080C00
0CCC00
088C00
188C80
188C80
108C80
208CC0
C007C0
ENDCHAR
STARTCHAR 342E
ENCODING 13358
SWIDTH 1000 0
DWIDTH 20 0
BBX 18 19 1 -3
BITMAP
00C000
008080
FFFFC0
021000
0D2F00
F31980
3FFF80
021200
3FFF00
021000
021080
FFFFC0
014200
062380
7E1400
860C00
07E700
3C01C0
200000
ENDCHAR
STARTCHAR 3468
ENCODING 13416
SWIDTH 1000 0
DWIDTH 20 0
BBX 18 17 1 -1
BITMAP
0E0100
19FF00
110180
110100
310100
21FF00
30C000
618100
61FF80
A31000
A41080
27FFC0
203000
202800
204600
208380
2700C0
ENDCHAR
STARTCHAR 346A
ENCODING 13418
SWIDTH 1000 0
DWIDTH 20 0
BBX 18 18 1 -1
BITMAP
101000
0C1800
081080
1FFFC0
108600
104400
302800
383800
306700
5383C0
5C8200
90FE00
108200
11FE00
110200
110200
120200
140200
ENDCHAR
STARTCHAR 3492
ENCODING 13458
SWIDTH 1000 0
DWIDTH 20 0
BBX 18 18 1 -1
BITMAP
106C00
0E6980
096900
196900
11EA80
17FFC0
308600
384480
53FFC0
501100
93FF80
901080
17FFC0
103800
105400
109300
1310C0
1C1000
ENDCHAR
STARTCHAR 34B5
ENCODING 13493
SWIDTH 1000 0
DWIDTH 20 0
BBX 17 17 1 -1
BITMAP
00C000
018000
210200
1FFF00
100200
100200
1FFE00
100200
100200
100200
1FFE00
100200
023000
070C00
0C0300
300180
C00080
ENDCHAR
STARTCHAR 34BC
ENCODING 13500
SWIDTH 1000 0
DWIDTH 20 0
BBX 18 17 1 -1
BITMAP
061800
061180
FFFFC0
061000
07F000
40C100
3FFF80
20C100
24C900
2EF900
24C900
24C900
26D500
29E700
30C100
20C100
20DF00
ENDCHAR
STARTCHAR 34C1
ENCODING 13505
SWIDTH 1000 0
DWIDTH 20 0
BBX 18 10 1 3
BITMAP
400080
3FFF80
2021C0
632100
C22300
442080
0C2080
1820C0
203F80
400000
ENDCHAR
STARTCHAR 34C7
ENCODING 13511
SWIDTH 1000 0
DWIDTH 20 0
BBX 18 17 1 -1
BITMAP
000700
C03800
25D000
3A1000
081000
081000
101080
17FFC0
103000
203000
202800
E02800
204400
204600
208300
210180
2600C0
ENDCHAR
STARTCHAR 34DB
ENCODING 13531
SWIDTH 1000 0
DWIDTH 20 0
BBX 17 18 1 -2
BITMAP
000080
03FF80
023080
FF3080
103080
103080
103080
103180
102180
102180
102180
112180
1E4100
F04100
C08100
018100
011F00
060600
ENDCHAR
STARTCHAR 351F
ENCODING 13599
SWIDTH 1000 0
DWIDTH 20 0
BBX 18 18 1 -1
BITMAP
0C0800
280800
3A0A00
697F00
7F8B00
480B00
897900
7F19C0
081D80
09A580
FE40C0
808100
7FFF80
018100
010100
030300
064200
783E00
ENDCHAR
STARTCHAR 355D
ENCODING 13661
SWIDTH 1000 0
DWIDTH 20 0
BBX 18 18 1 -1
BITMAP
008000
00C000
00C080
FFFFC0
00C000
20C200
1FFE00
100300
100200
1FFE00
000400
3FFE00
040C00
021800
01B000
00E000
031E00
FC03C0
ENDCHAR
STARTCHAR 355E
ENCODING 13662
SWIDTH 1000 0
DWIDTH 20 0
BBX 18 17 1 -1
BITMAP
408000
7FC080
40FF80
409080
7F9180
409180
420900
428900
5FC900
524600
524600
524600
524600
924900
939180
8220C0
024040
ENDCHAR
STARTCHAR 3563
ENCODING 13667
SWIDTH 1000 0
DWIDTH 20 0
BBX 18 17 1 -1
BITMAP
001000
01F800
041000
060800
0C0400
080600
100300
2000C0
500400
9FFE00
180600
180600
180600
180600
180600
1FFE00
180600
ENDCHAR
STARTCHAR 356E
ENCODING 13678
SWIDTH 1000 0
DWIDTH 20 0
BBX 17 17 2 -1
BITMAP
008000
88CC00
F88600
898200
890100
8A0980
8A8680
8C8C00
888800
885800
887000
F83000
883000
804800
008400
010300
0E0180
ENDCHAR
STARTCHAR 35A6
ENCODING 13734
SWIDTH 1000 0
DWIDTH 20 0
BBX 17 18 2 -1
BITMAP
002000
003000
882100
FFFF80
882000
8A2200
8BFF00
8A2200
8BFE00
8A2200
8A2200
8BFE00
F87000
886800
80A400
012300
062080
182000
ENDCHAR
STARTCHAR 35A8
ENCODING 13736
SWIDTH 1000 0
DWIDTH 20 0
BBX 17 19 2 -2
BITMAP
008000
00C400
08FE00
FC8400
888400
89FC00
890900
8FFF80
883000
8A3100
89B280
88AC00
F86400
88E600
832300
062180
002100
01E000
004000
ENDCHAR
STARTCHAR 35C5
ENCODING 13765
SWIDTH 1000 0
DWIDTH 20 0
BBX 17 17 2 -1
BITMAP
019100
011F80
F91900
915900
97F900
911F00
911900
911900
955900
97F900
965F00
F65100
965100
87D100
067100
062100
004F00
ENDCHAR
STARTCHAR 35DA
ENCODING 13786
SWIDTH 1000 0
DWIDTH 20 0
BBX 17 17 2 -1
BITMAP
000100
07FF80
F84800
904A00
93FF00
924900
924900
924900
93FF00
902000
902180
F7FF80
907000
80A800
012600
022180
0C2000
ENDCHAR
STARTCHAR 35F4
ENCODING 13812
SWIDTH 1000 0
DWIDTH 20 0
BBX 17 17 2 -1
BITMAP
045100
03FF80
FA5900
93DF00
925900
925900
93DF00
920900
92FD00
928900
928900
F2F900
928900
82F900
028900
020100
020F00
ENDCHAR
STARTCHAR 3605
ENCODING 13829
SWIDTH 1000 0
DWIDTH 20 0
BBX 17 18 2 -1
BITMAP
022000
036100
A45F80
F45800
A88800
B39000
A2F080
A54F80
A45100
AFF900
AC4100
B55900
E4D100
A4D100
84E100
045900
05E100
050E00
ENDCHAR
STARTCHAR 364A
ENCODING 13898
SWIDTH 1000 0
DWIDTH 20 0
BBX 18 18 1 -2
BITMAP
190100
10FF80
108200
10FF00
148000
FE8300
10FF00
108000
108080
17FFC0
109000
108980
128B00
1C8400
E08600
808B00
01F180
0300C0
ENDCHAR
STARTCHAR 3691
ENCODING 13969
SWIDTH 1000 0
DWIDTH 20 0
BBX 18 18 1 -2
BITMAP
000400
1FFE00
000600
000680
FFFFC0
000600
000600
1FFE00
000600
00C000
008080
FFFFC0
00C000
00A000
011000
020C00
0C0780
F001C0
ENDCHAR
STARTCHAR 3696
ENCODING 13974
SWIDTH 1000 0
DWIDTH 20 0
BBX 18 19 1 -2
BITMAP
008000
00C000
208200
1FFF00
100200
100200
1FFE00
100200
100200
1FFE00
10C000
008080
FFFFC0
00C000
01A000
011800
060E00
1803C0
E00000
ENDCHAR
STARTCHAR 3699
ENCODING 13977
SWIDTH 1000 0
DWIDTH 20 0
BBX 18 19 1 -2
BITMAP
0C0000
082080
089F80
FF9080
089080
189080
119080
311F80
6F1080
80C000
008000
008080
FFFFC0
00C000
00A000
011000
020C00
0C0780
F001C0
ENDCHAR
STARTCHAR 36CF
ENCODING 14031
SWIDTH 1000 0
DWIDTH 20 0
BBX 18 17 1 -1
BITMAP
301C00
201300
201100
2410C0
FDFFC0
261800
251880
4498C0
445500
485600
481200
E87200
18D100
1F10C0
351040
201000
C0F000
ENDCHAR
STARTCHAR 3761
ENCODING 14177
SWIDTH 1000 0
DWIDTH 20 0
BBX 18 18 1 -1
BITMAP
008000
00C000
408080
3FFFC0
400180
C08000
7FC100
117F80
112100
1F2100
111100
111200
1F0A00
110C00
110400
1F0A00
613180
0140C0
ENDCHAR
STARTCHAR 3762
ENCODING 14178
SWIDTH 1000 0
DWIDTH 20 0
BBX 18 17 1 -1
BITMAP
00C000
408080
3FFFC0
400480
C3FB00
3C8400
1FFE00
108200
108200
1FFE00
408100
3FFF80
209100
208900
2FF500
280100
201F00
ENDCHAR
STARTCHAR 376B
ENCODING 14187
SWIDTH 1000 0
DWIDTH 20 0
BBX 18 17 1 -1
BITMAP
00C000
408080
3FFFC0
400080
C43300
7E7E00
44C700
4B3800
503E00
49C5C0
46FF00
44D900
45FF80
7D1200
4AFF00
401080
43FFC0
ENDCHAR
STARTCHAR 376C
ENCODING 14188
SWIDTH 1000 0
DWIDTH 20 0
BBX 18 18 1 -1
BITMAP
0C0400
080600
888400
7FC400
C88480
8D7F80
0F0400
FA0400
7F0480
0804C0
FFFFC0
080C00
410A00
7F0A00
411100
411080
7F20C0
41C080
ENDCHAR
STARTCHAR 3775
ENCODING 14197
SWIDTH 1000 0
DWIDTH 20 0
BBX 17 17 2 -1
BITMAP
400400
3FFC00
200400
3FFC00
200400
3FFC00
200400
000200
7FFF00
003000
003100
FFFF80
203000
1C3000
063000
003000
01F000
ENDCHAR
STARTCHAR 378D
ENCODING 14221
SWIDTH 1000 0
DWIDTH 20 0
BBX 18 18 1 -2
BITMAP
400100
3FFF00
200100
200100
200100
3FFF00
20C000
208000
208800
2FFC00
208800
208800
268800
618880
414880
422880
840CC0
9807C0
ENDCHAR
STARTCHAR 37C1
ENCODING 14273
SWIDTH 1000 0
DWIDTH 20 0
BBX 17 17 2 -1
BITMAP
320180
21FF80
210000
AD0100
A97F00
A90800
A90800
A90800
A90900
A9FF80
A90800
AB0800
FA0800
8A0800
8A0800
840800
040800
ENDCHAR
STARTCHAR 37E2
ENCODING 14306
SWIDTH 1000 0
DWIDTH 20 0
BBX 18 17 1 -1
BITMAP
30C100
208100
208100
3FFF00
008100
7FFF80
018000
037C00
3C0680
FFFFC0
000400
1FC400
10C400
10C400
1FC400
10C400
003C00
ENDCHAR
STARTCHAR 37E8
ENCODING 14312
SWIDTH 1000 0
DWIDTH 20 0
BBX 17 18 2 -1
BITMAP
001000
319B00
211300
211300
AD1300
A9FF00
A90000
A80100
ABFF80
A82000
A9FF80
A94900
A94900
F94900
894900
894900
814900
014F00
ENDCHAR
STARTCHAR 37F4
ENCODING 14324
SWIDTH 1000 0
DWIDTH 20 0
BBX 17 19 2 -2
BITMAP
003000
302000
222100
21FF00
AD1100
A91100
A9FF00
A91100
A91100
A91100
A9FF00
A85200
A85600
F85680
889F80
889980
811080
021F80
040000
ENDCHAR
STARTCHAR 37FD
ENCODING 14333
SWIDTH 1000 0
DWIDTH 20 0
BBX 17 17 2 -1
BITMAP
300100
23FF80
204800
AA4A00
ADFF00
A94900
A94900
A9FF00
A80200
A9FF00
A80100
ABFF80
F89400
899200
891100
821100
04F180
ENDCHAR
STARTCHAR 3800
ENCODING 14336
SWIDTH 1000 0
DWIDTH 20 0
BBX 18 18 1 -1
BITMAP
018000
110400
1FFE00
180400
1FFC00
1FFC00
180080
1FFFC0
1FFF80
288880
444C80
C40700
00C200
308300
208300
208300
3FFF00
200300
ENDCHAR
STARTCHAR 382F
ENCODING 14383
SWIDTH 1000 0
DWIDTH 20 0
BBX 13 17 4 -1
BITMAP
8020
FFF0
8020
8020
8020
8020
FFE0
8020
8000
8010
FFF8
8010
8010
8010
8010
FFF0
8010
ENDCHAR
STARTCHAR 3836
ENCODING 14390
SWIDTH 1000 0
DWIDTH 20 0
BBX 18 17 1 -1
BITMAP
181800
101000
10A600
FE7C00
924400
924400
924400
924400
924400
924400
92C400
928400
9E8480
948480
110480
1204C0
1407C0
ENDCHAR
STARTCHAR 3840
ENCODING 14400
SWIDTH 1000 0
DWIDTH 20 0
BBX 17 17 1 -1
BITMAP
00C000
04C000
0ED800
08C600
10C300
20C180
3FFF80
60C180
A0C100
23D100
22C900
24C900
24C900
28C100
20C100
20E100
20DE00
ENDCHAR
STARTCHAR 385C
ENCODING 14428
SWIDTH 1000 0
DWIDTH 20 0
BBX 18 18 1 -1
BITMAP
104000
105880
10FFC0
149480
FD5480
972300
96A200
94C100
944380
94BEC0
950040
960100
95FF80
940800
9CCB00
118880
1108C0
167000
ENDCHAR
STARTCHAR 3861
ENCODING 14433
SWIDTH 1000 0
DWIDTH 20 0
BBX 18 17 1 -1
BITMAP
320080
31FFC0
311080
FD0880
B5FC80
B50080
B5F8C0
B58FC0
B58880
B5FC80
B58280
B69280
B65A80
BE5080
326C80
35F080
348780
ENDCHAR
STARTCHAR 38FA
ENCODING 14586
SWIDTH 1000 0
DWIDTH 20 0
BBX 18 17 1 -1
BITMAP
020000
030000
020000
020000
020000
224400
224200
222100
221100
221080
621880
C218C0
C20840
020000
020000
3E0000
060000
ENDCHAR
STARTCHAR 3917
ENCODING 14615
SWIDTH 1000 0
DWIDTH 20 0
BBX 18 17 1 -1
BITMAP
00C000
008100
7FFF80
010200
3FFF00
022000
021080
FFFFC0
040800
08C400
108300
2089C0
C8A480
089300
109900
319980
078000
ENDCHAR
STARTCHAR 391A
ENCODING 14618
SWIDTH 1000 0
DWIDTH 20 0
BBX 18 17 1 -1
BITMAP
184000
10E080
109F80
190000
554000
566000
544080
54BFC0
D18200
91C200
128200
148200
108200
108200
108200
108200
109E00
ENDCHAR
STARTCHAR 396F
ENCODING 14703
SWIDTH 1000 0
DWIDTH 20 0
BBX 18 17 1 -1
BITMAP
003E00
1FC400
10C200
104580
2FFC80
408200
3FFF00
000400
1FFE00
FFFFC0
000600
3FFE00
268400
246300
242880
6404C0
C7FC00
ENDCHAR
STARTCHAR 3A6E
ENCODING 14958
SWIDTH 1000 0
DWIDTH 20 0
BBX 19 17 1 -1
BITMAP
30B900
337B80
32A900
37BB00
FE0900
33FB00
322940
3FFFC0
308200
F13F00
B1D3C0
33FFE0
3C1100
33FF80
301000
301000
E0F000
ENDCHAR
STARTCHAR 3A73
ENCODING 14963
SWIDTH 1000 0
DWIDTH 20 0
BBX 18 18 1 -1
BITMAP
314500
21E780
22AA80
23FFC0
2A8A00
FFFF80
269A00
22AA80
23EF80
2EAA80
73FFC0
A00200
21FF00
204300
202400
201800
203E00
E7C1C0
ENDCHAR
STARTCHAR 3AD6
ENCODING 15062
SWIDTH 1000 0
DWIDTH 20 0
BBX 18 18 1 -1
BITMAP
008000
00C000
008000
008300
00FF00
008000
008000
008080
FFFFC0
000000
200400
1FFE00
100200
1FFE00
100200
100200
1FFE00
100200
ENDCHAR
STARTCHAR 3AD7
ENCODING 15063
SWIDTH 1000 0
DWIDTH 20 0
BBX 18 17 1 -1
BITMAP
200200
1FFF00
100200
1FFE00
100200
100200
1FFE00
000400
3FFE00
000C00
00B000
00C080
FFFFC0
004000
004000
004000
07C000
ENDCHAR
STARTCHAR 3AEA
ENCODING 15082
SWIDTH 1000 0
DWIDTH 20 0
BBX 18 17 1 -1
BITMAP
00C000
008100
7FFF80
010200
3FFF00
022080
FFFFC0
040800
080600
3DFF00
4986C0
898600
09FE00
098600
098600
09FE00
098600
ENDCHAR
STARTCHAR 3B0E
ENCODING 15118
SWIDTH 1000 0
DWIDTH 20 0
BBX 17 19 1 -2
BITMAP
200200
1FFF00
100200
1FFE00
100200
100200
1FFE00
0C0400
080800
737300
341600
1A1500
1F1F80
E0E880
044400
122300
231180
631080
400000
ENDCHAR
STARTCHAR 3B1A
ENCODING 15130
SWIDTH 1000 0
DWIDTH 20 0
BBX 17 17 2 -1
BITMAP
018C00
910800
FFE880
910880
928F80
924900
9FB100
F81900
97EA00
946A00
97CA00
944400
F7C600
944600
944900
065180
05E080
ENDCHAR
STARTCHAR 3B1C
ENCODING 15132
SWIDTH 1000 0
DWIDTH 20 0
BBX 18 18 1 -1
BITMAP
010080
FFFFC0
100800
171380
7D7E80
884400
0A0500
7F7F80
080400
0B0480
FC7FC0
800400
1FFE00
100200
1FFE00
100200
1FFE00
100200
ENDCHAR
STARTCHAR 3B22
ENCODING 15138
SWIDTH 1000 0
DWIDTH 20 0
BBX 17 17 2 -1
BITMAP
018C00
884800
FBFF00
882200
8BFF00
882100
8FFF80
F80000
882800
8FCE00
888B80
8FFF80
F8E900
8F8E80
808C80
009B80
03E180
ENDCHAR
STARTCHAR 3B6D
ENCODING 15213
SWIDTH 1000 0
DWIDTH 20 0
BBX 19 17 0 -1
BITMAP
191060
11F840
111040
151340
7F1240
111240
11F240
184240
365240
327A40
505A40
50D240
909240
109040
111040
131040
14E3C0
ENDCHAR
STARTCHAR 3B77
ENCODING 15223
SWIDTH 1000 0
DWIDTH 20 0
BBX 18 17 1 -1
BITMAP
190100
10FF80
108880
128880
FEFF80
108880
108880
38FF80
349080
561800
521080
91FFC0
901080
901080
102080
104080
138F00
ENDCHAR
STARTCHAR 3B87
ENCODING 15239
SWIDTH 1000 0
DWIDTH 20 0
BBX 18 17 1 -1
BITMAP
180300
101C00
13F000
143000
FC2080
13FFC0
306800
384400
348300
55B180
533040
94BB00
90B480
90B4C0
113640
133200
10E000
ENDCHAR
STARTCHAR 3B88
ENCODING 15240
SWIDTH 1000 0
DWIDTH 20 0
BBX 18 17 1 -1
BITMAP
181800
103000
102080
17FFC0
FC2800
104400
38C600
3CFD80
3500C0
560100
53FF80
901000
90D200
911100
111080
1210C0
14F000
ENDCHAR
STARTCHAR 3B8D
ENCODING 15245
SWIDTH 1000 0
DWIDTH 20 0
BBX 18 18 1 -1
BITMAP
001000
061800
021080
FFFFC0
010100
3F9100
289100
269100
2E9100
208100
278F00
210200
00C080
FFFFC0
01A000
069C00
1883C0
E08000
ENDCHAR
STARTCHAR 3BA4
ENCODING 15268
SWIDTH 1000 0
DWIDTH 20 0
BBX 18 18 1 -1
BITMAP
00C000
208080
3FFFC0
432180
C62080
18FF80
616000
061800
0FFE00
7805C0
880400
0FFC00
008080
FFFFC0
01A000
069C00
1883C0
E08000
ENDCHAR
STARTCHAR 3BB6
ENCODING 15286
SWIDTH 1000 0
DWIDTH 20 0
BBX 19 17 0 -1
BITMAP
191C40
1193E0
109240
14AA40
7FFE40
1043C0
115A40
195A40
355A40
355A40
535BC0
51FA40
514640
904440
108440
108840
1311C0
ENDCHAR
STARTCHAR 3BC3
ENCODING 15299
SWIDTH 1000 0
DWIDTH 20 0
BBX 18 17 1 -1
BITMAP
181800
101080
13FFC0
143000
FE5E00
109180
311080
3E3800
346C00
56DB00
5112C0
96D300
905400
907E00
119180
121080
107000
ENDCHAR
STARTCHAR 3BCD
ENCODING 15309
SWIDTH 1000 0
DWIDTH 20 0
BBX 19 18 0 -1
BITMAP
183300
11A240
1123E0
112440
1527C0
7F2980
11F780
112100
1C22C0
362CC0
37E0A0
52BFE0
50A080
50AC80
912280
112080
122080
122780
ENDCHAR
STARTCHAR 3BF0
ENCODING 15344
SWIDTH 1000 0
DWIDTH 20 0
BBX 18 18 1 -1
BITMAP
1A0080
11FF80
1124C0
192480
15FF80
FD0800
300880
33FFC0
301000
587F00
55E100
557F00
917F00
916100
117F00
116100
11FFC0
110000
ENDCHAR
STARTCHAR 3C0F
ENCODING 15375
SWIDTH 1000 0
DWIDTH 20 0
BBX 18 18 1 -1
BITMAP
318600
312440
31FFC0
328A00
365900
FC1180
33FFC0
30FE00
388300
7C8200
74FE00
B3FF80
B27CC0
B24680
324480
327C80
320080
320780
ENDCHAR
STARTCHAR 3C26
ENCODING 15398
SWIDTH 1000 0
DWIDTH 20 0
BBX 18 18 1 -1
BITMAP
0C1000
083800
082000
092080
09BFC0
7FA8C0
084880
084900
088900
FFCC00
080C00
080C00
121200
111200
27A100
F8A180
4040C0
018040
ENDCHAR
STARTCHAR 3CC3
ENCODING 15555
SWIDTH 1000 0
DWIDTH 20 0
BBX 18 17 1 -1
BITMAP
206000
186000
086400
03FE00
046400
C44480
244480
0887C0
091800
161000
301080
F7FFC0
601000
201000
201000
201000
201000
ENDCHAR
STARTCHAR 3CD2
ENCODING 15570
SWIDTH 1000 0
DWIDTH 20 0
BBX 18 19 1 -2
BITMAP
002000
201800
103000
182080
03FFC0
046800
C44400
688200
29A100
0930C0
122040
142000
304400
E04200
208100
208780
23F980
220080
200000
ENDCHAR
STARTCHAR 3D11
ENCODING 15633
SWIDTH 1000 0
DWIDTH 20 0
BBX 18 19 1 -2
BITMAP
001800
601800
1218C0
13FFC0
060000
8A6300
4A3280
6AFFC0
1A0800
124880
324880
324880
E27F80
624880
224800
241800
241000
282000
704000
ENDCHAR
STARTCHAR 3D1E
ENCODING 15646
SWIDTH 1000 0
DWIDTH 20 0
BBX 17 17 1 -1
BITMAP
200100
181F80
0BE100
022180
059100
E89A00
289A00
0B4080
133F80
132080
132080
233F80
E32080
232080
232080
233F80
232080
ENDCHAR
STARTCHAR 3D64
ENCODING 15716
SWIDTH 1000 0
DWIDTH 20 0
BBX 18 19 1 -2
BITMAP
402080
33FFC0
18A280
18E380
05A580
C6FA80
68A280
2B0C80
0C1080
13FFC0
101200
109300
319300
E15C80
2278C0
202400
20C300
2101C0
2E0000
ENDCHAR
STARTCHAR 3D9A
ENCODING 15770
SWIDTH 1000 0
DWIDTH 20 0
BBX 18 17 1 -1
BITMAP
800080
6FFFC0
304900
07FF80
0C4880
D7FF80
536080
1257C0
1FF4C0
23C480
208780
27F480
E7E780
44A880
6FF880
608880
609380
ENDCHAR
STARTCHAR 3DC0
ENCODING 15808
SWIDTH 1000 0
DWIDTH 20 0
BBX 17 17 2 -1
BITMAP
081800
4B5600
4CDD00
D19000
1C3800
362600
42C200
800400
7FFC00
000400
060400
062400
FFF480
060680
060280
060380
060180
ENDCHAR
STARTCHAR 3DD4
ENCODING 15828
SWIDTH 1000 0
DWIDTH 20 0
BBX 18 17 1 -1
BITMAP
180180
101F00
11E100
171180
949100
584900
504A00
51A080
D1BFC0
913080
113080
193F80
253080
273080
433080
413F80
813080
ENDCHAR
STARTCHAR 3E05
ENCODING 15877
SWIDTH 1000 0
DWIDTH 20 0
BBX 18 18 1 -1
BITMAP
000800
318600
212440
29FFC0
2E4A00
AA5300
B4C880
B3F7C0
A22480
A3E480
A22480
23E480
320480
2B6480
2F8480
422780
83F400
800400
ENDCHAR
STARTCHAR 3E3F
ENCODING 15935
SWIDTH 1000 0
DWIDTH 20 0
BBX 18 18 1 -1
BITMAP
181800
501000
701080
51FFC0
521000
7E1100
51FF80
900000
910080
91FFC0
970080
3B2500
D32600
102400
104440
104440
108440
1307C0
ENDCHAR
STARTCHAR 3E60
ENCODING 15968
SWIDTH 1000 0
DWIDTH 20 0
BBX 18 17 1 -1
BITMAP
881800
4C1100
281780
107800
379000
501180
899100
191100
191100
291100
691100
C9FF00
891080
081080
081080
0810C0
701FC0
ENDCHAR
STARTCHAR 3E66
ENCODING 15974
SWIDTH 1000 0
DWIDTH 20 0
BBX 18 17 1 -1
BITMAP
440080
49FFC0
281080
103080
302080
502180
886180
184F00
198200
2B0100
48FF80
488100
888100
088100
088100
98FF00
708100
ENDCHAR
STARTCHAR 3E68
ENCODING 15976
SWIDTH 1000 0
DWIDTH 20 0
BBX 18 17 1 -1
BITMAP
8C1800
481000
301000
321080
31FFC0
511080
911080
191080
291080
29FF80
491080
891080
891080
091080
091080
11FF80
F10080
ENDCHAR
STARTCHAR 3E83
ENCODING 16003
SWIDTH 1000 0
DWIDTH 20 0
BBX 18 17 1 -1
BITMAP
886600
4C44C0
33FFC0
308400
30C000
508080
91FF80
190080
1B1080
2AF880
4C8980
888980
88F980
088900
080100
182100
F01F00
ENDCHAR
STARTCHAR 3E94
ENCODING 16020
SWIDTH 1000 0
DWIDTH 20 0
BBX 18 17 1 -1
BITMAP
4C0F00
49F000
392300
311180
321480
53FE00
9D8400
198500
19FF00
390100
29FFC0
490480
89AA80
09AA80
0AB480
0AA080
758F00
ENDCHAR
STARTCHAR 3F57
ENCODING 16215
SWIDTH 1000 0
DWIDTH 20 0
BBX 17 17 2 -1
BITMAP
843000
FE2000
962000
962000
962000
963000
963000
FE3000
963000
963000
966800
964800
FE4400
868600
810300
020180
040100
ENDCHAR
STARTCHAR 3F72
ENCODING 16242
SWIDTH 1000 0
DWIDTH 20 0
BBX 18 17 1 -1
BITMAP
006000
006000
106080
1FFFC0
900000
500100
57FF80
70C000
108200
30FF00
D10200
900200
100200
300200
200600
408400
C07C00
ENDCHAR
STARTCHAR 3F75
ENCODING 16245
SWIDTH 1000 0
DWIDTH 20 0
BBX 18 17 1 -1
BITMAP
006000
006000
106080
1FFFC0
900000
503000
502000
702000
102300
37FF00
D02000
902000
102000
202000
202180
4FFFC0
800000
ENDCHAR
STARTCHAR 3F77
ENCODING 16247
SWIDTH 1000 0
DWIDTH 20 0
BBX 18 17 1 -1
BITMAP
006000
006000
106080
1FFFC0
900000
503000
502000
70A180
17B300
10F200
71AC00
D12400
922600
162300
2421C0
382080
C1E000
ENDCHAR
STARTCHAR 3FAE
ENCODING 16302
SWIDTH 1000 0
DWIDTH 20 0
BBX 18 19 1 -2
BITMAP
004000
006000
206080
1FFFC0
102000
903200
53FF00
520200
53FE00
120200
73FE00
D00100
97FF80
102200
27FF00
202000
202080
4FFFC0
800000
ENDCHAR
STARTCHAR 3FC9
ENCODING 16329
SWIDTH 1000 0
DWIDTH 20 0
BBX 18 17 1 -1
BITMAP
006000
206080
1FFFC0
103000
93FE00
522300
53FE00
502080
1FFFC0
33FF00
520200
93FE00
13FE00
23FE00
220200
40CE00
CF0180
ENDCHAR
STARTCHAR 3FD7
ENCODING 16343
SWIDTH 1000 0
DWIDTH 20 0
BBX 18 18 1 -1
BITMAP
004000
006000
206080
1FFFC0
908080
93DFC0
554400
57F480
511F80
139080
357F80
D91080
92DF80
129080
229F80
24F000
448980
C97440
ENDCHAR
STARTCHAR 4039
ENCODING 16441
SWIDTH 1000 0
DWIDTH 20 0
BBX 17 19 2 -2
BITMAP
003000
883000
FC3000
883100
8FFF80
883000
F9B300
893200
893600
89B600
FAB500
8A7980
8C2880
886800
F84400
88C600
818300
030180
040100
ENDCHAR
STARTCHAR 4058
ENCODING 16472
SWIDTH 1000 0
DWIDTH 20 0
BBX 17 18 2 -1
BITMAP
001000
882A00
F86300
88FF00
89E200
8E9C00
F85000
886000
8B8200
8DFF00
F93000
8A3100
8FFF80
883000
F9B300
893200
81FE00
010200
ENDCHAR
STARTCHAR 4093
ENCODING 16531
SWIDTH 1000 0
DWIDTH 20 0
BBX 18 17 1 -1
BITMAP
308100
207F80
224100
7F4100
487F00
484100
884100
8A7F00
FF4100
184100
187F00
181400
163400
132440
212440
404440
8387C0
ENDCHAR
STARTCHAR 4105
ENCODING 16645
SWIDTH 1000 0
DWIDTH 20 0
BBX 18 17 1 -1
BITMAP
10C400
088E00
0C8800
059300
3FFF00
031080
FFFFC0
040400
081200
13F980
600240
BFFF00
004000
0C5C00
104600
204180
C7C180
ENDCHAR
STARTCHAR 4148
ENCODING 16712
SWIDTH 1000 0
DWIDTH 20 0
BBX 18 17 1 -1
BITMAP
10C400
088E00
0C8800
059300
3FFF00
031080
FFFFC0
040400
083300
37C9C0
408280
9FFE00
01C000
02B000
0C8E00
308380
C08000
ENDCHAR
STARTCHAR 414F
ENCODING 16719
SWIDTH 1000 0
DWIDTH 20 0
BBX 18 17 1 -1
BITMAP
0D0080
39FF80
D18080
118080
15FF80
FF8200
318F00
31B800
394900
350F80
557800
5108C0
913F00
91C840
120840
120840
140FC0
ENDCHAR
STARTCHAR 4163
ENCODING 16739
SWIDTH 1000 0
DWIDTH 20 0
BBX 18 18 1 -1
BITMAP
002000
0C1800
332100
D0FF80
108100
148100
FEFF00
108100
30FF00
388000
340080
57FFC0
501000
91FF80
901000
101000
1010C0
13FFC0
ENDCHAR
STARTCHAR 41B4
ENCODING 16820
SWIDTH 1000 0
DWIDTH 20 0
BBX 18 18 1 -1
BITMAP
00C000
208080
3FFFC0
432180
CC3F80
764000
0FE000
1FFE00
308300
DFFE00
1FFE00
208100
3FFF00
3FFF00
208100
3FFFC0
00C0C0
007FC0
ENDCHAR
STARTCHAR 41BF
ENCODING 16831
SWIDTH 1000 0
DWIDTH 20 0
BBX 18 18 1 -1
BITMAP
00C000
208080
3FFFC0
432180
CC3F80
701000
261900
34FF80
24FF00
24C100
3CFF00
04C100
FCFF80
25FFC0
241C00
242A00
44C9C0
870800
ENDCHAR
STARTCHAR 41E6
ENCODING 16870
SWIDTH 1000 0
DWIDTH 20 0
BBX 18 18 1 -2
BITMAP
183000
11A080
3FBFC0
284800
454C00
868400
208400
1FFE00
108200
108200
108280
FFFFC0
00C000
01A000
011000
060E00
1C03C0
E00080
ENDCHAR
STARTCHAR 41EE
ENCODING 16878
SWIDTH 1000 0
DWIDTH 20 0
BBX 18 17 1 -1
BITMAP
183000
11A080
3FBFC0
2C4800
448400
880000
0C0F00
11F000
121000
381000
501080
57FFC0
901000
101000
101000
101100
17FF80
ENDCHAR
STARTCHAR 41F3
ENCODING 16883
SWIDTH 1000 0
DWIDTH 20 0
BBX 18 18 1 -2
BITMAP
183000
11A080
3FBFC0
2C4800
448C00
81F000
010A00
01FF00
7F0200
07FF00
398080
00FFC0
FFC400
004E00
007880
00F880
070F80
F803C0
ENDCHAR
STARTCHAR 4207
ENCODING 16903
SWIDTH 1000 0
DWIDTH 20 0
BBX 18 18 1 -1
BITMAP
183000
11A080
3FBFC0
2C4800
44CC00
808100
00FF80
008400
1FFF00
100200
1FFE00
100200
1FFE00
108080
FFFFC0
008000
008000
008000
ENDCHAR
STARTCHAR 420E
ENCODING 16910
SWIDTH 1000 0
DWIDTH 20 0
BBX 18 18 1 -1
BITMAP
181000
11A080
3FBFC0
2C4800
448400
88CC00
088C80
FFFFC0
088C00
08FC00
080100
0FFF80
FFFFC0
01E000
02D800
0CC600
30C1C0
C0C000
ENDCHAR
STARTCHAR 4264
ENCODING 16996
SWIDTH 1000 0
DWIDTH 20 0
BBX 18 18 1 -1
BITMAP
101000
19A080
3FBFC0
244C00
468400
851800
659000
3690C0
FFDFC0
1E3100
65D100
888B00
FFCA00
110400
220E00
5E0B00
0F11C0
F0E080
ENDCHAR
STARTCHAR 42C6
ENCODING 17094
SWIDTH 1000 0
DWIDTH 20 0
BBX 18 17 1 -1
BITMAP
180000
100080
25FFC0
A60000
6C0100
28FF80
18C100
26C100
FEC100
92C100
10FF00
748000
528000
928000
908000
910000
120000
ENDCHAR
STARTCHAR 42D6
ENCODING 17110
SWIDTH 1000 0
DWIDTH 20 0
BBX 18 18 1 -1
BITMAP
101000
181800
101100
A6FF00
641100
2C1140
29FFC0
141100
221100
3EFF00
D01080
55FF80
721000
5210C0
53FFC0
921000
901000
101000
ENDCHAR
STARTCHAR 42DD
ENCODING 17117
SWIDTH 1000 0
DWIDTH 20 0
BBX 18 18 1 -1
BITMAP
182100
1110C0
249880
E68900
2C4900
284200
141200
221800
FE20C0
D3FFC0
922200
544200
744200
52E400
529C00
920E00
903300
13C080
ENDCHAR
STARTCHAR 4302
ENCODING 17154
SWIDTH 1000 0
DWIDTH 20 0
BBX 18 17 1 -1
BITMAP
190080
10FF80
248080
E68080
28FF80
288080
14FFC0
228800
FE9380
10FE80
74CC00
568880
537F80
930800
910800
9108C0
12FFC0
ENDCHAR
ENDFONT
